G04*
G04 #@! TF.GenerationSoftware,Altium Limited,Altium Designer,22.4.2 (48)*
G04*
G04 Layer_Color=16711935*
%FSLAX25Y25*%
%MOIN*%
G70*
G04*
G04 #@! TF.SameCoordinates,86ED126B-1A43-4ADE-9BAE-4DEA70944F59*
G04*
G04*
G04 #@! TF.FilePolarity,Positive*
G04*
G01*
G75*
%ADD11C,0.00787*%
%ADD12C,0.00500*%
%ADD33C,0.00394*%
D11*
X22602Y75500D02*
G03*
X22602Y75500I-394J0D01*
G01*
X66185Y143500D02*
G03*
X66185Y143500I-394J0D01*
G01*
X132248Y94496D02*
Y136504D01*
Y94496D02*
X150752D01*
Y136504D01*
X132248D02*
X150752D01*
X197240Y162524D02*
X204760D01*
Y180476D01*
X197240D02*
X204760D01*
X197240Y162524D02*
Y180476D01*
X171740Y181976D02*
X179260D01*
X171740Y164024D02*
Y181976D01*
Y164024D02*
X179260D01*
Y181976D01*
X119976Y195740D02*
Y203260D01*
X102024D02*
X119976D01*
X102024Y195740D02*
Y203260D01*
Y195740D02*
X119976D01*
X179524Y207740D02*
Y215260D01*
Y207740D02*
X197476D01*
Y215260D01*
X179524D02*
X197476D01*
D12*
X26146Y22350D02*
Y88650D01*
Y22350D02*
X59610D01*
Y88650D01*
X26146D02*
X59610D01*
X28390Y130350D02*
X61854D01*
X28390D02*
Y196650D01*
X61854D01*
Y130350D02*
Y196650D01*
D33*
X165720Y21937D02*
Y64063D01*
X147216Y21937D02*
Y64063D01*
X165720D01*
X147216Y21937D02*
X165720D01*
X160602D02*
Y64063D01*
M02*
