G04*
G04 #@! TF.GenerationSoftware,Altium Limited,Altium Designer,22.4.2 (48)*
G04*
G04 Layer_Color=65535*
%FSLAX25Y25*%
%MOIN*%
G70*
G04*
G04 #@! TF.SameCoordinates,86ED126B-1A43-4ADE-9BAE-4DEA70944F59*
G04*
G04*
G04 #@! TF.FilePolarity,Positive*
G04*
G01*
G75*
%ADD10C,0.00984*%
%ADD11C,0.00787*%
%ADD12C,0.00500*%
%ADD13C,0.01000*%
D10*
X145150Y53000D02*
G03*
X145150Y53000I-492J0D01*
G01*
X139866Y138472D02*
G03*
X139866Y138472I-492J0D01*
G01*
D11*
X22602Y75500D02*
G03*
X22602Y75500I-394J0D01*
G01*
X66185Y143500D02*
G03*
X66185Y143500I-394J0D01*
G01*
X176500Y96500D02*
X191500D01*
X176500D02*
Y141500D01*
X191500D01*
Y96500D02*
Y141500D01*
X163752Y21937D02*
Y64063D01*
X165720Y21937D02*
Y64063D01*
X147216Y21937D02*
Y64063D01*
X165720D01*
X147216Y21937D02*
X165720D01*
X81500Y41500D02*
Y56500D01*
X126500D01*
Y41500D02*
Y56500D01*
X81500Y41500D02*
X126500D01*
X132248Y132303D02*
X150752Y136504D01*
Y94693D02*
Y136307D01*
X132248Y98697D02*
X150752Y94496D01*
X132248Y98697D02*
Y132303D01*
X201000Y180476D02*
Y182051D01*
Y160949D02*
Y162524D01*
X197634Y165594D02*
X204366D01*
X197240Y162524D02*
X204760D01*
Y180476D01*
X197240D02*
X204760D01*
X197240Y162524D02*
Y180476D01*
X175500Y162449D02*
Y164024D01*
Y181976D02*
Y183551D01*
X172134Y178905D02*
X178866D01*
X171740Y181976D02*
X179260D01*
X171740Y164024D02*
Y181976D01*
Y164024D02*
X179260D01*
Y181976D01*
X93000Y158500D02*
X108000D01*
Y113500D02*
Y158500D01*
X93000Y113500D02*
X108000D01*
X93000D02*
Y158500D01*
X100449Y199500D02*
X102024D01*
X119976D02*
X121551D01*
X116905Y196134D02*
Y202866D01*
X119976Y195740D02*
Y203260D01*
X102024D02*
X119976D01*
X102024Y195740D02*
Y203260D01*
Y195740D02*
X119976D01*
X197476Y211500D02*
X199051D01*
X177949D02*
X179524D01*
X182595Y208134D02*
Y214866D01*
X179524Y207740D02*
Y215260D01*
Y207740D02*
X197476D01*
Y215260D01*
X179524D02*
X197476D01*
X201500Y72000D02*
X216500D01*
Y27000D02*
Y72000D01*
X201500Y27000D02*
X216500D01*
X201500D02*
Y72000D01*
D12*
X26146Y22350D02*
Y88650D01*
X59610Y22350D02*
Y88650D01*
X26146Y22350D02*
X59610D01*
X26146Y88650D02*
X59610D01*
X28390Y130350D02*
X61854D01*
X28390Y196650D02*
X61854D01*
X28390Y130350D02*
Y196650D01*
X61854Y130350D02*
Y196650D01*
D13*
X183000Y92499D02*
X186999D01*
X184999Y94499D02*
Y90500D01*
X220000Y67499D02*
X223999D01*
X221999Y69499D02*
Y65500D01*
X75000Y42999D02*
X78999D01*
X76999Y44999D02*
Y41000D01*
X110500Y158499D02*
X114499D01*
X112499Y160499D02*
Y156500D01*
X60999Y12498D02*
X59999Y13497D01*
X58000D01*
X57000Y12498D01*
Y8499D01*
X58000Y7499D01*
X59999D01*
X60999Y8499D01*
Y10498D01*
X58999D01*
X62998Y11498D02*
Y7499D01*
Y9499D01*
X63998Y10498D01*
X64997Y11498D01*
X65997D01*
X69996Y7499D02*
X71995D01*
X72995Y8499D01*
Y10498D01*
X71995Y11498D01*
X69996D01*
X68996Y10498D01*
Y8499D01*
X69996Y7499D01*
X74994Y11498D02*
Y8499D01*
X75994Y7499D01*
X78993D01*
Y11498D01*
X80992Y5500D02*
Y11498D01*
X83991D01*
X84991Y10498D01*
Y8499D01*
X83991Y7499D01*
X80992D01*
X92988D02*
X94988D01*
X93988D01*
Y13497D01*
X92988Y12498D01*
X100986Y7499D02*
Y13497D01*
X97987Y10498D01*
X101986D01*
X109983D02*
X113982D01*
X121979Y7499D02*
Y13497D01*
X124978D01*
X125978Y12498D01*
Y10498D01*
X124978Y9499D01*
X121979D01*
X128977Y7499D02*
X130976D01*
X131976Y8499D01*
Y10498D01*
X130976Y11498D01*
X128977D01*
X127977Y10498D01*
Y8499D01*
X128977Y7499D01*
X133975Y11498D02*
Y8499D01*
X134975Y7499D01*
X135975Y8499D01*
X136974Y7499D01*
X137974Y8499D01*
Y11498D01*
X142972Y7499D02*
X140973D01*
X139973Y8499D01*
Y10498D01*
X140973Y11498D01*
X142972D01*
X143972Y10498D01*
Y9499D01*
X139973D01*
X145971Y11498D02*
Y7499D01*
Y9499D01*
X146971Y10498D01*
X147971Y11498D01*
X148970D01*
X161966Y12498D02*
X160966Y13497D01*
X158967D01*
X157967Y12498D01*
Y8499D01*
X158967Y7499D01*
X160966D01*
X161966Y8499D01*
X163965Y7499D02*
X165965D01*
X164965D01*
Y11498D01*
X163965D01*
X168964D02*
Y7499D01*
Y9499D01*
X169964Y10498D01*
X170963Y11498D01*
X171963D01*
X178961D02*
X175961D01*
X174962Y10498D01*
Y8499D01*
X175961Y7499D01*
X178961D01*
X180960Y11498D02*
Y8499D01*
X181960Y7499D01*
X184959D01*
Y11498D01*
X186958Y7499D02*
X188957D01*
X187958D01*
Y11498D01*
X186958D01*
X192956Y12498D02*
Y11498D01*
X191956D01*
X193956D01*
X192956D01*
Y8499D01*
X193956Y7499D01*
X181099Y149898D02*
X180099Y150898D01*
X178100D01*
X177100Y149898D01*
Y145900D01*
X178100Y144900D01*
X180099D01*
X181099Y145900D01*
X183098Y144900D02*
X185097D01*
X184098D01*
Y150898D01*
X183098Y149898D01*
X25399Y98698D02*
X23400D01*
X22400Y97698D01*
Y93700D01*
X23400Y92700D01*
X25399D01*
X26399Y93700D01*
Y97698D01*
X25399Y98698D01*
X28398D02*
Y93700D01*
X29398Y92700D01*
X31397D01*
X32397Y93700D01*
Y98698D01*
X34396D02*
X38395D01*
X36395D01*
Y92700D01*
X28300Y206698D02*
X32299D01*
X30299D01*
Y200700D01*
X34298D02*
Y206698D01*
X37297D01*
X38297Y205698D01*
Y203699D01*
X37297Y202699D01*
X34298D01*
X36297D02*
X38297Y200700D01*
X40296D02*
Y206698D01*
X44295Y200700D01*
Y206698D01*
X50293Y205698D02*
X49293Y206698D01*
X47294D01*
X46294Y205698D01*
Y204699D01*
X47294Y203699D01*
X49293D01*
X50293Y202699D01*
Y201700D01*
X49293Y200700D01*
X47294D01*
X46294Y201700D01*
X144700Y73598D02*
Y67600D01*
X148699D01*
X150698D02*
Y73598D01*
X152697Y71599D01*
X154697Y73598D01*
Y67600D01*
X156696Y73598D02*
X160695D01*
Y72598D01*
X156696Y68600D01*
Y67600D01*
X162694Y68600D02*
X163694Y67600D01*
X165693D01*
X166693Y68600D01*
Y72598D01*
X165693Y73598D01*
X163694D01*
X162694Y72598D01*
Y71599D01*
X163694Y70599D01*
X166693D01*
X168692Y67600D02*
X170692D01*
X169692D01*
Y73598D01*
X168692Y72598D01*
X177689Y67600D02*
X173691D01*
X177689Y71599D01*
Y72598D01*
X176690Y73598D01*
X174690D01*
X173691Y72598D01*
X132500Y148498D02*
Y142500D01*
X136499D01*
X138498D02*
Y148498D01*
X140497Y146499D01*
X142497Y148498D01*
Y142500D01*
X144496Y148498D02*
X148495D01*
Y147498D01*
X144496Y143500D01*
Y142500D01*
X150494Y147498D02*
X151494Y148498D01*
X153493D01*
X154493Y147498D01*
Y146499D01*
X153493Y145499D01*
X154493Y144499D01*
Y143500D01*
X153493Y142500D01*
X151494D01*
X150494Y143500D01*
Y144499D01*
X151494Y145499D01*
X150494Y146499D01*
Y147498D01*
X151494Y145499D02*
X153493D01*
X156492Y142500D02*
X158492D01*
X157492D01*
Y148498D01*
X156492Y147498D01*
X165489Y142500D02*
X161491D01*
X165489Y146499D01*
Y147498D01*
X164490Y148498D01*
X162490D01*
X161491Y147498D01*
X93800Y212998D02*
Y207000D01*
X96799D01*
X97799Y208000D01*
Y211998D01*
X96799Y212998D01*
X93800D01*
X102797Y207000D02*
Y212998D01*
X99798Y209999D01*
X103797D01*
X171300Y224998D02*
Y219000D01*
X174299D01*
X175299Y220000D01*
Y223998D01*
X174299Y224998D01*
X171300D01*
X177298Y223998D02*
X178298Y224998D01*
X180297D01*
X181297Y223998D01*
Y222999D01*
X180297Y221999D01*
X179297D01*
X180297D01*
X181297Y220999D01*
Y220000D01*
X180297Y219000D01*
X178298D01*
X177298Y220000D01*
X197500Y198698D02*
Y192700D01*
X200499D01*
X201499Y193700D01*
Y197698D01*
X200499Y198698D01*
X197500D01*
X207497Y192700D02*
X203498D01*
X207497Y196699D01*
Y197698D01*
X206497Y198698D01*
X204498D01*
X203498Y197698D01*
X172000Y200198D02*
Y194200D01*
X174999D01*
X175999Y195200D01*
Y199198D01*
X174999Y200198D01*
X172000D01*
X177998Y194200D02*
X179997D01*
X178998D01*
Y200198D01*
X177998Y199198D01*
X206099Y80398D02*
X205099Y81398D01*
X203100D01*
X202100Y80398D01*
Y76400D01*
X203100Y75400D01*
X205099D01*
X206099Y76400D01*
X211097Y75400D02*
Y81398D01*
X208098Y78399D01*
X212097D01*
X86099Y64898D02*
X85099Y65898D01*
X83100D01*
X82100Y64898D01*
Y60900D01*
X83100Y59900D01*
X85099D01*
X86099Y60900D01*
X88098Y64898D02*
X89098Y65898D01*
X91097D01*
X92097Y64898D01*
Y63899D01*
X91097Y62899D01*
X90097D01*
X91097D01*
X92097Y61899D01*
Y60900D01*
X91097Y59900D01*
X89098D01*
X88098Y60900D01*
X97599Y166898D02*
X96599Y167898D01*
X94600D01*
X93600Y166898D01*
Y162900D01*
X94600Y161900D01*
X96599D01*
X97599Y162900D01*
X103597Y161900D02*
X99598D01*
X103597Y165899D01*
Y166898D01*
X102597Y167898D01*
X100598D01*
X99598Y166898D01*
M02*
