G04*
G04 #@! TF.GenerationSoftware,Altium Limited,Altium Designer,22.4.2 (48)*
G04*
G04 Layer_Color=16711935*
%FSLAX25Y25*%
%MOIN*%
G70*
G04*
G04 #@! TF.SameCoordinates,86ED126B-1A43-4ADE-9BAE-4DEA70944F59*
G04*
G04*
G04 #@! TF.FilePolarity,Positive*
G04*
G01*
G75*
%ADD11C,0.00787*%
G36*
X145864Y114803D02*
X145544D01*
Y116910D01*
X144809Y114803D01*
X144510D01*
X143782Y116946D01*
Y114803D01*
X143462D01*
Y117321D01*
X143961D01*
X144558Y115534D01*
Y115531D01*
X144561Y115523D01*
X144565Y115512D01*
X144572Y115494D01*
X144587Y115451D01*
X144605Y115396D01*
X144623Y115334D01*
X144645Y115272D01*
X144663Y115214D01*
X144678Y115163D01*
X144681Y115170D01*
X144685Y115188D01*
X144696Y115221D01*
X144711Y115265D01*
X144729Y115323D01*
X144754Y115392D01*
X144780Y115472D01*
X144812Y115567D01*
X145417Y117321D01*
X145864D01*
Y114803D01*
D02*
G37*
G36*
X153050Y117329D02*
X153079Y117325D01*
X153115Y117321D01*
X153155Y117314D01*
X153195Y117307D01*
X153290Y117281D01*
X153385Y117245D01*
X153432Y117223D01*
X153479Y117198D01*
X153523Y117165D01*
X153563Y117129D01*
X153567Y117125D01*
X153574Y117121D01*
X153581Y117107D01*
X153596Y117092D01*
X153614Y117074D01*
X153632Y117048D01*
X153650Y117023D01*
X153672Y116990D01*
X153709Y116921D01*
X153745Y116834D01*
X153760Y116790D01*
X153767Y116739D01*
X153774Y116688D01*
X153778Y116633D01*
Y116626D01*
Y116608D01*
X153774Y116579D01*
X153770Y116539D01*
X153763Y116495D01*
X153749Y116444D01*
X153734Y116390D01*
X153712Y116335D01*
X153709Y116328D01*
X153701Y116309D01*
X153687Y116280D01*
X153665Y116240D01*
X153636Y116197D01*
X153599Y116142D01*
X153556Y116087D01*
X153505Y116026D01*
X153497Y116018D01*
X153479Y115997D01*
X153461Y115978D01*
X153443Y115960D01*
X153421Y115938D01*
X153392Y115909D01*
X153363Y115880D01*
X153326Y115847D01*
X153290Y115811D01*
X153246Y115771D01*
X153199Y115731D01*
X153148Y115683D01*
X153090Y115636D01*
X153032Y115585D01*
X153028Y115582D01*
X153021Y115574D01*
X153006Y115563D01*
X152988Y115549D01*
X152966Y115527D01*
X152940Y115505D01*
X152882Y115458D01*
X152820Y115403D01*
X152762Y115349D01*
X152711Y115301D01*
X152689Y115283D01*
X152671Y115265D01*
X152667Y115261D01*
X152657Y115250D01*
X152642Y115236D01*
X152624Y115214D01*
X152606Y115188D01*
X152584Y115163D01*
X152540Y115101D01*
X153781D01*
Y114803D01*
X152111D01*
Y114806D01*
Y114821D01*
Y114843D01*
X152114Y114872D01*
X152118Y114904D01*
X152125Y114941D01*
X152132Y114977D01*
X152147Y115017D01*
Y115021D01*
X152151Y115025D01*
X152158Y115046D01*
X152173Y115079D01*
X152194Y115123D01*
X152223Y115174D01*
X152260Y115232D01*
X152300Y115290D01*
X152351Y115352D01*
Y115356D01*
X152358Y115359D01*
X152376Y115381D01*
X152409Y115414D01*
X152456Y115461D01*
X152511Y115516D01*
X152580Y115582D01*
X152664Y115654D01*
X152755Y115731D01*
X152759Y115734D01*
X152773Y115745D01*
X152795Y115763D01*
X152820Y115785D01*
X152853Y115814D01*
X152893Y115847D01*
X152933Y115884D01*
X152981Y115924D01*
X153072Y116011D01*
X153163Y116098D01*
X153206Y116142D01*
X153246Y116186D01*
X153283Y116226D01*
X153312Y116266D01*
Y116270D01*
X153319Y116273D01*
X153326Y116284D01*
X153334Y116299D01*
X153359Y116339D01*
X153388Y116386D01*
X153414Y116444D01*
X153439Y116506D01*
X153454Y116575D01*
X153461Y116641D01*
Y116644D01*
Y116648D01*
X153457Y116670D01*
X153454Y116706D01*
X153443Y116746D01*
X153428Y116797D01*
X153403Y116848D01*
X153370Y116899D01*
X153326Y116950D01*
X153319Y116957D01*
X153301Y116972D01*
X153275Y116990D01*
X153235Y117016D01*
X153184Y117037D01*
X153126Y117059D01*
X153057Y117074D01*
X152981Y117078D01*
X152959D01*
X152944Y117074D01*
X152901Y117070D01*
X152849Y117059D01*
X152795Y117045D01*
X152733Y117019D01*
X152675Y116987D01*
X152620Y116943D01*
X152613Y116936D01*
X152598Y116917D01*
X152576Y116888D01*
X152555Y116845D01*
X152529Y116794D01*
X152507Y116728D01*
X152493Y116655D01*
X152486Y116572D01*
X152169Y116604D01*
Y116608D01*
X152173Y116619D01*
Y116637D01*
X152176Y116663D01*
X152183Y116692D01*
X152191Y116725D01*
X152202Y116764D01*
X152213Y116805D01*
X152242Y116892D01*
X152285Y116979D01*
X152311Y117023D01*
X152344Y117067D01*
X152376Y117107D01*
X152413Y117143D01*
X152416Y117147D01*
X152424Y117150D01*
X152435Y117161D01*
X152453Y117172D01*
X152475Y117187D01*
X152500Y117201D01*
X152529Y117219D01*
X152566Y117238D01*
X152606Y117256D01*
X152649Y117274D01*
X152697Y117289D01*
X152748Y117303D01*
X152802Y117314D01*
X152860Y117325D01*
X152922Y117329D01*
X152988Y117332D01*
X153024D01*
X153050Y117329D01*
D02*
G37*
G36*
X151361Y114803D02*
X151051D01*
Y116772D01*
X151048Y116768D01*
X151030Y116754D01*
X151008Y116732D01*
X150971Y116706D01*
X150931Y116674D01*
X150880Y116637D01*
X150822Y116597D01*
X150757Y116557D01*
X150753D01*
X150749Y116553D01*
X150727Y116539D01*
X150691Y116521D01*
X150647Y116499D01*
X150596Y116473D01*
X150542Y116448D01*
X150487Y116422D01*
X150433Y116401D01*
Y116699D01*
X150436D01*
X150443Y116706D01*
X150458Y116710D01*
X150476Y116721D01*
X150498Y116732D01*
X150524Y116746D01*
X150585Y116783D01*
X150658Y116823D01*
X150731Y116874D01*
X150807Y116932D01*
X150884Y116994D01*
X150888Y116998D01*
X150891Y117001D01*
X150902Y117012D01*
X150917Y117023D01*
X150949Y117059D01*
X150993Y117103D01*
X151037Y117154D01*
X151084Y117212D01*
X151124Y117271D01*
X151161Y117332D01*
X151361D01*
Y114803D01*
D02*
G37*
G36*
X147932Y117045D02*
X147928Y117041D01*
X147921Y117034D01*
X147906Y117019D01*
X147892Y116998D01*
X147870Y116972D01*
X147841Y116943D01*
X147812Y116906D01*
X147779Y116863D01*
X147746Y116819D01*
X147706Y116768D01*
X147666Y116710D01*
X147626Y116652D01*
X147582Y116586D01*
X147539Y116517D01*
X147495Y116441D01*
X147451Y116364D01*
X147448Y116360D01*
X147441Y116346D01*
X147430Y116324D01*
X147411Y116291D01*
X147393Y116251D01*
X147371Y116208D01*
X147346Y116157D01*
X147320Y116098D01*
X147291Y116033D01*
X147258Y115967D01*
X147229Y115895D01*
X147200Y115818D01*
X147142Y115662D01*
X147087Y115494D01*
Y115490D01*
X147084Y115480D01*
X147080Y115461D01*
X147073Y115440D01*
X147066Y115410D01*
X147058Y115374D01*
X147047Y115334D01*
X147040Y115290D01*
X147029Y115239D01*
X147018Y115185D01*
X147000Y115068D01*
X146982Y114941D01*
X146971Y114803D01*
X146654D01*
Y114806D01*
Y114817D01*
Y114832D01*
X146658Y114854D01*
Y114883D01*
X146661Y114919D01*
X146665Y114959D01*
X146669Y115003D01*
X146676Y115054D01*
X146683Y115105D01*
X146694Y115167D01*
X146705Y115228D01*
X146716Y115294D01*
X146731Y115367D01*
X146767Y115516D01*
Y115520D01*
X146771Y115534D01*
X146778Y115556D01*
X146789Y115589D01*
X146800Y115625D01*
X146814Y115669D01*
X146829Y115720D01*
X146851Y115774D01*
X146873Y115836D01*
X146895Y115898D01*
X146949Y116036D01*
X147015Y116182D01*
X147087Y116328D01*
X147091Y116331D01*
X147098Y116346D01*
X147109Y116364D01*
X147124Y116393D01*
X147142Y116426D01*
X147168Y116466D01*
X147193Y116510D01*
X147222Y116557D01*
X147291Y116663D01*
X147364Y116772D01*
X147448Y116885D01*
X147535Y116990D01*
X146301D01*
Y117289D01*
X147932D01*
Y117045D01*
D02*
G37*
G36*
X141835Y115101D02*
X143076D01*
Y114803D01*
X141500D01*
Y117321D01*
X141835D01*
Y115101D01*
D02*
G37*
G36*
X149111Y117329D02*
X149140Y117325D01*
X149173Y117321D01*
X149209Y117318D01*
X149246Y117307D01*
X149333Y117285D01*
X149421Y117252D01*
X149464Y117230D01*
X149508Y117205D01*
X149548Y117172D01*
X149588Y117139D01*
X149592Y117136D01*
X149595Y117132D01*
X149606Y117121D01*
X149621Y117107D01*
X149635Y117085D01*
X149654Y117063D01*
X149690Y117008D01*
X149726Y116939D01*
X149759Y116859D01*
X149785Y116768D01*
X149788Y116721D01*
X149792Y116670D01*
Y116666D01*
Y116663D01*
Y116641D01*
X149788Y116608D01*
X149781Y116568D01*
X149770Y116517D01*
X149752Y116466D01*
X149730Y116415D01*
X149697Y116364D01*
X149694Y116357D01*
X149679Y116342D01*
X149657Y116320D01*
X149628Y116291D01*
X149588Y116259D01*
X149541Y116226D01*
X149486Y116193D01*
X149421Y116164D01*
X149424D01*
X149432Y116160D01*
X149443Y116157D01*
X149457Y116149D01*
X149501Y116131D01*
X149552Y116106D01*
X149606Y116069D01*
X149664Y116029D01*
X149719Y115978D01*
X149770Y115920D01*
Y115916D01*
X149774Y115913D01*
X149788Y115891D01*
X149810Y115855D01*
X149832Y115807D01*
X149854Y115749D01*
X149876Y115680D01*
X149890Y115603D01*
X149894Y115520D01*
Y115516D01*
Y115505D01*
Y115487D01*
X149890Y115465D01*
X149887Y115440D01*
X149883Y115407D01*
X149876Y115370D01*
X149865Y115330D01*
X149839Y115247D01*
X149821Y115199D01*
X149796Y115156D01*
X149770Y115108D01*
X149741Y115065D01*
X149705Y115021D01*
X149664Y114977D01*
X149661Y114974D01*
X149654Y114966D01*
X149643Y114955D01*
X149625Y114945D01*
X149599Y114926D01*
X149574Y114908D01*
X149541Y114890D01*
X149504Y114868D01*
X149464Y114846D01*
X149417Y114828D01*
X149366Y114810D01*
X149315Y114792D01*
X149257Y114781D01*
X149195Y114770D01*
X149133Y114762D01*
X149064Y114759D01*
X149028D01*
X149002Y114762D01*
X148969Y114766D01*
X148933Y114770D01*
X148893Y114777D01*
X148849Y114788D01*
X148751Y114813D01*
X148700Y114832D01*
X148653Y114850D01*
X148602Y114875D01*
X148551Y114904D01*
X148503Y114937D01*
X148460Y114977D01*
X148456Y114981D01*
X148449Y114988D01*
X148438Y114999D01*
X148423Y115017D01*
X148409Y115039D01*
X148387Y115065D01*
X148369Y115094D01*
X148347Y115130D01*
X148325Y115167D01*
X148307Y115210D01*
X148270Y115301D01*
X148256Y115356D01*
X148245Y115410D01*
X148238Y115469D01*
X148234Y115527D01*
Y115531D01*
Y115538D01*
Y115552D01*
X148238Y115567D01*
Y115589D01*
X148241Y115614D01*
X148249Y115673D01*
X148263Y115738D01*
X148285Y115804D01*
X148318Y115873D01*
X148358Y115938D01*
Y115942D01*
X148365Y115945D01*
X148380Y115964D01*
X148409Y115993D01*
X148449Y116029D01*
X148500Y116066D01*
X148562Y116106D01*
X148631Y116138D01*
X148714Y116164D01*
X148711D01*
X148707Y116168D01*
X148696Y116171D01*
X148682Y116179D01*
X148649Y116193D01*
X148605Y116215D01*
X148558Y116244D01*
X148511Y116280D01*
X148467Y116320D01*
X148427Y116364D01*
X148423Y116371D01*
X148412Y116386D01*
X148398Y116415D01*
X148383Y116452D01*
X148365Y116499D01*
X148351Y116553D01*
X148340Y116615D01*
X148336Y116681D01*
Y116684D01*
Y116692D01*
Y116706D01*
X148340Y116728D01*
X148343Y116750D01*
X148347Y116779D01*
X148361Y116841D01*
X148383Y116914D01*
X148420Y116990D01*
X148442Y117030D01*
X148467Y117070D01*
X148500Y117107D01*
X148532Y117143D01*
X148536Y117147D01*
X148543Y117150D01*
X148554Y117161D01*
X148569Y117172D01*
X148587Y117187D01*
X148613Y117201D01*
X148642Y117219D01*
X148671Y117238D01*
X148707Y117256D01*
X148747Y117274D01*
X148791Y117289D01*
X148838Y117303D01*
X148940Y117325D01*
X148998Y117329D01*
X149057Y117332D01*
X149089D01*
X149111Y117329D01*
D02*
G37*
G36*
X201000Y173870D02*
X200996D01*
X200982D01*
X200960D01*
X200931Y173873D01*
X200898Y173877D01*
X200862Y173884D01*
X200825Y173891D01*
X200785Y173906D01*
X200782D01*
X200778Y173910D01*
X200756Y173917D01*
X200723Y173932D01*
X200680Y173953D01*
X200629Y173982D01*
X200571Y174019D01*
X200512Y174059D01*
X200450Y174110D01*
X200447D01*
X200443Y174117D01*
X200421Y174135D01*
X200389Y174168D01*
X200341Y174215D01*
X200287Y174270D01*
X200221Y174339D01*
X200148Y174423D01*
X200072Y174514D01*
X200068Y174518D01*
X200057Y174532D01*
X200039Y174554D01*
X200017Y174579D01*
X199988Y174612D01*
X199955Y174652D01*
X199919Y174692D01*
X199879Y174740D01*
X199792Y174830D01*
X199704Y174922D01*
X199661Y174965D01*
X199617Y175005D01*
X199577Y175042D01*
X199537Y175071D01*
X199533D01*
X199530Y175078D01*
X199519Y175085D01*
X199504Y175093D01*
X199464Y175118D01*
X199417Y175147D01*
X199358Y175173D01*
X199296Y175198D01*
X199227Y175213D01*
X199162Y175220D01*
X199158D01*
X199154D01*
X199133Y175216D01*
X199096Y175213D01*
X199056Y175202D01*
X199005Y175187D01*
X198954Y175162D01*
X198903Y175129D01*
X198852Y175085D01*
X198845Y175078D01*
X198831Y175060D01*
X198812Y175034D01*
X198787Y174994D01*
X198765Y174943D01*
X198743Y174885D01*
X198729Y174816D01*
X198725Y174740D01*
Y174718D01*
X198729Y174703D01*
X198732Y174660D01*
X198743Y174609D01*
X198758Y174554D01*
X198783Y174492D01*
X198816Y174434D01*
X198860Y174379D01*
X198867Y174372D01*
X198885Y174357D01*
X198914Y174336D01*
X198958Y174314D01*
X199009Y174288D01*
X199074Y174266D01*
X199147Y174252D01*
X199231Y174244D01*
X199198Y173928D01*
X199195D01*
X199184Y173932D01*
X199165D01*
X199140Y173935D01*
X199111Y173942D01*
X199078Y173950D01*
X199038Y173961D01*
X198998Y173971D01*
X198911Y174001D01*
X198823Y174044D01*
X198780Y174070D01*
X198736Y174102D01*
X198696Y174135D01*
X198660Y174172D01*
X198656Y174175D01*
X198652Y174183D01*
X198641Y174194D01*
X198630Y174212D01*
X198616Y174234D01*
X198601Y174259D01*
X198583Y174288D01*
X198565Y174325D01*
X198547Y174365D01*
X198529Y174408D01*
X198514Y174456D01*
X198499Y174507D01*
X198488Y174561D01*
X198477Y174619D01*
X198474Y174681D01*
X198470Y174747D01*
Y174783D01*
X198474Y174809D01*
X198477Y174838D01*
X198481Y174874D01*
X198488Y174914D01*
X198496Y174954D01*
X198521Y175049D01*
X198558Y175144D01*
X198579Y175191D01*
X198605Y175238D01*
X198638Y175282D01*
X198674Y175322D01*
X198678Y175326D01*
X198681Y175333D01*
X198696Y175340D01*
X198711Y175355D01*
X198729Y175373D01*
X198754Y175391D01*
X198780Y175409D01*
X198812Y175431D01*
X198881Y175468D01*
X198969Y175504D01*
X199013Y175519D01*
X199064Y175526D01*
X199115Y175533D01*
X199169Y175537D01*
X199176D01*
X199195D01*
X199224Y175533D01*
X199264Y175529D01*
X199307Y175522D01*
X199358Y175508D01*
X199413Y175493D01*
X199468Y175471D01*
X199475Y175468D01*
X199493Y175460D01*
X199522Y175446D01*
X199562Y175424D01*
X199606Y175395D01*
X199661Y175358D01*
X199715Y175315D01*
X199777Y175264D01*
X199784Y175256D01*
X199806Y175238D01*
X199824Y175220D01*
X199843Y175202D01*
X199864Y175180D01*
X199893Y175151D01*
X199923Y175122D01*
X199955Y175085D01*
X199992Y175049D01*
X200032Y175005D01*
X200072Y174958D01*
X200119Y174907D01*
X200167Y174849D01*
X200217Y174791D01*
X200221Y174787D01*
X200228Y174780D01*
X200239Y174765D01*
X200254Y174747D01*
X200276Y174725D01*
X200297Y174699D01*
X200345Y174641D01*
X200399Y174579D01*
X200454Y174521D01*
X200501Y174470D01*
X200520Y174448D01*
X200538Y174430D01*
X200541Y174426D01*
X200552Y174416D01*
X200567Y174401D01*
X200589Y174383D01*
X200614Y174365D01*
X200640Y174343D01*
X200701Y174299D01*
Y175540D01*
X201000D01*
Y173870D01*
D02*
G37*
G36*
X199802Y173578D02*
X199832D01*
X199901Y173575D01*
X199981Y173564D01*
X200065Y173553D01*
X200152Y173535D01*
X200239Y173513D01*
X200243D01*
X200250Y173509D01*
X200261Y173506D01*
X200276Y173502D01*
X200316Y173487D01*
X200367Y173466D01*
X200425Y173444D01*
X200483Y173415D01*
X200545Y173378D01*
X200603Y173342D01*
X200610Y173338D01*
X200629Y173324D01*
X200654Y173302D01*
X200687Y173273D01*
X200723Y173240D01*
X200760Y173200D01*
X200800Y173160D01*
X200833Y173112D01*
X200836Y173105D01*
X200847Y173091D01*
X200862Y173065D01*
X200880Y173029D01*
X200902Y172985D01*
X200920Y172934D01*
X200942Y172876D01*
X200960Y172810D01*
Y172803D01*
X200964Y172792D01*
X200967Y172781D01*
X200971Y172745D01*
X200978Y172694D01*
X200986Y172636D01*
X200993Y172566D01*
X200996Y172490D01*
X201000Y172406D01*
Y171500D01*
X198481D01*
Y172468D01*
X198485Y172534D01*
X198488Y172607D01*
X198496Y172679D01*
X198507Y172752D01*
X198518Y172814D01*
Y172818D01*
X198521Y172825D01*
Y172836D01*
X198529Y172850D01*
X198539Y172890D01*
X198558Y172941D01*
X198583Y173000D01*
X198616Y173062D01*
X198652Y173123D01*
X198699Y173182D01*
X198703Y173185D01*
X198707Y173189D01*
X198718Y173200D01*
X198729Y173214D01*
X198765Y173251D01*
X198816Y173294D01*
X198878Y173342D01*
X198951Y173393D01*
X199034Y173440D01*
X199129Y173480D01*
X199133D01*
X199140Y173484D01*
X199154Y173491D01*
X199176Y173495D01*
X199202Y173506D01*
X199231Y173513D01*
X199264Y173520D01*
X199304Y173531D01*
X199344Y173542D01*
X199391Y173549D01*
X199493Y173567D01*
X199606Y173578D01*
X199730Y173582D01*
X199733D01*
X199741D01*
X199759D01*
X199777D01*
X199802Y173578D01*
D02*
G37*
G36*
X178019Y172032D02*
X178015Y171966D01*
X178012Y171894D01*
X178004Y171821D01*
X177993Y171748D01*
X177982Y171686D01*
Y171682D01*
X177979Y171675D01*
Y171664D01*
X177971Y171650D01*
X177961Y171609D01*
X177942Y171559D01*
X177917Y171500D01*
X177884Y171439D01*
X177848Y171377D01*
X177800Y171318D01*
X177797Y171315D01*
X177793Y171311D01*
X177782Y171300D01*
X177771Y171286D01*
X177735Y171249D01*
X177684Y171205D01*
X177622Y171158D01*
X177549Y171107D01*
X177466Y171060D01*
X177371Y171020D01*
X177367D01*
X177360Y171016D01*
X177345Y171009D01*
X177324Y171005D01*
X177298Y170994D01*
X177269Y170987D01*
X177236Y170980D01*
X177196Y170969D01*
X177156Y170958D01*
X177109Y170951D01*
X177007Y170932D01*
X176894Y170922D01*
X176770Y170918D01*
X176767D01*
X176759D01*
X176741D01*
X176723D01*
X176698Y170922D01*
X176668D01*
X176599Y170925D01*
X176519Y170936D01*
X176435Y170947D01*
X176348Y170965D01*
X176261Y170987D01*
X176257D01*
X176250Y170991D01*
X176239Y170994D01*
X176224Y170998D01*
X176184Y171013D01*
X176133Y171034D01*
X176075Y171056D01*
X176017Y171085D01*
X175955Y171122D01*
X175897Y171158D01*
X175889Y171162D01*
X175871Y171176D01*
X175846Y171198D01*
X175813Y171227D01*
X175777Y171260D01*
X175740Y171300D01*
X175700Y171340D01*
X175667Y171388D01*
X175664Y171395D01*
X175653Y171409D01*
X175638Y171435D01*
X175620Y171471D01*
X175598Y171515D01*
X175580Y171566D01*
X175558Y171624D01*
X175540Y171690D01*
Y171697D01*
X175536Y171708D01*
X175533Y171719D01*
X175529Y171755D01*
X175522Y171806D01*
X175514Y171864D01*
X175507Y171933D01*
X175504Y172010D01*
X175500Y172094D01*
Y173000D01*
X178019D01*
Y172032D01*
D02*
G37*
G36*
X177396Y170346D02*
X177404Y170339D01*
X177407Y170325D01*
X177418Y170306D01*
X177429Y170285D01*
X177444Y170259D01*
X177480Y170197D01*
X177520Y170124D01*
X177571Y170052D01*
X177629Y169975D01*
X177691Y169899D01*
X177695Y169895D01*
X177699Y169892D01*
X177709Y169880D01*
X177720Y169866D01*
X177757Y169833D01*
X177800Y169790D01*
X177851Y169746D01*
X177910Y169699D01*
X177968Y169659D01*
X178030Y169622D01*
Y169422D01*
X175500D01*
Y169731D01*
X177469D01*
X177466Y169735D01*
X177451Y169753D01*
X177429Y169775D01*
X177404Y169811D01*
X177371Y169851D01*
X177334Y169902D01*
X177295Y169961D01*
X177254Y170026D01*
Y170030D01*
X177251Y170033D01*
X177236Y170055D01*
X177218Y170092D01*
X177196Y170135D01*
X177171Y170186D01*
X177145Y170241D01*
X177120Y170296D01*
X177098Y170350D01*
X177396D01*
Y170346D01*
D02*
G37*
G36*
X111000Y196981D02*
X110032D01*
X109966Y196985D01*
X109894Y196988D01*
X109821Y196996D01*
X109748Y197007D01*
X109686Y197018D01*
X109682D01*
X109675Y197021D01*
X109664D01*
X109650Y197029D01*
X109609Y197039D01*
X109559Y197058D01*
X109500Y197083D01*
X109439Y197116D01*
X109377Y197152D01*
X109318Y197199D01*
X109315Y197203D01*
X109311Y197207D01*
X109300Y197218D01*
X109286Y197229D01*
X109249Y197265D01*
X109205Y197316D01*
X109158Y197378D01*
X109107Y197451D01*
X109060Y197534D01*
X109020Y197629D01*
Y197633D01*
X109016Y197640D01*
X109009Y197654D01*
X109005Y197676D01*
X108994Y197702D01*
X108987Y197731D01*
X108980Y197764D01*
X108969Y197804D01*
X108958Y197844D01*
X108951Y197891D01*
X108932Y197993D01*
X108922Y198106D01*
X108918Y198230D01*
Y198233D01*
Y198241D01*
Y198259D01*
Y198277D01*
X108922Y198302D01*
Y198332D01*
X108925Y198401D01*
X108936Y198481D01*
X108947Y198565D01*
X108965Y198652D01*
X108987Y198739D01*
Y198743D01*
X108991Y198750D01*
X108994Y198761D01*
X108998Y198776D01*
X109013Y198816D01*
X109034Y198867D01*
X109056Y198925D01*
X109085Y198983D01*
X109122Y199045D01*
X109158Y199103D01*
X109162Y199110D01*
X109176Y199129D01*
X109198Y199154D01*
X109227Y199187D01*
X109260Y199223D01*
X109300Y199260D01*
X109340Y199300D01*
X109388Y199333D01*
X109395Y199336D01*
X109409Y199347D01*
X109435Y199362D01*
X109471Y199380D01*
X109515Y199402D01*
X109566Y199420D01*
X109624Y199442D01*
X109690Y199460D01*
X109697D01*
X109708Y199464D01*
X109719Y199467D01*
X109755Y199471D01*
X109806Y199478D01*
X109864Y199486D01*
X109933Y199493D01*
X110010Y199496D01*
X110094Y199500D01*
X111000D01*
Y196981D01*
D02*
G37*
G36*
X107597Y198896D02*
X108692D01*
Y198612D01*
X107538Y196981D01*
X107287D01*
Y198612D01*
X106945D01*
Y198896D01*
X107287D01*
Y199500D01*
X107597D01*
Y198896D01*
D02*
G37*
G36*
X191780Y214070D02*
X191827Y214062D01*
X191885Y214052D01*
X191951Y214033D01*
X192016Y214012D01*
X192082Y213982D01*
X192085D01*
X192089Y213979D01*
X192111Y213968D01*
X192144Y213946D01*
X192180Y213921D01*
X192224Y213884D01*
X192267Y213844D01*
X192311Y213797D01*
X192347Y213742D01*
X192351Y213735D01*
X192362Y213717D01*
X192376Y213684D01*
X192395Y213644D01*
X192413Y213597D01*
X192428Y213542D01*
X192438Y213480D01*
X192442Y213418D01*
Y213411D01*
Y213389D01*
X192438Y213360D01*
X192431Y213320D01*
X192420Y213273D01*
X192402Y213222D01*
X192380Y213171D01*
X192351Y213120D01*
X192347Y213112D01*
X192336Y213098D01*
X192315Y213072D01*
X192286Y213043D01*
X192249Y213011D01*
X192206Y212974D01*
X192155Y212941D01*
X192093Y212909D01*
X192096D01*
X192104Y212905D01*
X192114Y212901D01*
X192129Y212898D01*
X192169Y212883D01*
X192220Y212861D01*
X192278Y212832D01*
X192336Y212796D01*
X192391Y212749D01*
X192442Y212694D01*
X192446Y212687D01*
X192460Y212665D01*
X192482Y212628D01*
X192504Y212581D01*
X192526Y212523D01*
X192548Y212454D01*
X192562Y212373D01*
X192566Y212286D01*
Y212282D01*
Y212272D01*
Y212253D01*
X192562Y212232D01*
X192559Y212203D01*
X192551Y212170D01*
X192544Y212133D01*
X192537Y212093D01*
X192508Y212006D01*
X192486Y211959D01*
X192464Y211915D01*
X192435Y211868D01*
X192402Y211820D01*
X192366Y211773D01*
X192322Y211729D01*
X192318Y211726D01*
X192311Y211718D01*
X192297Y211707D01*
X192278Y211693D01*
X192256Y211675D01*
X192227Y211656D01*
X192195Y211635D01*
X192155Y211616D01*
X192114Y211595D01*
X192067Y211573D01*
X192020Y211555D01*
X191965Y211536D01*
X191907Y211522D01*
X191845Y211511D01*
X191783Y211504D01*
X191714Y211500D01*
X191681D01*
X191659Y211504D01*
X191630Y211507D01*
X191598Y211511D01*
X191561Y211518D01*
X191521Y211525D01*
X191434Y211547D01*
X191343Y211584D01*
X191296Y211606D01*
X191252Y211631D01*
X191208Y211664D01*
X191164Y211697D01*
X191161Y211700D01*
X191154Y211707D01*
X191143Y211718D01*
X191132Y211733D01*
X191113Y211751D01*
X191095Y211777D01*
X191073Y211802D01*
X191052Y211835D01*
X191030Y211871D01*
X191008Y211908D01*
X190968Y211995D01*
X190935Y212097D01*
X190924Y212152D01*
X190917Y212210D01*
X191226Y212250D01*
Y212246D01*
X191230Y212239D01*
X191234Y212224D01*
X191237Y212206D01*
X191241Y212184D01*
X191248Y212159D01*
X191266Y212104D01*
X191292Y212039D01*
X191325Y211977D01*
X191361Y211919D01*
X191405Y211868D01*
X191412Y211864D01*
X191427Y211849D01*
X191456Y211831D01*
X191492Y211813D01*
X191536Y211791D01*
X191590Y211773D01*
X191652Y211758D01*
X191718Y211755D01*
X191740D01*
X191754Y211758D01*
X191794Y211762D01*
X191845Y211773D01*
X191903Y211791D01*
X191965Y211817D01*
X192027Y211853D01*
X192085Y211904D01*
X192093Y211911D01*
X192111Y211933D01*
X192133Y211966D01*
X192162Y212010D01*
X192191Y212064D01*
X192213Y212126D01*
X192231Y212199D01*
X192238Y212279D01*
Y212282D01*
Y212290D01*
Y212301D01*
X192235Y212315D01*
X192231Y212355D01*
X192220Y212403D01*
X192206Y212461D01*
X192180Y212519D01*
X192144Y212577D01*
X192096Y212632D01*
X192089Y212639D01*
X192071Y212654D01*
X192042Y212676D01*
X192002Y212701D01*
X191951Y212727D01*
X191889Y212749D01*
X191820Y212763D01*
X191743Y212770D01*
X191710D01*
X191685Y212767D01*
X191652Y212763D01*
X191616Y212756D01*
X191572Y212749D01*
X191525Y212738D01*
X191561Y213011D01*
X191579D01*
X191594Y213007D01*
X191641D01*
X191681Y213014D01*
X191729Y213021D01*
X191783Y213032D01*
X191845Y213051D01*
X191903Y213076D01*
X191965Y213109D01*
X191969D01*
X191972Y213112D01*
X191991Y213127D01*
X192016Y213153D01*
X192045Y213185D01*
X192074Y213233D01*
X192100Y213287D01*
X192118Y213349D01*
X192125Y213386D01*
Y213425D01*
Y213429D01*
Y213433D01*
Y213455D01*
X192118Y213484D01*
X192111Y213524D01*
X192096Y213567D01*
X192078Y213615D01*
X192049Y213662D01*
X192009Y213706D01*
X192005Y213709D01*
X191987Y213724D01*
X191962Y213742D01*
X191929Y213764D01*
X191885Y213782D01*
X191834Y213800D01*
X191776Y213815D01*
X191710Y213819D01*
X191681D01*
X191649Y213811D01*
X191605Y213804D01*
X191558Y213790D01*
X191510Y213771D01*
X191459Y213742D01*
X191412Y213706D01*
X191408Y213702D01*
X191394Y213684D01*
X191372Y213658D01*
X191346Y213622D01*
X191321Y213575D01*
X191296Y213516D01*
X191274Y213447D01*
X191259Y213367D01*
X190950Y213422D01*
Y213425D01*
X190953Y213436D01*
X190957Y213451D01*
X190961Y213473D01*
X190968Y213498D01*
X190979Y213527D01*
X191001Y213597D01*
X191037Y213677D01*
X191081Y213757D01*
X191135Y213833D01*
X191205Y213902D01*
X191208Y213906D01*
X191215Y213910D01*
X191226Y213917D01*
X191241Y213928D01*
X191259Y213942D01*
X191285Y213957D01*
X191310Y213971D01*
X191343Y213990D01*
X191416Y214019D01*
X191499Y214048D01*
X191598Y214066D01*
X191649Y214073D01*
X191740D01*
X191780Y214070D01*
D02*
G37*
G36*
X189534Y214059D02*
X189606Y214055D01*
X189679Y214048D01*
X189752Y214037D01*
X189814Y214026D01*
X189818D01*
X189825Y214022D01*
X189836D01*
X189850Y214015D01*
X189890Y214004D01*
X189941Y213986D01*
X190000Y213961D01*
X190061Y213928D01*
X190123Y213891D01*
X190182Y213844D01*
X190185Y213841D01*
X190189Y213837D01*
X190200Y213826D01*
X190214Y213815D01*
X190251Y213779D01*
X190295Y213728D01*
X190342Y213666D01*
X190393Y213593D01*
X190440Y213509D01*
X190480Y213415D01*
Y213411D01*
X190484Y213404D01*
X190491Y213389D01*
X190495Y213367D01*
X190506Y213342D01*
X190513Y213313D01*
X190520Y213280D01*
X190531Y213240D01*
X190542Y213200D01*
X190549Y213153D01*
X190568Y213051D01*
X190578Y212938D01*
X190582Y212814D01*
Y212810D01*
Y212803D01*
Y212785D01*
Y212767D01*
X190578Y212741D01*
Y212712D01*
X190575Y212643D01*
X190564Y212563D01*
X190553Y212479D01*
X190535Y212392D01*
X190513Y212304D01*
Y212301D01*
X190509Y212294D01*
X190506Y212282D01*
X190502Y212268D01*
X190487Y212228D01*
X190466Y212177D01*
X190444Y212119D01*
X190415Y212060D01*
X190378Y211999D01*
X190342Y211940D01*
X190338Y211933D01*
X190324Y211915D01*
X190302Y211889D01*
X190273Y211857D01*
X190240Y211820D01*
X190200Y211784D01*
X190160Y211744D01*
X190112Y211711D01*
X190105Y211707D01*
X190091Y211697D01*
X190065Y211682D01*
X190029Y211664D01*
X189985Y211642D01*
X189934Y211624D01*
X189876Y211602D01*
X189810Y211584D01*
X189803D01*
X189792Y211580D01*
X189781Y211576D01*
X189745Y211573D01*
X189694Y211565D01*
X189636Y211558D01*
X189567Y211551D01*
X189490Y211547D01*
X189406Y211544D01*
X188500D01*
Y214062D01*
X189468D01*
X189534Y214059D01*
D02*
G37*
%LPC*%
G36*
X149064Y117078D02*
X149035D01*
X149002Y117070D01*
X148958Y117063D01*
X148911Y117048D01*
X148860Y117030D01*
X148813Y117001D01*
X148765Y116961D01*
X148762Y116957D01*
X148747Y116943D01*
X148729Y116917D01*
X148711Y116885D01*
X148689Y116845D01*
X148671Y116797D01*
X148656Y116746D01*
X148653Y116688D01*
Y116684D01*
Y116681D01*
X148656Y116659D01*
X148660Y116626D01*
X148667Y116586D01*
X148682Y116539D01*
X148700Y116491D01*
X148729Y116441D01*
X148765Y116397D01*
X148769Y116393D01*
X148787Y116379D01*
X148813Y116360D01*
X148846Y116342D01*
X148889Y116320D01*
X148940Y116302D01*
X148998Y116288D01*
X149064Y116284D01*
X149071D01*
X149093Y116288D01*
X149126Y116291D01*
X149170Y116299D01*
X149217Y116313D01*
X149264Y116331D01*
X149315Y116360D01*
X149359Y116397D01*
X149362Y116401D01*
X149377Y116419D01*
X149395Y116441D01*
X149417Y116473D01*
X149439Y116513D01*
X149457Y116561D01*
X149472Y116615D01*
X149475Y116674D01*
Y116677D01*
Y116681D01*
Y116703D01*
X149468Y116735D01*
X149461Y116775D01*
X149446Y116819D01*
X149424Y116866D01*
X149395Y116914D01*
X149355Y116961D01*
X149352Y116965D01*
X149333Y116979D01*
X149308Y116998D01*
X149275Y117019D01*
X149231Y117041D01*
X149184Y117059D01*
X149126Y117074D01*
X149064Y117078D01*
D02*
G37*
G36*
X149053Y116033D02*
X149031D01*
X149017Y116029D01*
X148977Y116026D01*
X148926Y116015D01*
X148867Y115997D01*
X148809Y115971D01*
X148747Y115935D01*
X148693Y115887D01*
X148685Y115880D01*
X148671Y115862D01*
X148649Y115829D01*
X148624Y115789D01*
X148594Y115734D01*
X148573Y115673D01*
X148558Y115603D01*
X148551Y115527D01*
Y115520D01*
Y115505D01*
X148554Y115480D01*
X148558Y115447D01*
X148565Y115407D01*
X148576Y115363D01*
X148591Y115319D01*
X148609Y115272D01*
X148613Y115269D01*
X148620Y115250D01*
X148634Y115228D01*
X148656Y115203D01*
X148682Y115170D01*
X148714Y115137D01*
X148751Y115108D01*
X148795Y115079D01*
X148802Y115076D01*
X148816Y115068D01*
X148842Y115057D01*
X148875Y115046D01*
X148915Y115035D01*
X148962Y115025D01*
X149013Y115017D01*
X149064Y115014D01*
X149086D01*
X149100Y115017D01*
X149144Y115021D01*
X149195Y115032D01*
X149253Y115050D01*
X149315Y115072D01*
X149373Y115108D01*
X149432Y115156D01*
X149439Y115163D01*
X149453Y115181D01*
X149479Y115214D01*
X149504Y115254D01*
X149530Y115305D01*
X149555Y115367D01*
X149570Y115440D01*
X149577Y115516D01*
Y115520D01*
Y115527D01*
Y115538D01*
X149574Y115552D01*
X149570Y115592D01*
X149559Y115647D01*
X149541Y115702D01*
X149515Y115763D01*
X149479Y115825D01*
X149428Y115884D01*
X149421Y115891D01*
X149402Y115905D01*
X149370Y115931D01*
X149326Y115960D01*
X149271Y115986D01*
X149206Y116011D01*
X149133Y116026D01*
X149053Y116033D01*
D02*
G37*
G36*
X199722Y173240D02*
X199719D01*
X199704D01*
X199686D01*
X199657Y173236D01*
X199624D01*
X199588Y173233D01*
X199544Y173229D01*
X199500Y173225D01*
X199402Y173207D01*
X199300Y173185D01*
X199206Y173152D01*
X199158Y173131D01*
X199118Y173109D01*
X199115D01*
X199107Y173101D01*
X199096Y173094D01*
X199082Y173087D01*
X199045Y173058D01*
X199002Y173021D01*
X198954Y172974D01*
X198907Y172920D01*
X198867Y172858D01*
X198834Y172792D01*
X198831Y172785D01*
X198827Y172767D01*
X198816Y172734D01*
X198805Y172687D01*
X198798Y172628D01*
X198787Y172555D01*
X198783Y172512D01*
Y172465D01*
X198780Y172417D01*
Y171835D01*
X200701D01*
Y172432D01*
X200698Y172457D01*
X200694Y172512D01*
X200691Y172574D01*
X200683Y172639D01*
X200672Y172705D01*
X200658Y172759D01*
X200654Y172767D01*
X200651Y172785D01*
X200640Y172810D01*
X200625Y172843D01*
X200603Y172880D01*
X200581Y172916D01*
X200556Y172952D01*
X200527Y172989D01*
X200520Y172992D01*
X200505Y173007D01*
X200480Y173029D01*
X200443Y173054D01*
X200396Y173083D01*
X200341Y173116D01*
X200279Y173145D01*
X200210Y173171D01*
X200206D01*
X200199Y173174D01*
X200188Y173178D01*
X200174Y173182D01*
X200155Y173185D01*
X200130Y173193D01*
X200105Y173200D01*
X200076Y173207D01*
X200003Y173218D01*
X199919Y173229D01*
X199824Y173236D01*
X199722Y173240D01*
D02*
G37*
G36*
X177720Y172665D02*
X175798D01*
Y172068D01*
X175802Y172043D01*
X175806Y171988D01*
X175809Y171926D01*
X175817Y171861D01*
X175828Y171795D01*
X175842Y171741D01*
X175846Y171733D01*
X175849Y171715D01*
X175860Y171690D01*
X175875Y171657D01*
X175897Y171621D01*
X175919Y171584D01*
X175944Y171548D01*
X175973Y171511D01*
X175980Y171508D01*
X175995Y171493D01*
X176021Y171471D01*
X176057Y171446D01*
X176104Y171417D01*
X176159Y171384D01*
X176221Y171355D01*
X176290Y171329D01*
X176294D01*
X176301Y171326D01*
X176312Y171322D01*
X176326Y171318D01*
X176344Y171315D01*
X176370Y171307D01*
X176395Y171300D01*
X176425Y171293D01*
X176497Y171282D01*
X176581Y171271D01*
X176676Y171264D01*
X176778Y171260D01*
X176781D01*
X176796D01*
X176814D01*
X176843Y171264D01*
X176876D01*
X176912Y171267D01*
X176956Y171271D01*
X177000Y171275D01*
X177098Y171293D01*
X177200Y171315D01*
X177295Y171347D01*
X177342Y171369D01*
X177382Y171391D01*
X177385D01*
X177393Y171398D01*
X177404Y171406D01*
X177418Y171413D01*
X177455Y171442D01*
X177498Y171478D01*
X177546Y171526D01*
X177593Y171580D01*
X177633Y171642D01*
X177666Y171708D01*
X177669Y171715D01*
X177673Y171733D01*
X177684Y171766D01*
X177695Y171813D01*
X177702Y171872D01*
X177713Y171944D01*
X177717Y171988D01*
Y172035D01*
X177720Y172083D01*
Y172665D01*
D02*
G37*
G36*
X110665Y199202D02*
X110068D01*
X110043Y199198D01*
X109988Y199194D01*
X109926Y199191D01*
X109861Y199183D01*
X109795Y199172D01*
X109741Y199158D01*
X109733Y199154D01*
X109715Y199151D01*
X109690Y199140D01*
X109657Y199125D01*
X109620Y199103D01*
X109584Y199081D01*
X109548Y199056D01*
X109511Y199027D01*
X109508Y199020D01*
X109493Y199005D01*
X109471Y198979D01*
X109446Y198943D01*
X109417Y198896D01*
X109384Y198841D01*
X109355Y198779D01*
X109329Y198710D01*
Y198706D01*
X109326Y198699D01*
X109322Y198688D01*
X109318Y198674D01*
X109315Y198655D01*
X109307Y198630D01*
X109300Y198605D01*
X109293Y198575D01*
X109282Y198503D01*
X109271Y198419D01*
X109264Y198324D01*
X109260Y198222D01*
Y198219D01*
Y198204D01*
Y198186D01*
X109264Y198157D01*
Y198124D01*
X109267Y198088D01*
X109271Y198044D01*
X109275Y198000D01*
X109293Y197902D01*
X109315Y197800D01*
X109347Y197705D01*
X109369Y197658D01*
X109391Y197618D01*
Y197615D01*
X109398Y197607D01*
X109406Y197596D01*
X109413Y197582D01*
X109442Y197545D01*
X109478Y197502D01*
X109526Y197454D01*
X109580Y197407D01*
X109642Y197367D01*
X109708Y197334D01*
X109715Y197331D01*
X109733Y197327D01*
X109766Y197316D01*
X109813Y197305D01*
X109872Y197298D01*
X109944Y197287D01*
X109988Y197283D01*
X110035D01*
X110083Y197280D01*
X110665D01*
Y199202D01*
D02*
G37*
G36*
X108390Y198612D02*
X107597D01*
Y197484D01*
X108390Y198612D01*
D02*
G37*
G36*
X189417Y213764D02*
X188835D01*
Y211842D01*
X189432D01*
X189457Y211846D01*
X189512Y211849D01*
X189574Y211853D01*
X189639Y211860D01*
X189705Y211871D01*
X189759Y211886D01*
X189767Y211889D01*
X189785Y211893D01*
X189810Y211904D01*
X189843Y211919D01*
X189880Y211940D01*
X189916Y211962D01*
X189952Y211988D01*
X189989Y212017D01*
X189992Y212024D01*
X190007Y212039D01*
X190029Y212064D01*
X190054Y212101D01*
X190083Y212148D01*
X190116Y212203D01*
X190145Y212264D01*
X190171Y212333D01*
Y212337D01*
X190174Y212344D01*
X190178Y212355D01*
X190182Y212370D01*
X190185Y212388D01*
X190193Y212414D01*
X190200Y212439D01*
X190207Y212468D01*
X190218Y212541D01*
X190229Y212625D01*
X190236Y212719D01*
X190240Y212821D01*
Y212825D01*
Y212840D01*
Y212858D01*
X190236Y212887D01*
Y212919D01*
X190233Y212956D01*
X190229Y213000D01*
X190225Y213043D01*
X190207Y213142D01*
X190185Y213244D01*
X190153Y213338D01*
X190131Y213386D01*
X190109Y213425D01*
Y213429D01*
X190102Y213436D01*
X190094Y213447D01*
X190087Y213462D01*
X190058Y213498D01*
X190022Y213542D01*
X189974Y213589D01*
X189920Y213637D01*
X189858Y213677D01*
X189792Y213709D01*
X189785Y213713D01*
X189767Y213717D01*
X189734Y213728D01*
X189687Y213738D01*
X189628Y213746D01*
X189556Y213757D01*
X189512Y213760D01*
X189465D01*
X189417Y213764D01*
D02*
G37*
%LPD*%
D11*
X131854Y94102D02*
Y136898D01*
Y94102D02*
X151146D01*
Y136898D01*
X131854D02*
X151146D01*
X196846Y153732D02*
X205153D01*
Y189268D01*
X196846D02*
X205153D01*
X196846Y153732D02*
Y189268D01*
X171346Y190768D02*
X179654D01*
X171346Y155232D02*
Y190768D01*
Y155232D02*
X179654D01*
Y190768D01*
X128768Y195346D02*
Y203654D01*
X93232D02*
X128768D01*
X93232Y195346D02*
Y203654D01*
Y195346D02*
X128768D01*
X170732Y207347D02*
Y215653D01*
Y207347D02*
X206268D01*
Y215653D01*
X170732D02*
X206268D01*
M02*
