M48
;Layer_Color=9474304
;FILE_FORMAT=2:4
INCH,LZ
;TYPE=PLATED
T1F00S00C0.0276
T2F00S00C0.0281
T3F00S00C0.0299
T4F00S00C0.0335
T5F00S00C0.0354
T6F00S00C0.0394
T7F00S00C0.0591
;TYPE=NON_PLATED
T8F00S00C0.1181
%
T01
X03295Y004
X0372Y01115
Y01415
X0351
X03295
X0307
Y01115
X03295
X0351
X03295Y007
X02595Y01515
Y017833
Y020517
X02295
Y017833
Y01515
X0194Y025649
Y028651
X02235
Y025649
X023Y0232
X026
X03045Y02905
X03255
X0348
Y03205
X03255
X03045
X0372
Y02905
T02
X0025Y02215
X0045
X0035Y02315
X0239Y03665
X0259
X0249Y03765
T03
X00815Y003924
X00915
X01015
X01115
X025537Y0042
Y0052
Y0032
Y0022
X028663
Y0032
Y0042
Y0052
X01115Y00705
X01015
X00915
X00815
X0164Y016587
X0174
X0184
X0194
Y019713
X0184
X0174
X0164
X0053Y012863
X0043
X0033
X0023
Y009737
X0033
X0043
X0053
X018887Y03145
Y03245
Y03345
Y03445
X022013
Y03345
Y03245
Y03145
T04
X0228Y00885
X0252Y0089
Y0119
X0228Y01185
X01585Y00935
X0136Y00925
Y00625
X01585Y00635
X01125Y01165
X01115Y014
X00815
X00825Y01165
X0097Y0206
X0067
X0119Y0189
X01365
Y0219
X0119
X0138Y02665
X0168
X0151Y0316
Y0346
X0131
X0256Y03215
X02785Y03085
Y03385
X0256Y02815
X02875Y03695
X03175
X01875Y03755
X01575
X0131Y0376
T05
X0062Y0024
X0072
X03725Y0032
Y0042
Y0052
X02735Y00785
Y00885
X02025Y0083
X01925
X01745Y01265
X01645
X01545
X0043Y0181
X0033
X0151Y0291
X0161
T06
X01855Y002848
Y00375
Y004652
X02125
Y00375
Y002848
T07
X03707Y02097
X035941Y019009
X03398Y01788
X03172
X029759Y019009
X02863Y02097
X033608Y020787
X00562Y02678
X003659Y027909
X00253Y02987
Y03213
X003659Y034091
X00562Y03522
X005437Y030242
X008063
X01097Y02987
Y03213
X009841Y034091
X00788Y03522
X00675Y032516
X00788Y02678
X009841Y027909
X029759Y025191
X02863Y02323
X031334Y0221
X033608Y023413
X03398Y02632
X03172
X035941Y025191
X03707Y02323
T08
X0012Y00125
X0382
X03815Y0382
X00125
M30
