G04*
G04 #@! TF.GenerationSoftware,Altium Limited,Altium Designer,22.4.2 (48)*
G04*
G04 Layer_Color=65535*
%FSLAX25Y25*%
%MOIN*%
G70*
G04*
G04 #@! TF.SameCoordinates,0208FD7A-64DB-45E4-85D5-A9DD0F7FCACB*
G04*
G04*
G04 #@! TF.FilePolarity,Positive*
G04*
G01*
G75*
%ADD10C,0.00787*%
%ADD11C,0.00984*%
%ADD12C,0.00500*%
%ADD13C,0.01000*%
%ADD14C,0.00591*%
D10*
X119055Y310000D02*
G03*
X119055Y310000I-51555J0D01*
G01*
X359500Y55000D02*
G03*
X359500Y55000I-30000J0D01*
G01*
X380055Y221000D02*
G03*
X380055Y221000I-51555J0D01*
G01*
X233394Y366500D02*
G03*
X233394Y366500I-394J0D01*
G01*
X19394Y221500D02*
G03*
X19394Y221500I-394J0D01*
G01*
X190504Y309500D02*
X218496D01*
X186587Y349500D02*
X218496D01*
X199000Y167504D02*
Y199413D01*
X159000Y167504D02*
Y195496D01*
X257004Y17000D02*
X288913D01*
X257004Y57000D02*
X284996D01*
X116500Y40874D02*
Y72783D01*
X76500Y40874D02*
Y68866D01*
X58000Y99004D02*
Y126996D01*
X18000Y95087D02*
Y126996D01*
X252000Y313500D02*
X260000D01*
Y289500D02*
Y313500D01*
X252000Y289500D02*
X260000D01*
X252000D02*
Y313500D01*
X256000D02*
Y317500D01*
Y285500D02*
Y289500D01*
X136500Y214000D02*
Y214900D01*
Y193100D02*
Y194000D01*
Y214000D02*
X139500D01*
Y194000D02*
Y214000D01*
X133500Y194000D02*
X139500D01*
X133500D02*
Y214000D01*
X136500D01*
X163000Y266500D02*
X163900D01*
X142100D02*
X143000D01*
X163000Y263500D02*
Y266500D01*
X143000Y263500D02*
X163000D01*
X143000D02*
Y269500D01*
X163000D01*
Y266500D02*
Y269500D01*
X364500Y283000D02*
Y328000D01*
Y283000D02*
X379500D01*
Y328000D01*
X364500D02*
X379500D01*
X312500Y369500D02*
X313400D01*
X291600D02*
X292500D01*
X312500Y366500D02*
Y369500D01*
X292500Y366500D02*
X312500D01*
X292500D02*
Y372500D01*
X312500D01*
Y369500D02*
Y372500D01*
X268500Y73500D02*
Y93500D01*
Y73500D02*
X278500D01*
Y93500D01*
X268500D02*
X278500D01*
X149500Y121500D02*
Y131500D01*
X179500D01*
Y121500D02*
Y131500D01*
X149500Y121500D02*
X179500D01*
X252000Y93100D02*
Y94000D01*
Y114000D02*
Y114900D01*
X249000Y94000D02*
X252000D01*
X249000D02*
Y114000D01*
X255000D01*
Y94000D02*
Y114000D01*
X252000Y94000D02*
X255000D01*
X92000Y206000D02*
X92900D01*
X71100D02*
X72000D01*
X92000Y203000D02*
Y206000D01*
X72000Y203000D02*
X92000D01*
X72000D02*
Y209000D01*
X92000D01*
Y206000D02*
Y209000D01*
X86600Y116500D02*
X87500D01*
X107500D02*
X108400D01*
X87500D02*
Y119500D01*
X107500D01*
Y113500D02*
Y119500D01*
X87500Y113500D02*
X107500D01*
X87500D02*
Y116500D01*
X179634Y52854D02*
X191445D01*
X179634Y22146D02*
X191445D01*
X179634D02*
Y52854D01*
X191445Y22146D02*
Y52854D01*
X190224Y22146D02*
Y52854D01*
X187500Y88000D02*
X207500D01*
X187500Y78000D02*
Y88000D01*
Y78000D02*
X207500D01*
Y88000D01*
X364500Y149000D02*
X379500D01*
Y104000D02*
Y149000D01*
X364500Y104000D02*
X379500D01*
X364500D02*
Y149000D01*
X343500D02*
X358500D01*
Y104000D02*
Y149000D01*
X343500Y104000D02*
X358500D01*
X343500D02*
Y149000D01*
X322000D02*
X337000D01*
Y104000D02*
Y149000D01*
X322000Y104000D02*
X337000D01*
X322000D02*
Y149000D01*
X299500D02*
X314500D01*
Y104000D02*
Y149000D01*
X299500Y104000D02*
X314500D01*
X299500D02*
Y149000D01*
X28000Y176000D02*
Y186000D01*
X48000D01*
Y176000D02*
Y186000D01*
X28000Y176000D02*
X48000D01*
X217224Y22146D02*
Y52854D01*
X218445Y22146D02*
Y52854D01*
X206634Y22146D02*
Y52854D01*
Y22146D02*
X218445D01*
X206634Y52854D02*
X218445D01*
X377500Y27000D02*
Y57000D01*
X367500D02*
X377500D01*
X367500Y27000D02*
Y57000D01*
Y27000D02*
X377500D01*
X77000Y19000D02*
Y29000D01*
X57000Y19000D02*
X77000D01*
X57000D02*
Y29000D01*
X77000D01*
X136000Y67500D02*
X139000D01*
Y87500D01*
X133000D02*
X139000D01*
X133000Y67500D02*
Y87500D01*
Y67500D02*
X136000D01*
Y87500D02*
Y88400D01*
Y66600D02*
Y67500D01*
X166000Y286000D02*
Y296000D01*
X146000Y286000D02*
X166000D01*
X146000D02*
Y296000D01*
X166000D01*
X194000Y260949D02*
Y262524D01*
Y280476D02*
Y282051D01*
X190634Y277406D02*
X197366D01*
X190240Y280476D02*
X197760D01*
X190240Y262524D02*
Y280476D01*
Y262524D02*
X197760D01*
Y280476D01*
X119000Y194000D02*
X122000D01*
Y214000D01*
X116000D02*
X122000D01*
X116000Y194000D02*
Y214000D01*
Y194000D02*
X119000D01*
Y214000D02*
Y214900D01*
Y193100D02*
Y194000D01*
X151000Y321000D02*
X154000D01*
Y341000D01*
X148000D02*
X154000D01*
X148000Y321000D02*
Y341000D01*
Y321000D02*
X151000D01*
Y341000D02*
Y341900D01*
Y320100D02*
Y321000D01*
X223500Y280476D02*
Y282051D01*
Y260949D02*
Y262524D01*
X220134Y265594D02*
X226866D01*
X219740Y262524D02*
X227260D01*
Y280476D01*
X219740D02*
X227260D01*
X219740Y262524D02*
Y280476D01*
X106500Y140000D02*
Y143000D01*
X86500D02*
X106500D01*
X86500Y137000D02*
Y143000D01*
Y137000D02*
X106500D01*
Y140000D01*
X85600D02*
X86500D01*
X106500D02*
X107400D01*
X182500Y375500D02*
Y378500D01*
X162500D02*
X182500D01*
X162500Y372500D02*
Y378500D01*
Y372500D02*
X182500D01*
Y375500D01*
X161600D02*
X162500D01*
X182500D02*
X183400D01*
X297000Y328000D02*
X312000D01*
Y283000D02*
Y328000D01*
X297000Y283000D02*
X312000D01*
X297000D02*
Y328000D01*
X128000Y371000D02*
X131000D01*
X128000Y351000D02*
Y371000D01*
Y351000D02*
X134000D01*
Y371000D01*
X131000D02*
X134000D01*
X131000Y350100D02*
Y351000D01*
Y371000D02*
Y371900D01*
X275500Y333500D02*
X278500D01*
X275500Y313500D02*
Y333500D01*
Y313500D02*
X281500D01*
Y333500D01*
X278500D02*
X281500D01*
X278500Y312600D02*
Y313500D01*
Y333500D02*
Y334400D01*
X318000Y328000D02*
X333000D01*
Y283000D02*
Y328000D01*
X318000Y283000D02*
X333000D01*
X318000D02*
Y328000D01*
X158500Y68500D02*
X161500D01*
Y88500D01*
X155500D02*
X161500D01*
X155500Y68500D02*
Y88500D01*
Y68500D02*
X158500D01*
Y88500D02*
Y89400D01*
Y67600D02*
Y68500D01*
X225000Y113500D02*
X228000D01*
X225000Y93500D02*
Y113500D01*
Y93500D02*
X231000D01*
Y113500D01*
X228000D02*
X231000D01*
X228000Y92600D02*
Y93500D01*
Y113500D02*
Y114400D01*
X340500Y328000D02*
X355500D01*
Y283000D02*
Y328000D01*
X340500Y283000D02*
X355500D01*
X340500D02*
Y328000D01*
X222000Y144000D02*
Y159000D01*
X267000D01*
Y144000D02*
Y159000D01*
X222000Y144000D02*
X267000D01*
X222000Y170833D02*
Y185833D01*
X267000D01*
Y170833D02*
Y185833D01*
X222000Y170833D02*
X267000D01*
X222000Y197667D02*
Y212667D01*
X267000D01*
Y197667D02*
Y212667D01*
X222000Y197667D02*
X267000D01*
X222500Y224500D02*
Y239500D01*
X267500D01*
Y224500D02*
Y239500D01*
X222500Y224500D02*
X267500D01*
D11*
X185992Y55413D02*
G03*
X185992Y55413I-492J0D01*
G01*
X212992D02*
G03*
X212992Y55413I-492J0D01*
G01*
D12*
X236008Y352642D02*
Y361638D01*
Y371638D02*
Y380161D01*
X261992D01*
Y371638D02*
Y380161D01*
Y352642D02*
Y361638D01*
X236008Y352602D02*
X261992D01*
X22008Y207642D02*
Y216638D01*
Y226638D02*
Y235161D01*
X47992D01*
Y226638D02*
Y235161D01*
Y207642D02*
Y216638D01*
X22008Y207602D02*
X47992D01*
D13*
X51869Y387263D02*
X47062D01*
Y383658D01*
X49466D01*
X47062D01*
Y380052D01*
X54273Y384859D02*
Y381254D01*
X55474Y380052D01*
X59079D01*
Y384859D01*
X61483Y380052D02*
Y384859D01*
X65088D01*
X66290Y383658D01*
Y380052D01*
X73500Y384859D02*
X69895D01*
X68693Y383658D01*
Y381254D01*
X69895Y380052D01*
X73500D01*
X77105Y386061D02*
Y384859D01*
X75903D01*
X78307D01*
X77105D01*
Y381254D01*
X78307Y380052D01*
X81912D02*
X84315D01*
X83114D01*
Y384859D01*
X81912D01*
X89122Y380052D02*
X91526D01*
X92727Y381254D01*
Y383658D01*
X91526Y384859D01*
X89122D01*
X87920Y383658D01*
Y381254D01*
X89122Y380052D01*
X95131D02*
Y384859D01*
X98736D01*
X99938Y383658D01*
Y380052D01*
X48264Y375009D02*
X47062Y376210D01*
X44659D01*
X43457Y375009D01*
Y370202D01*
X44659Y369000D01*
X47062D01*
X48264Y370202D01*
Y372605D01*
X45861D01*
X54273Y369000D02*
X51869D01*
X50668Y370202D01*
Y372605D01*
X51869Y373807D01*
X54273D01*
X55474Y372605D01*
Y371403D01*
X50668D01*
X57878Y369000D02*
Y373807D01*
X61483D01*
X62685Y372605D01*
Y369000D01*
X68693D02*
X66290D01*
X65088Y370202D01*
Y372605D01*
X66290Y373807D01*
X68693D01*
X69895Y372605D01*
Y371403D01*
X65088D01*
X72298Y373807D02*
Y369000D01*
Y371403D01*
X73500Y372605D01*
X74702Y373807D01*
X75903D01*
X80710D02*
X83114D01*
X84315Y372605D01*
Y369000D01*
X80710D01*
X79509Y370202D01*
X80710Y371403D01*
X84315D01*
X87920Y375009D02*
Y373807D01*
X86719D01*
X89122D01*
X87920D01*
Y370202D01*
X89122Y369000D01*
X93929D02*
X96333D01*
X97534Y370202D01*
Y372605D01*
X96333Y373807D01*
X93929D01*
X92727Y372605D01*
Y370202D01*
X93929Y369000D01*
X99938Y373807D02*
Y369000D01*
Y371403D01*
X101139Y372605D01*
X102341Y373807D01*
X103543D01*
X184502Y363999D02*
Y358001D01*
X187501D01*
X188500Y359001D01*
Y360000D01*
X187501Y361000D01*
X184502D01*
X187501D01*
X188500Y362000D01*
Y362999D01*
X187501Y363999D01*
X184502D01*
X194498D02*
X190500D01*
Y361000D01*
X192499Y362000D01*
X193499D01*
X194498Y361000D01*
Y359001D01*
X193499Y358001D01*
X191499D01*
X190500Y359001D01*
X161502Y215499D02*
Y209501D01*
X164501D01*
X165500Y210501D01*
Y211500D01*
X164501Y212500D01*
X161502D01*
X164501D01*
X165500Y213500D01*
Y214499D01*
X164501Y215499D01*
X161502D01*
X167500Y214499D02*
X168499Y215499D01*
X170499D01*
X171498Y214499D01*
Y213500D01*
X170499Y212500D01*
X169499D01*
X170499D01*
X171498Y211500D01*
Y210501D01*
X170499Y209501D01*
X168499D01*
X167500Y210501D01*
X254001Y71499D02*
Y65501D01*
X257000D01*
X258000Y66501D01*
Y67500D01*
X257000Y68500D01*
X254001D01*
X257000D01*
X258000Y69500D01*
Y70499D01*
X257000Y71499D01*
X254001D01*
X259999Y65501D02*
X261999D01*
X260999D01*
Y71499D01*
X259999Y70499D01*
X81002Y86999D02*
Y81001D01*
X84001D01*
X85000Y82001D01*
Y83000D01*
X84001Y84000D01*
X81002D01*
X84001D01*
X85000Y85000D01*
Y85999D01*
X84001Y86999D01*
X81002D01*
X90998Y81001D02*
X87000D01*
X90998Y85000D01*
Y85999D01*
X89999Y86999D01*
X87999D01*
X87000Y85999D01*
X17502Y146999D02*
Y141001D01*
X20501D01*
X21500Y142001D01*
Y143000D01*
X20501Y144000D01*
X17502D01*
X20501D01*
X21500Y145000D01*
Y145999D01*
X20501Y146999D01*
X17502D01*
X26499Y141001D02*
Y146999D01*
X23500Y144000D01*
X27498D01*
X19501Y360999D02*
X18502Y361999D01*
X16502D01*
X15503Y360999D01*
Y360000D01*
X16502Y359000D01*
X18502D01*
X19501Y358000D01*
Y357001D01*
X18502Y356001D01*
X16502D01*
X15503Y357001D01*
X21501Y361999D02*
Y356001D01*
X23500Y358000D01*
X25499Y356001D01*
Y361999D01*
X27499Y360999D02*
X28498Y361999D01*
X30498D01*
X31497Y360999D01*
Y360000D01*
X30498Y359000D01*
X29498D01*
X30498D01*
X31497Y358000D01*
Y357001D01*
X30498Y356001D01*
X28498D01*
X27499Y357001D01*
X280599Y281898D02*
X279599Y282898D01*
X277600D01*
X276600Y281898D01*
Y280899D01*
X277600Y279899D01*
X279599D01*
X280599Y278899D01*
Y277900D01*
X279599Y276900D01*
X277600D01*
X276600Y277900D01*
X282598Y282898D02*
Y276900D01*
X284597Y278899D01*
X286597Y276900D01*
Y282898D01*
X288596Y276900D02*
X290596D01*
X289596D01*
Y282898D01*
X288596Y281898D01*
X285300Y375900D02*
Y381898D01*
X288299D01*
X289299Y380898D01*
Y378899D01*
X288299Y377899D01*
X285300D01*
X287299D02*
X289299Y375900D01*
X291298D02*
X293297D01*
X292298D01*
Y381898D01*
X291298Y380898D01*
X300295Y381898D02*
X298296Y380898D01*
X296296Y378899D01*
Y376900D01*
X297296Y375900D01*
X299295D01*
X300295Y376900D01*
Y377899D01*
X299295Y378899D01*
X296296D01*
X276100Y344700D02*
Y350698D01*
X279099D01*
X280099Y349698D01*
Y347699D01*
X279099Y346699D01*
X276100D01*
X278099D02*
X280099Y344700D01*
X282098D02*
X284097D01*
X283098D01*
Y350698D01*
X282098Y349698D01*
X291095Y350698D02*
X287096D01*
Y347699D01*
X289096Y348699D01*
X290095D01*
X291095Y347699D01*
Y345700D01*
X290095Y344700D01*
X288096D01*
X287096Y345700D01*
X247502Y327001D02*
Y332999D01*
X250501D01*
X251501Y331999D01*
Y330000D01*
X250501Y329000D01*
X247502D01*
X249502D02*
X251501Y327001D01*
X253501D02*
X255500D01*
X254500D01*
Y332999D01*
X253501Y331999D01*
X261498Y327001D02*
Y332999D01*
X258499Y330000D01*
X262498D01*
X155300Y381900D02*
Y387898D01*
X158299D01*
X159299Y386898D01*
Y384899D01*
X158299Y383899D01*
X155300D01*
X157299D02*
X159299Y381900D01*
X161298D02*
X163297D01*
X162298D01*
Y387898D01*
X161298Y386898D01*
X166296D02*
X167296Y387898D01*
X169296D01*
X170295Y386898D01*
Y385899D01*
X169296Y384899D01*
X168296D01*
X169296D01*
X170295Y383899D01*
Y382900D01*
X169296Y381900D01*
X167296D01*
X166296Y382900D01*
X128600Y382200D02*
Y388198D01*
X131599D01*
X132599Y387198D01*
Y385199D01*
X131599Y384199D01*
X128600D01*
X130599D02*
X132599Y382200D01*
X134598D02*
X136597D01*
X135598D01*
Y388198D01*
X134598Y387198D01*
X143595Y382200D02*
X139596D01*
X143595Y386199D01*
Y387198D01*
X142596Y388198D01*
X140596D01*
X139596Y387198D01*
X148600Y352200D02*
Y358198D01*
X151599D01*
X152599Y357198D01*
Y355199D01*
X151599Y354199D01*
X148600D01*
X150599D02*
X152599Y352200D01*
X154598D02*
X156597D01*
X155598D01*
Y358198D01*
X154598Y357198D01*
X159596Y352200D02*
X161596D01*
X160596D01*
Y358198D01*
X159596Y357198D01*
X64800Y212400D02*
Y218398D01*
X67799D01*
X68799Y217398D01*
Y215399D01*
X67799Y214399D01*
X64800D01*
X66799D02*
X68799Y212400D01*
X70798D02*
X72797D01*
X71798D01*
Y218398D01*
X70798Y217398D01*
X75796D02*
X76796Y218398D01*
X78795D01*
X79795Y217398D01*
Y213400D01*
X78795Y212400D01*
X76796D01*
X75796Y213400D01*
Y217398D01*
X249600Y125200D02*
Y131198D01*
X252599D01*
X253599Y130198D01*
Y128199D01*
X252599Y127199D01*
X249600D01*
X251599D02*
X253599Y125200D01*
X255598Y126200D02*
X256598Y125200D01*
X258597D01*
X259597Y126200D01*
Y130198D01*
X258597Y131198D01*
X256598D01*
X255598Y130198D01*
Y129199D01*
X256598Y128199D01*
X259597D01*
X156100Y99700D02*
Y105698D01*
X159099D01*
X160099Y104698D01*
Y102699D01*
X159099Y101699D01*
X156100D01*
X158099D02*
X160099Y99700D01*
X162098Y104698D02*
X163098Y105698D01*
X165097D01*
X166097Y104698D01*
Y103699D01*
X165097Y102699D01*
X166097Y101699D01*
Y100700D01*
X165097Y99700D01*
X163098D01*
X162098Y100700D01*
Y101699D01*
X163098Y102699D01*
X162098Y103699D01*
Y104698D01*
X163098Y102699D02*
X165097D01*
X225600Y124700D02*
Y130698D01*
X228599D01*
X229599Y129698D01*
Y127699D01*
X228599Y126699D01*
X225600D01*
X227599D02*
X229599Y124700D01*
X231598Y130698D02*
X235597D01*
Y129698D01*
X231598Y125700D01*
Y124700D01*
X116600Y225200D02*
Y231198D01*
X119599D01*
X120599Y230198D01*
Y228199D01*
X119599Y227199D01*
X116600D01*
X118599D02*
X120599Y225200D01*
X126597Y231198D02*
X124597Y230198D01*
X122598Y228199D01*
Y226200D01*
X123598Y225200D01*
X125597D01*
X126597Y226200D01*
Y227199D01*
X125597Y228199D01*
X122598D01*
X135800Y272900D02*
Y278898D01*
X138799D01*
X139799Y277898D01*
Y275899D01*
X138799Y274899D01*
X135800D01*
X137799D02*
X139799Y272900D01*
X145797Y278898D02*
X141798D01*
Y275899D01*
X143797Y276899D01*
X144797D01*
X145797Y275899D01*
Y273900D01*
X144797Y272900D01*
X142798D01*
X141798Y273900D01*
X134100Y225200D02*
Y231198D01*
X137099D01*
X138099Y230198D01*
Y228199D01*
X137099Y227199D01*
X134100D01*
X136099D02*
X138099Y225200D01*
X143097D02*
Y231198D01*
X140098Y228199D01*
X144097D01*
X133600Y98700D02*
Y104698D01*
X136599D01*
X137599Y103698D01*
Y101699D01*
X136599Y100699D01*
X133600D01*
X135599D02*
X137599Y98700D01*
X139598Y103698D02*
X140598Y104698D01*
X142597D01*
X143597Y103698D01*
Y102699D01*
X142597Y101699D01*
X141597D01*
X142597D01*
X143597Y100699D01*
Y99700D01*
X142597Y98700D01*
X140598D01*
X139598Y99700D01*
X79300Y146400D02*
Y152398D01*
X82299D01*
X83299Y151398D01*
Y149399D01*
X82299Y148399D01*
X79300D01*
X81299D02*
X83299Y146400D01*
X89297D02*
X85298D01*
X89297Y150399D01*
Y151398D01*
X88297Y152398D01*
X86298D01*
X85298Y151398D01*
X80300Y122900D02*
Y128898D01*
X83299D01*
X84299Y127898D01*
Y125899D01*
X83299Y124899D01*
X80300D01*
X82299D02*
X84299Y122900D01*
X86298D02*
X88297D01*
X87298D01*
Y128898D01*
X86298Y127898D01*
X210599Y60400D02*
Y64398D01*
X209599Y65398D01*
X207600D01*
X206600Y64398D01*
Y60400D01*
X207600Y59400D01*
X209599D01*
X208599Y61399D02*
X210599Y59400D01*
X209599D02*
X210599Y60400D01*
X216597Y59400D02*
X212598D01*
X216597Y63399D01*
Y64398D01*
X215597Y65398D01*
X213598D01*
X212598Y64398D01*
X183599Y60400D02*
Y64398D01*
X182599Y65398D01*
X180600D01*
X179600Y64398D01*
Y60400D01*
X180600Y59400D01*
X182599D01*
X181599Y61399D02*
X183599Y59400D01*
X182599D02*
X183599Y60400D01*
X185598Y59400D02*
X187597D01*
X186598D01*
Y65398D01*
X185598Y64398D01*
X233200Y384200D02*
Y390198D01*
X236199D01*
X237199Y389198D01*
Y387199D01*
X236199Y386199D01*
X233200D01*
X239198Y390198D02*
X243197D01*
Y389198D01*
X239198Y385200D01*
Y384200D01*
X146600Y299400D02*
Y305398D01*
X149599D01*
X150599Y304398D01*
Y302399D01*
X149599Y301399D01*
X146600D01*
X156597Y305398D02*
X154597Y304398D01*
X152598Y302399D01*
Y300400D01*
X153598Y299400D01*
X155597D01*
X156597Y300400D01*
Y301399D01*
X155597Y302399D01*
X152598D01*
X28600Y189400D02*
Y195398D01*
X31599D01*
X32599Y194398D01*
Y192399D01*
X31599Y191399D01*
X28600D01*
X38597Y195398D02*
X34598D01*
Y192399D01*
X36597Y193399D01*
X37597D01*
X38597Y192399D01*
Y190400D01*
X37597Y189400D01*
X35598D01*
X34598Y190400D01*
X269100Y96900D02*
Y102898D01*
X272099D01*
X273099Y101898D01*
Y99899D01*
X272099Y98899D01*
X269100D01*
X278097Y96900D02*
Y102898D01*
X275098Y99899D01*
X279097D01*
X57600Y32400D02*
Y38398D01*
X60599D01*
X61599Y37398D01*
Y35399D01*
X60599Y34399D01*
X57600D01*
X63598Y37398D02*
X64598Y38398D01*
X66597D01*
X67597Y37398D01*
Y36399D01*
X66597Y35399D01*
X65597D01*
X66597D01*
X67597Y34399D01*
Y33400D01*
X66597Y32400D01*
X64598D01*
X63598Y33400D01*
X150100Y134900D02*
Y140898D01*
X153099D01*
X154099Y139898D01*
Y137899D01*
X153099Y136899D01*
X150100D01*
X160097Y134900D02*
X156098D01*
X160097Y138899D01*
Y139898D01*
X159097Y140898D01*
X157098D01*
X156098Y139898D01*
X19200Y239200D02*
Y245198D01*
X22199D01*
X23199Y244198D01*
Y242199D01*
X22199Y241199D01*
X19200D01*
X25198Y239200D02*
X27197D01*
X26198D01*
Y245198D01*
X25198Y244198D01*
X368100Y66398D02*
Y60400D01*
Y63399D01*
X372099D01*
Y66398D01*
Y60400D01*
X378097D02*
X374098D01*
X378097Y64399D01*
Y65398D01*
X377097Y66398D01*
X375098D01*
X374098Y65398D01*
X188100Y97398D02*
Y91400D01*
Y94399D01*
X192099D01*
Y97398D01*
Y91400D01*
X194098D02*
X196097D01*
X195098D01*
Y97398D01*
X194098Y96398D01*
X220000Y298698D02*
Y292700D01*
X222999D01*
X223999Y293700D01*
Y297698D01*
X222999Y298698D01*
X220000D01*
X229997Y292700D02*
X225998D01*
X229997Y296699D01*
Y297698D01*
X228997Y298698D01*
X226998D01*
X225998Y297698D01*
X190500Y298698D02*
Y292700D01*
X193499D01*
X194499Y293700D01*
Y297698D01*
X193499Y298698D01*
X190500D01*
X196498Y292700D02*
X198497D01*
X197498D01*
Y298698D01*
X196498Y297698D01*
X304099Y93398D02*
X303099Y94398D01*
X301100D01*
X300100Y93398D01*
Y89400D01*
X301100Y88400D01*
X303099D01*
X304099Y89400D01*
X306098Y88400D02*
Y94398D01*
X309097D01*
X310097Y93398D01*
Y91399D01*
X309097Y90399D01*
X306098D01*
X369099Y336398D02*
X368099Y337398D01*
X366100D01*
X365100Y336398D01*
Y332400D01*
X366100Y331400D01*
X368099D01*
X369099Y332400D01*
X371098Y331400D02*
X373097D01*
X372098D01*
Y337398D01*
X371098Y336398D01*
X380095Y331400D02*
X376096D01*
X380095Y335399D01*
Y336398D01*
X379096Y337398D01*
X377096D01*
X376096Y336398D01*
X345099D02*
X344099Y337398D01*
X342100D01*
X341100Y336398D01*
Y332400D01*
X342100Y331400D01*
X344099D01*
X345099Y332400D01*
X347098Y331400D02*
X349097D01*
X348098D01*
Y337398D01*
X347098Y336398D01*
X352096Y331400D02*
X354096D01*
X353096D01*
Y337398D01*
X352096Y336398D01*
X322599D02*
X321599Y337398D01*
X319600D01*
X318600Y336398D01*
Y332400D01*
X319600Y331400D01*
X321599D01*
X322599Y332400D01*
X324598Y331400D02*
X326597D01*
X325598D01*
Y337398D01*
X324598Y336398D01*
X329596D02*
X330596Y337398D01*
X332595D01*
X333595Y336398D01*
Y332400D01*
X332595Y331400D01*
X330596D01*
X329596Y332400D01*
Y336398D01*
X301599D02*
X300599Y337398D01*
X298600D01*
X297600Y336398D01*
Y332400D01*
X298600Y331400D01*
X300599D01*
X301599Y332400D01*
X303598D02*
X304598Y331400D01*
X306597D01*
X307597Y332400D01*
Y336398D01*
X306597Y337398D01*
X304598D01*
X303598Y336398D01*
Y335399D01*
X304598Y334399D01*
X307597D01*
X227099Y247898D02*
X226099Y248898D01*
X224100D01*
X223100Y247898D01*
Y243900D01*
X224100Y242900D01*
X226099D01*
X227099Y243900D01*
X229098Y247898D02*
X230098Y248898D01*
X232097D01*
X233097Y247898D01*
Y246899D01*
X232097Y245899D01*
X233097Y244899D01*
Y243900D01*
X232097Y242900D01*
X230098D01*
X229098Y243900D01*
Y244899D01*
X230098Y245899D01*
X229098Y246899D01*
Y247898D01*
X230098Y245899D02*
X232097D01*
X226599Y221065D02*
X225599Y222065D01*
X223600D01*
X222600Y221065D01*
Y217066D01*
X223600Y216067D01*
X225599D01*
X226599Y217066D01*
X228598Y222065D02*
X232597D01*
Y221065D01*
X228598Y217066D01*
Y216067D01*
X226599Y194232D02*
X225599Y195231D01*
X223600D01*
X222600Y194232D01*
Y190233D01*
X223600Y189233D01*
X225599D01*
X226599Y190233D01*
X232597Y195231D02*
X230597Y194232D01*
X228598Y192232D01*
Y190233D01*
X229598Y189233D01*
X231597D01*
X232597Y190233D01*
Y191233D01*
X231597Y192232D01*
X228598D01*
X226599Y167398D02*
X225599Y168398D01*
X223600D01*
X222600Y167398D01*
Y163400D01*
X223600Y162400D01*
X225599D01*
X226599Y163400D01*
X232597Y168398D02*
X228598D01*
Y165399D01*
X230597Y166399D01*
X231597D01*
X232597Y165399D01*
Y163400D01*
X231597Y162400D01*
X229598D01*
X228598Y163400D01*
X304099Y157398D02*
X303099Y158398D01*
X301100D01*
X300100Y157398D01*
Y153400D01*
X301100Y152400D01*
X303099D01*
X304099Y153400D01*
X309097Y152400D02*
Y158398D01*
X306098Y155399D01*
X310097D01*
X326599Y157398D02*
X325599Y158398D01*
X323600D01*
X322600Y157398D01*
Y153400D01*
X323600Y152400D01*
X325599D01*
X326599Y153400D01*
X328598Y157398D02*
X329598Y158398D01*
X331597D01*
X332597Y157398D01*
Y156399D01*
X331597Y155399D01*
X330597D01*
X331597D01*
X332597Y154399D01*
Y153400D01*
X331597Y152400D01*
X329598D01*
X328598Y153400D01*
X348099Y157398D02*
X347099Y158398D01*
X345100D01*
X344100Y157398D01*
Y153400D01*
X345100Y152400D01*
X347099D01*
X348099Y153400D01*
X354097Y152400D02*
X350098D01*
X354097Y156399D01*
Y157398D01*
X353097Y158398D01*
X351098D01*
X350098Y157398D01*
X369099D02*
X368099Y158398D01*
X366100D01*
X365100Y157398D01*
Y153400D01*
X366100Y152400D01*
X368099D01*
X369099Y153400D01*
X371098Y152400D02*
X373097D01*
X372098D01*
Y158398D01*
X371098Y157398D01*
D14*
X329551Y22985D02*
Y19049D01*
X331519Y21017D02*
X327583D01*
M02*
