G04*
G04 #@! TF.GenerationSoftware,Altium Limited,Altium Designer,22.4.2 (48)*
G04*
G04 Layer_Physical_Order=2*
G04 Layer_Color=16711680*
%FSLAX25Y25*%
%MOIN*%
G70*
G04*
G04 #@! TF.SameCoordinates,0208FD7A-64DB-45E4-85D5-A9DD0F7FCACB*
G04*
G04*
G04 #@! TF.FilePolarity,Positive*
G04*
G01*
G75*
%ADD30C,0.04724*%
%ADD31R,0.04724X0.04724*%
%ADD34C,0.03000*%
%ADD35C,0.04000*%
%ADD36C,0.04567*%
%ADD37R,0.04567X0.04567*%
%ADD38R,0.04567X0.04567*%
%ADD39C,0.08858*%
%ADD40R,0.08858X0.08858*%
%ADD41C,0.05512*%
%ADD42C,0.05906*%
%ADD43R,0.05906X0.05906*%
%ADD44R,0.05906X0.05906*%
%ADD45R,0.06299X0.06299*%
%ADD46C,0.06299*%
%ADD47R,0.08858X0.08858*%
%ADD48C,0.04811*%
%ADD49R,0.04811X0.04811*%
G36*
X171966Y263033D02*
Y232171D01*
X141329Y201535D01*
X139024D01*
X138992Y202034D01*
X139414Y202090D01*
X140265Y202443D01*
X140996Y203004D01*
X159496Y221504D01*
X160057Y222235D01*
X160410Y223086D01*
X160530Y224000D01*
Y254038D01*
X168237Y261744D01*
X168626D01*
X169836Y262068D01*
X170920Y262694D01*
X171466Y263240D01*
X171966Y263033D01*
D02*
G37*
G36*
X391000Y2294D02*
X363105D01*
X363006Y2794D01*
X363517Y3006D01*
X364353Y3647D01*
X373594Y12889D01*
X374095Y12682D01*
Y11721D01*
X374398Y10194D01*
X374994Y8755D01*
X375859Y7461D01*
X376960Y6359D01*
X378255Y5494D01*
X379694Y4898D01*
X381221Y4594D01*
X382779D01*
X384306Y4898D01*
X385745Y5494D01*
X387039Y6359D01*
X388141Y7461D01*
X389006Y8755D01*
X389602Y10194D01*
X389906Y11721D01*
Y13279D01*
X389602Y14806D01*
X389006Y16245D01*
X388141Y17539D01*
X387039Y18641D01*
X385745Y19506D01*
X384306Y20102D01*
X382779Y20405D01*
X381818D01*
X381611Y20906D01*
X385353Y24647D01*
X385994Y25483D01*
X386397Y26456D01*
X386535Y27500D01*
X386535Y27500D01*
Y39657D01*
X386397Y40701D01*
X385994Y41674D01*
X385353Y42510D01*
X385353Y42510D01*
X383010Y44853D01*
X382174Y45494D01*
X381201Y45897D01*
X380157Y46035D01*
X380157Y46035D01*
X372500D01*
X371456Y45897D01*
X370483Y45494D01*
X369647Y44853D01*
X369006Y44017D01*
X368603Y43044D01*
X368465Y42000D01*
X368603Y40956D01*
X369006Y39983D01*
X369647Y39147D01*
X370483Y38506D01*
X371456Y38103D01*
X372500Y37966D01*
X378466D01*
Y29171D01*
X377915Y28620D01*
X377453Y28812D01*
Y36953D01*
X367547D01*
Y27047D01*
X375688D01*
X375880Y26585D01*
X359829Y10535D01*
X191861D01*
X191553Y10980D01*
X191554Y11034D01*
X192353Y11647D01*
X207231Y26526D01*
X207778Y26365D01*
X208379Y25322D01*
X209338Y24363D01*
X210512Y23686D01*
X211822Y23335D01*
X213178D01*
X214488Y23686D01*
X215662Y24363D01*
X216621Y25322D01*
X217299Y26496D01*
X217650Y27806D01*
Y29162D01*
X217299Y30472D01*
X216621Y31646D01*
X215662Y32605D01*
X215424Y32742D01*
Y33242D01*
X215662Y33379D01*
X216621Y34338D01*
X217299Y35512D01*
X217650Y36822D01*
Y38178D01*
X217299Y39488D01*
X216621Y40662D01*
X216378Y40904D01*
X216570Y41366D01*
X217650D01*
Y42481D01*
X248759D01*
X252093Y39147D01*
X252093Y39147D01*
X252402Y38910D01*
X252740Y38572D01*
X253717Y38008D01*
X254806Y37716D01*
X255934D01*
X257023Y38008D01*
X258000Y38572D01*
X258798Y39370D01*
X259362Y40347D01*
X259653Y41436D01*
Y42564D01*
X259362Y43653D01*
X258798Y44630D01*
X258000Y45428D01*
X257023Y45992D01*
X256527Y46125D01*
X255397Y47255D01*
X255589Y47717D01*
X255934D01*
X257023Y48008D01*
X258000Y48572D01*
X258798Y49370D01*
X259362Y50347D01*
X259653Y51436D01*
Y52564D01*
X259362Y53653D01*
X258900Y54452D01*
Y58908D01*
X273540Y73547D01*
X278453D01*
Y77902D01*
X278915Y78093D01*
X296470Y60538D01*
Y46832D01*
X290211Y40573D01*
X289723Y40726D01*
X289699Y40769D01*
X289761Y41000D01*
X287630D01*
Y38869D01*
X287861Y38931D01*
X287904Y38907D01*
X288056Y38419D01*
X285868Y36230D01*
X284977Y35992D01*
X284000Y35428D01*
X283202Y34630D01*
X282638Y33653D01*
X282346Y32564D01*
Y31436D01*
X282638Y30347D01*
X283202Y29370D01*
X284000Y28572D01*
X284977Y28008D01*
X286066Y27716D01*
X287194D01*
X288283Y28008D01*
X289260Y28572D01*
X290057Y29370D01*
X290621Y30347D01*
X290860Y31238D01*
X302496Y42874D01*
X302496Y42874D01*
X303057Y43605D01*
X303410Y44456D01*
X303530Y45370D01*
X303530Y45370D01*
Y62000D01*
X303410Y62914D01*
X303057Y63765D01*
X302496Y64496D01*
X278453Y88540D01*
Y89152D01*
X278115Y90412D01*
X277463Y91541D01*
X276541Y92463D01*
X275412Y93115D01*
X274152Y93453D01*
X272848D01*
X271588Y93115D01*
X270459Y92463D01*
X269537Y91541D01*
X268885Y90412D01*
X268547Y89152D01*
Y87848D01*
X268885Y86588D01*
X269537Y85459D01*
X270459Y84537D01*
X271471Y83953D01*
X271337Y83453D01*
X268547D01*
Y78540D01*
X252874Y62866D01*
X252313Y62135D01*
X251960Y61284D01*
X251840Y60370D01*
Y54452D01*
X251378Y53653D01*
X251087Y52564D01*
Y51436D01*
X251240Y50863D01*
X250910Y50487D01*
X250430Y50550D01*
X250430Y50550D01*
X217650D01*
Y51665D01*
X207350D01*
Y41366D01*
X208430D01*
X208622Y40904D01*
X208379Y40662D01*
X207701Y39488D01*
X207350Y38178D01*
Y38056D01*
X187829Y18534D01*
X44671D01*
X42035Y21171D01*
Y25329D01*
X83297Y66592D01*
X84130Y67072D01*
X84928Y67870D01*
X85492Y68847D01*
X85783Y69936D01*
Y71064D01*
X85535Y71993D01*
Y81329D01*
X100171Y95965D01*
X113000D01*
X113000Y95965D01*
X114044Y96103D01*
X115017Y96506D01*
X115853Y97147D01*
X138353Y119647D01*
X138353Y119647D01*
X138994Y120483D01*
X139397Y121456D01*
X139534Y122500D01*
X139534Y122500D01*
Y166959D01*
X165797Y193221D01*
X166630Y193702D01*
X167428Y194500D01*
X167909Y195333D01*
X169490Y196914D01*
X170018Y196735D01*
X170103Y196086D01*
X170506Y195113D01*
X171147Y194277D01*
X171983Y193636D01*
X172956Y193233D01*
X174000Y193096D01*
X175044Y193233D01*
X175436Y193395D01*
X175930D01*
X175930Y193395D01*
X176974Y193533D01*
X177947Y193936D01*
X178783Y194577D01*
X179559Y195353D01*
X180148Y195235D01*
X180572Y194500D01*
X181370Y193702D01*
X182347Y193138D01*
X183436Y192847D01*
X184564D01*
X185653Y193138D01*
X186630Y193702D01*
X187428Y194500D01*
X187992Y195477D01*
X188284Y196566D01*
Y197694D01*
X187992Y198783D01*
X187428Y199760D01*
X186630Y200558D01*
X185895Y200982D01*
X185777Y201571D01*
X214465Y230260D01*
X214966Y230053D01*
Y192541D01*
X192203Y169779D01*
X191370Y169298D01*
X190572Y168500D01*
X190008Y167523D01*
X189716Y166434D01*
Y165306D01*
X190008Y164217D01*
X190572Y163240D01*
X191370Y162442D01*
X192347Y161878D01*
X193436Y161586D01*
X194564D01*
X195653Y161878D01*
X196630Y162442D01*
X197428Y163240D01*
X197908Y164073D01*
X221853Y188017D01*
X222494Y188853D01*
X222897Y189826D01*
X223035Y190870D01*
X223035Y190870D01*
Y234829D01*
X242853Y254647D01*
X242853Y254647D01*
X243494Y255483D01*
X243897Y256456D01*
X244035Y257500D01*
Y324630D01*
X243897Y325674D01*
X243494Y326647D01*
X242853Y327483D01*
X242853Y327483D01*
X224039Y346297D01*
X223558Y347130D01*
X222760Y347928D01*
X221783Y348492D01*
X220694Y348783D01*
X219566D01*
X218477Y348492D01*
X217500Y347928D01*
X216702Y347130D01*
X216139Y346153D01*
X215846Y345064D01*
Y344799D01*
X215385Y344608D01*
X201496Y358496D01*
X200765Y359057D01*
X199914Y359410D01*
X199000Y359530D01*
X181500D01*
X180586Y359410D01*
X179735Y359057D01*
X179004Y358496D01*
X153538Y333030D01*
X143500D01*
X142586Y332910D01*
X141735Y332557D01*
X141004Y331996D01*
X130004Y320996D01*
X129443Y320265D01*
X129090Y319414D01*
X128970Y318500D01*
Y284462D01*
X80504Y235996D01*
X79943Y235265D01*
X79590Y234414D01*
X79470Y233500D01*
Y187962D01*
X50504Y158996D01*
X49943Y158265D01*
X49590Y157414D01*
X49470Y156500D01*
Y131082D01*
X49008Y130283D01*
X48717Y129194D01*
Y128066D01*
X49008Y126977D01*
X49572Y126000D01*
X50370Y125202D01*
X51347Y124638D01*
X52436Y124346D01*
X53564D01*
X54653Y124638D01*
X55630Y125202D01*
X56428Y126000D01*
X56991Y126977D01*
X57284Y128066D01*
Y129194D01*
X56991Y130283D01*
X56530Y131082D01*
Y155038D01*
X85496Y184004D01*
X86057Y184735D01*
X86410Y185586D01*
X86530Y186500D01*
Y232038D01*
X134996Y280504D01*
X135557Y281235D01*
X135910Y282086D01*
X136030Y283000D01*
Y317038D01*
X144962Y325970D01*
X155000D01*
X155914Y326090D01*
X156765Y326443D01*
X157496Y327004D01*
X182962Y352470D01*
X197538D01*
X215846Y334161D01*
Y333936D01*
X216139Y332847D01*
X216702Y331870D01*
X217500Y331072D01*
X218477Y330508D01*
X219368Y330270D01*
X220354Y329283D01*
X220147Y328783D01*
X219566D01*
X218477Y328492D01*
X217500Y327928D01*
X216702Y327130D01*
X216139Y326153D01*
X215846Y325064D01*
Y323936D01*
X216139Y322847D01*
X216702Y321870D01*
X217500Y321072D01*
X218477Y320508D01*
X219566Y320216D01*
X220694D01*
X221783Y320508D01*
X222760Y321072D01*
X223558Y321870D01*
X224121Y322847D01*
X224413Y323936D01*
Y324517D01*
X224914Y324724D01*
X226470Y323168D01*
Y293462D01*
X223882Y290874D01*
X222926D01*
X221816Y290577D01*
X220821Y290002D01*
X220009Y289190D01*
X219435Y288196D01*
X219138Y287086D01*
Y285938D01*
X219435Y284828D01*
X220009Y283833D01*
X220821Y283021D01*
X221816Y282447D01*
X222926Y282150D01*
X224074D01*
X225184Y282447D01*
X226179Y283021D01*
X226991Y283833D01*
X227374Y284497D01*
X227870Y284878D01*
X232496Y289504D01*
X233057Y290235D01*
X233410Y291086D01*
X233530Y292000D01*
Y324630D01*
X233516Y324739D01*
X233964Y324960D01*
X235965Y322959D01*
Y259171D01*
X216534Y239740D01*
X216035Y239947D01*
Y301370D01*
X216035Y301370D01*
X215897Y302414D01*
X215494Y303387D01*
X214853Y304223D01*
X191723Y327353D01*
X190887Y327994D01*
X189914Y328397D01*
X188870Y328535D01*
X187826Y328397D01*
X186853Y327994D01*
X186017Y327353D01*
X173147Y314483D01*
X172506Y313647D01*
X172103Y312674D01*
X171966Y311630D01*
X171966Y311630D01*
Y269968D01*
X171466Y269760D01*
X170920Y270306D01*
X169836Y270932D01*
X168626Y271256D01*
X167374D01*
X166164Y270932D01*
X165080Y270306D01*
X164194Y269420D01*
X163568Y268336D01*
X163244Y267126D01*
Y266737D01*
X154504Y257996D01*
X153943Y257265D01*
X153590Y256414D01*
X153470Y255500D01*
Y225462D01*
X137038Y209030D01*
X133962D01*
X123756Y219237D01*
Y219626D01*
X123432Y220836D01*
X122806Y221920D01*
X121920Y222806D01*
X120836Y223432D01*
X119626Y223756D01*
X118374D01*
X117164Y223432D01*
X116080Y222806D01*
X115194Y221920D01*
X114568Y220836D01*
X114244Y219626D01*
Y218374D01*
X114568Y217164D01*
X115194Y216080D01*
X116080Y215194D01*
X117164Y214568D01*
X118374Y214244D01*
X118763D01*
X130004Y203004D01*
X130735Y202443D01*
X131586Y202090D01*
X132008Y202034D01*
X131976Y201535D01*
X107171D01*
X99853Y208853D01*
X99017Y209494D01*
X98044Y209897D01*
X97000Y210034D01*
X95956Y209897D01*
X94983Y209494D01*
X94147Y208853D01*
X93506Y208017D01*
X93103Y207044D01*
X92966Y206000D01*
X93103Y204956D01*
X93506Y203983D01*
X94147Y203147D01*
X102647Y194647D01*
X102647Y194647D01*
X103483Y194006D01*
X104456Y193603D01*
X105500Y193465D01*
X105500Y193465D01*
X116223D01*
X116357Y192965D01*
X116080Y192806D01*
X115194Y191920D01*
X114568Y190836D01*
X114244Y189626D01*
Y188374D01*
X114568Y187164D01*
X115194Y186080D01*
X116080Y185194D01*
X117164Y184568D01*
X118374Y184244D01*
X119626D01*
X120836Y184568D01*
X121920Y185194D01*
X122806Y186080D01*
X123432Y187164D01*
X123756Y188374D01*
Y189626D01*
X123432Y190836D01*
X122806Y191920D01*
X121920Y192806D01*
X121643Y192965D01*
X121777Y193465D01*
X133723D01*
X133857Y192965D01*
X133580Y192806D01*
X132694Y191920D01*
X132068Y190836D01*
X131744Y189626D01*
Y188374D01*
X132068Y187164D01*
X132694Y186080D01*
X133580Y185194D01*
X134664Y184568D01*
X135874Y184244D01*
X137126D01*
X138336Y184568D01*
X139420Y185194D01*
X140306Y186080D01*
X140932Y187164D01*
X141256Y188374D01*
Y189626D01*
X140932Y190836D01*
X140306Y191920D01*
X139420Y192806D01*
X139143Y192965D01*
X139277Y193465D01*
X143000D01*
X143000Y193465D01*
X144044Y193603D01*
X145017Y194006D01*
X145853Y194647D01*
X178853Y227647D01*
X178853Y227647D01*
X179494Y228483D01*
X179897Y229456D01*
X180034Y230500D01*
X180034Y230500D01*
Y309959D01*
X184137Y314061D01*
X184615Y313832D01*
X184878Y312847D01*
X185442Y311870D01*
X186240Y311072D01*
X187073Y310592D01*
X200465Y297199D01*
Y239301D01*
X162203Y201039D01*
X161370Y200558D01*
X160572Y199760D01*
X160091Y198927D01*
X132647Y171483D01*
X132006Y170647D01*
X131603Y169674D01*
X131465Y168630D01*
X131465Y168630D01*
Y124171D01*
X111329Y104034D01*
X98500D01*
X97456Y103897D01*
X96483Y103494D01*
X95647Y102853D01*
X81500Y88706D01*
X70283Y99923D01*
X69447Y100564D01*
X68474Y100967D01*
X67430Y101105D01*
X67430Y101105D01*
X55098D01*
X54653Y101362D01*
X53564Y101654D01*
X52436D01*
X51347Y101362D01*
X50370Y100798D01*
X49572Y100000D01*
X49008Y99023D01*
X48717Y97934D01*
Y96806D01*
X49008Y95717D01*
X49572Y94740D01*
X50370Y93942D01*
X51347Y93378D01*
X52436Y93086D01*
X52913D01*
X53300Y93036D01*
X53300Y93036D01*
X65759D01*
X77465Y81329D01*
Y72171D01*
X35147Y29853D01*
X34506Y29017D01*
X34103Y28044D01*
X33966Y27000D01*
X33966Y27000D01*
Y19500D01*
X33966Y19500D01*
X34103Y18456D01*
X34506Y17483D01*
X35147Y16647D01*
X40147Y11647D01*
X40147Y11647D01*
X40946Y11034D01*
X40947Y10980D01*
X40639Y10535D01*
X38671D01*
X12034Y37171D01*
Y279734D01*
X25572Y293272D01*
X26010D01*
X27391Y293642D01*
X28629Y294356D01*
X29640Y295367D01*
X30354Y296605D01*
X30648Y297701D01*
X25295D01*
Y298701D01*
X24295D01*
Y304053D01*
X23200Y303760D01*
X21962Y303045D01*
X20951Y302034D01*
X20236Y300796D01*
X19866Y299416D01*
Y298977D01*
X5147Y284258D01*
X4506Y283423D01*
X4103Y282450D01*
X3965Y281406D01*
X3965Y281405D01*
Y35500D01*
X3965Y35500D01*
X4103Y34456D01*
X4506Y33483D01*
X5147Y32647D01*
X34147Y3647D01*
X34147Y3647D01*
X34983Y3006D01*
X35494Y2794D01*
X35395Y2294D01*
X2294D01*
Y391407D01*
X391000D01*
Y2294D01*
D02*
G37*
%LPC*%
G36*
X382279Y389906D02*
X380721D01*
X379194Y389602D01*
X377755Y389006D01*
X376461Y388141D01*
X375359Y387039D01*
X374494Y385745D01*
X373898Y384306D01*
X373594Y382779D01*
Y381221D01*
X373898Y379694D01*
X374494Y378255D01*
X375359Y376960D01*
X376461Y375859D01*
X377755Y374994D01*
X379194Y374398D01*
X380721Y374095D01*
X382279D01*
X383806Y374398D01*
X385245Y374994D01*
X386540Y375859D01*
X387641Y376960D01*
X388506Y378255D01*
X389102Y379694D01*
X389405Y381221D01*
Y382779D01*
X389102Y384306D01*
X388506Y385745D01*
X387641Y387039D01*
X386540Y388141D01*
X385245Y389006D01*
X383806Y389602D01*
X382279Y389906D01*
D02*
G37*
G36*
X13279D02*
X11721D01*
X10194Y389602D01*
X8755Y389006D01*
X7461Y388141D01*
X6359Y387039D01*
X5494Y385745D01*
X4898Y384306D01*
X4594Y382779D01*
Y381221D01*
X4898Y379694D01*
X5494Y378255D01*
X6359Y376960D01*
X7461Y375859D01*
X8755Y374994D01*
X10194Y374398D01*
X11721Y374095D01*
X13279D01*
X14806Y374398D01*
X16245Y374994D01*
X17539Y375859D01*
X18641Y376960D01*
X19506Y378255D01*
X20102Y379694D01*
X20405Y381221D01*
Y382779D01*
X20102Y384306D01*
X19506Y385745D01*
X18641Y387039D01*
X17539Y388141D01*
X16245Y389006D01*
X14806Y389602D01*
X13279Y389906D01*
D02*
G37*
G36*
X249580Y380906D02*
X248420D01*
X247300Y380605D01*
X246295Y380025D01*
X245475Y379205D01*
X244895Y378201D01*
X244595Y377080D01*
Y375920D01*
X244895Y374799D01*
X245475Y373795D01*
X246295Y372975D01*
X247300Y372395D01*
X248420Y372094D01*
X249580D01*
X250700Y372395D01*
X251705Y372975D01*
X252525Y373795D01*
X253105Y374799D01*
X253405Y375920D01*
Y377080D01*
X253105Y378201D01*
X252525Y379205D01*
X251705Y380025D01*
X250700Y380605D01*
X249580Y380906D01*
D02*
G37*
G36*
X131626Y380756D02*
X130374D01*
X129164Y380432D01*
X128080Y379806D01*
X127194Y378920D01*
X126568Y377836D01*
X126244Y376626D01*
Y375374D01*
X126568Y374164D01*
X127194Y373080D01*
X128080Y372194D01*
X129164Y371568D01*
X130374Y371244D01*
X131626D01*
X132836Y371568D01*
X133920Y372194D01*
X134806Y373080D01*
X135432Y374164D01*
X135756Y375374D01*
Y376626D01*
X135432Y377836D01*
X134806Y378920D01*
X133920Y379806D01*
X132836Y380432D01*
X131626Y380756D01*
D02*
G37*
G36*
X188126Y380256D02*
X186874D01*
X185664Y379932D01*
X184580Y379306D01*
X183694Y378420D01*
X183068Y377336D01*
X182744Y376126D01*
Y374874D01*
X183068Y373664D01*
X183694Y372580D01*
X184580Y371694D01*
X185664Y371068D01*
X186874Y370744D01*
X188126D01*
X189336Y371068D01*
X190420Y371694D01*
X191306Y372580D01*
X191932Y373664D01*
X192256Y374874D01*
Y376126D01*
X191932Y377336D01*
X191306Y378420D01*
X190420Y379306D01*
X189336Y379932D01*
X188126Y380256D01*
D02*
G37*
G36*
X158126D02*
X156874D01*
X155664Y379932D01*
X154580Y379306D01*
X153694Y378420D01*
X153068Y377336D01*
X152744Y376126D01*
Y374874D01*
X153068Y373664D01*
X153694Y372580D01*
X154580Y371694D01*
X155664Y371068D01*
X156874Y370744D01*
X158126D01*
X159336Y371068D01*
X160420Y371694D01*
X161306Y372580D01*
X161932Y373664D01*
X162256Y374874D01*
Y376126D01*
X161932Y377336D01*
X161306Y378420D01*
X160420Y379306D01*
X159336Y379932D01*
X158126Y380256D01*
D02*
G37*
G36*
X318126Y374256D02*
X316874D01*
X315664Y373932D01*
X314580Y373306D01*
X313694Y372420D01*
X313068Y371336D01*
X312744Y370126D01*
Y368874D01*
X313068Y367664D01*
X313694Y366580D01*
X314580Y365694D01*
X315664Y365068D01*
X316874Y364744D01*
X318126D01*
X319336Y365068D01*
X320420Y365694D01*
X321306Y366580D01*
X321932Y367664D01*
X322256Y368874D01*
Y370126D01*
X321932Y371336D01*
X321306Y372420D01*
X320420Y373306D01*
X319336Y373932D01*
X318126Y374256D01*
D02*
G37*
G36*
X288126D02*
X286874D01*
X285664Y373932D01*
X284580Y373306D01*
X283694Y372420D01*
X283068Y371336D01*
X282744Y370126D01*
Y368874D01*
X283068Y367664D01*
X283694Y366580D01*
X284580Y365694D01*
X285664Y365068D01*
X286874Y364744D01*
X288126D01*
X289336Y365068D01*
X290420Y365694D01*
X291306Y366580D01*
X291932Y367664D01*
X292256Y368874D01*
Y370126D01*
X291932Y371336D01*
X291306Y372420D01*
X290420Y373306D01*
X289336Y373932D01*
X288126Y374256D01*
D02*
G37*
G36*
X259580Y370905D02*
X258420D01*
X257299Y370605D01*
X256295Y370025D01*
X255475Y369205D01*
X254895Y368200D01*
X254594Y367080D01*
Y365920D01*
X254895Y364799D01*
X255475Y363795D01*
X256295Y362975D01*
X257299Y362395D01*
X258420Y362094D01*
X259580D01*
X260700Y362395D01*
X261705Y362975D01*
X262525Y363795D01*
X263105Y364799D01*
X263405Y365920D01*
Y367080D01*
X263105Y368200D01*
X262525Y369205D01*
X261705Y370025D01*
X260700Y370605D01*
X259580Y370905D01*
D02*
G37*
G36*
X243406D02*
X234594D01*
Y362094D01*
X243406D01*
Y370905D01*
D02*
G37*
G36*
X79432Y358634D02*
X78166D01*
X76924Y358387D01*
X75754Y357902D01*
X74701Y357199D01*
X73805Y356303D01*
X73102Y355250D01*
X72617Y354080D01*
X72370Y352838D01*
Y351572D01*
X72617Y350329D01*
X73102Y349160D01*
X73805Y348107D01*
X74701Y347211D01*
X75754Y346507D01*
X76924Y346023D01*
X78166Y345776D01*
X79432D01*
X80674Y346023D01*
X81845Y346507D01*
X82898Y347211D01*
X83793Y348107D01*
X84497Y349160D01*
X84981Y350329D01*
X85228Y351572D01*
Y352838D01*
X84981Y354080D01*
X84497Y355250D01*
X83793Y356303D01*
X82898Y357199D01*
X81845Y357902D01*
X80674Y358387D01*
X79432Y358634D01*
D02*
G37*
G36*
X56834D02*
X55568D01*
X54325Y358387D01*
X53155Y357902D01*
X52103Y357199D01*
X51207Y356303D01*
X50503Y355250D01*
X50019Y354080D01*
X49772Y352838D01*
Y351572D01*
X50019Y350329D01*
X50503Y349160D01*
X51207Y348107D01*
X52103Y347211D01*
X53155Y346507D01*
X54325Y346023D01*
X55568Y345776D01*
X56834D01*
X58076Y346023D01*
X59246Y346507D01*
X60299Y347211D01*
X61195Y348107D01*
X61898Y349160D01*
X62383Y350329D01*
X62630Y351572D01*
Y352838D01*
X62383Y354080D01*
X61898Y355250D01*
X61195Y356303D01*
X60299Y357199D01*
X59246Y357902D01*
X58076Y358387D01*
X56834Y358634D01*
D02*
G37*
G36*
X151626Y350756D02*
X150374D01*
X149164Y350432D01*
X148080Y349806D01*
X147194Y348920D01*
X146568Y347836D01*
X146244Y346626D01*
Y345374D01*
X146568Y344164D01*
X147194Y343080D01*
X148080Y342194D01*
X149164Y341568D01*
X150374Y341244D01*
X151626D01*
X152836Y341568D01*
X153920Y342194D01*
X154806Y343080D01*
X155432Y344164D01*
X155756Y345374D01*
Y346626D01*
X155432Y347836D01*
X154806Y348920D01*
X153920Y349806D01*
X152836Y350432D01*
X151626Y350756D01*
D02*
G37*
G36*
X131626D02*
X130374D01*
X129164Y350432D01*
X128080Y349806D01*
X127194Y348920D01*
X126568Y347836D01*
X126244Y346626D01*
Y345374D01*
X126568Y344164D01*
X127194Y343080D01*
X128080Y342194D01*
X129164Y341568D01*
X130374Y341244D01*
X131626D01*
X132836Y341568D01*
X133920Y342194D01*
X134806Y343080D01*
X135432Y344164D01*
X135756Y345374D01*
Y346626D01*
X135432Y347836D01*
X134806Y348920D01*
X133920Y349806D01*
X132836Y350432D01*
X131626Y350756D01*
D02*
G37*
G36*
X193154Y348783D02*
X184587D01*
Y340216D01*
X193154D01*
Y348783D01*
D02*
G37*
G36*
X99039Y347335D02*
X97772D01*
X96530Y347088D01*
X95360Y346603D01*
X94307Y345899D01*
X93412Y345004D01*
X92708Y343951D01*
X92224Y342781D01*
X91976Y341539D01*
Y340272D01*
X92224Y339030D01*
X92708Y337860D01*
X93412Y336807D01*
X94307Y335912D01*
X95360Y335208D01*
X96530Y334723D01*
X97772Y334476D01*
X99039D01*
X100281Y334723D01*
X101451Y335208D01*
X102504Y335912D01*
X103399Y336807D01*
X104103Y337860D01*
X104588Y339030D01*
X104835Y340272D01*
Y341539D01*
X104588Y342781D01*
X104103Y343951D01*
X103399Y345004D01*
X102504Y345899D01*
X101451Y346603D01*
X100281Y347088D01*
X99039Y347335D01*
D02*
G37*
G36*
X37228D02*
X35961D01*
X34719Y347088D01*
X33549Y346603D01*
X32496Y345899D01*
X31601Y345004D01*
X30897Y343951D01*
X30412Y342781D01*
X30165Y341539D01*
Y340272D01*
X30412Y339030D01*
X30897Y337860D01*
X31601Y336807D01*
X32496Y335912D01*
X33549Y335208D01*
X34719Y334723D01*
X35961Y334476D01*
X37228D01*
X38470Y334723D01*
X39640Y335208D01*
X40693Y335912D01*
X41588Y336807D01*
X42292Y337860D01*
X42777Y339030D01*
X43023Y340272D01*
Y341539D01*
X42777Y342781D01*
X42292Y343951D01*
X41588Y345004D01*
X40693Y345899D01*
X39640Y346603D01*
X38470Y347088D01*
X37228Y347335D01*
D02*
G37*
G36*
X279126Y343256D02*
X277874D01*
X276664Y342932D01*
X275580Y342306D01*
X274694Y341420D01*
X274068Y340336D01*
X273744Y339126D01*
Y337874D01*
X274068Y336664D01*
X274694Y335580D01*
X275580Y334694D01*
X276664Y334068D01*
X277874Y333744D01*
X279126D01*
X280336Y334068D01*
X281420Y334694D01*
X282306Y335580D01*
X282932Y336664D01*
X283256Y337874D01*
Y339126D01*
X282932Y340336D01*
X282306Y341420D01*
X281420Y342306D01*
X280336Y342932D01*
X279126Y343256D01*
D02*
G37*
G36*
X189434Y338784D02*
X188306D01*
X187217Y338492D01*
X186240Y337928D01*
X185442Y337130D01*
X184878Y336153D01*
X184587Y335064D01*
Y333936D01*
X184878Y332847D01*
X185442Y331870D01*
X186240Y331072D01*
X187217Y330508D01*
X188306Y330217D01*
X189434D01*
X190523Y330508D01*
X191500Y331072D01*
X192298Y331870D01*
X192862Y332847D01*
X193154Y333936D01*
Y335064D01*
X192862Y336153D01*
X192298Y337130D01*
X191500Y337928D01*
X190523Y338492D01*
X189434Y338784D01*
D02*
G37*
G36*
X68133Y331587D02*
X66867D01*
X65625Y331340D01*
X64455Y330855D01*
X63402Y330151D01*
X62506Y329256D01*
X61803Y328203D01*
X61318Y327033D01*
X61071Y325791D01*
Y324524D01*
X61318Y323282D01*
X61803Y322112D01*
X62506Y321059D01*
X63402Y320164D01*
X64455Y319460D01*
X65625Y318975D01*
X66867Y318728D01*
X68133D01*
X69375Y318975D01*
X70545Y319460D01*
X71598Y320164D01*
X72494Y321059D01*
X73197Y322112D01*
X73682Y323282D01*
X73929Y324524D01*
Y325791D01*
X73682Y327033D01*
X73197Y328203D01*
X72494Y329256D01*
X71598Y330151D01*
X70545Y330855D01*
X69375Y331340D01*
X68133Y331587D01*
D02*
G37*
G36*
X256626Y326256D02*
X255374D01*
X254164Y325932D01*
X253080Y325306D01*
X252194Y324420D01*
X251568Y323336D01*
X251244Y322126D01*
Y320874D01*
X251568Y319664D01*
X252194Y318580D01*
X253080Y317694D01*
X254164Y317068D01*
X255374Y316744D01*
X256626D01*
X257836Y317068D01*
X258920Y317694D01*
X259806Y318580D01*
X260432Y319664D01*
X260756Y320874D01*
Y322126D01*
X260432Y323336D01*
X259806Y324420D01*
X258920Y325306D01*
X257836Y325932D01*
X256626Y326256D01*
D02*
G37*
G36*
X372574Y324862D02*
X371426D01*
X370316Y324565D01*
X369321Y323991D01*
X368509Y323179D01*
X367935Y322184D01*
X367638Y321074D01*
Y319926D01*
X367935Y318816D01*
X368509Y317822D01*
X369321Y317009D01*
X370316Y316435D01*
X371426Y316138D01*
X372574D01*
X373684Y316435D01*
X374678Y317009D01*
X375491Y317822D01*
X376065Y318816D01*
X376362Y319926D01*
Y321074D01*
X376065Y322184D01*
X375491Y323179D01*
X374678Y323991D01*
X373684Y324565D01*
X372574Y324862D01*
D02*
G37*
G36*
X348574D02*
X347426D01*
X346316Y324565D01*
X345321Y323991D01*
X344509Y323179D01*
X343935Y322184D01*
X343638Y321074D01*
Y319926D01*
X343935Y318816D01*
X344509Y317822D01*
X345321Y317009D01*
X346316Y316435D01*
X347426Y316138D01*
X348574D01*
X349684Y316435D01*
X350678Y317009D01*
X351491Y317822D01*
X352065Y318816D01*
X352362Y319926D01*
Y321074D01*
X352065Y322184D01*
X351491Y323179D01*
X350678Y323991D01*
X349684Y324565D01*
X348574Y324862D01*
D02*
G37*
G36*
X326074D02*
X324926D01*
X323816Y324565D01*
X322821Y323991D01*
X322009Y323179D01*
X321435Y322184D01*
X321138Y321074D01*
Y319926D01*
X321435Y318816D01*
X322009Y317822D01*
X322821Y317009D01*
X323816Y316435D01*
X324926Y316138D01*
X326074D01*
X327184Y316435D01*
X328179Y317009D01*
X328991Y317822D01*
X329565Y318816D01*
X329862Y319926D01*
Y321074D01*
X329565Y322184D01*
X328991Y323179D01*
X328179Y323991D01*
X327184Y324565D01*
X326074Y324862D01*
D02*
G37*
G36*
X305074D02*
X303926D01*
X302816Y324565D01*
X301821Y323991D01*
X301009Y323179D01*
X300435Y322184D01*
X300138Y321074D01*
Y319926D01*
X300435Y318816D01*
X301009Y317822D01*
X301821Y317009D01*
X302816Y316435D01*
X303926Y316138D01*
X305074D01*
X306184Y316435D01*
X307178Y317009D01*
X307991Y317822D01*
X308565Y318816D01*
X308862Y319926D01*
Y321074D01*
X308565Y322184D01*
X307991Y323179D01*
X307178Y323991D01*
X306184Y324565D01*
X305074Y324862D01*
D02*
G37*
G36*
X25928Y327728D02*
X24662D01*
X23420Y327481D01*
X22250Y326997D01*
X21197Y326293D01*
X20301Y325397D01*
X19598Y324344D01*
X19113Y323175D01*
X18866Y321932D01*
Y320666D01*
X19113Y319424D01*
X19598Y318254D01*
X20301Y317201D01*
X21197Y316305D01*
X22250Y315602D01*
X23420Y315117D01*
X24662Y314870D01*
X25928D01*
X27171Y315117D01*
X28341Y315602D01*
X29394Y316305D01*
X30289Y317201D01*
X30993Y318254D01*
X31477Y319424D01*
X31724Y320666D01*
Y321932D01*
X31477Y323175D01*
X30993Y324344D01*
X30289Y325397D01*
X29394Y326293D01*
X28341Y326997D01*
X27171Y327481D01*
X25928Y327728D01*
D02*
G37*
G36*
X151626Y320756D02*
X150374D01*
X149164Y320432D01*
X148080Y319806D01*
X147194Y318920D01*
X146568Y317836D01*
X146244Y316626D01*
Y315374D01*
X146568Y314164D01*
X147194Y313080D01*
X148080Y312194D01*
X149164Y311568D01*
X150374Y311244D01*
X151626D01*
X152836Y311568D01*
X153920Y312194D01*
X154806Y313080D01*
X155432Y314164D01*
X155756Y315374D01*
Y316626D01*
X155432Y317836D01*
X154806Y318920D01*
X153920Y319806D01*
X152836Y320432D01*
X151626Y320756D01*
D02*
G37*
G36*
X220694Y318783D02*
X219566D01*
X218477Y318492D01*
X217500Y317928D01*
X216702Y317130D01*
X216139Y316153D01*
X215846Y315064D01*
Y313936D01*
X216139Y312847D01*
X216702Y311870D01*
X217500Y311072D01*
X218477Y310508D01*
X219566Y310216D01*
X220694D01*
X221783Y310508D01*
X222760Y311072D01*
X223558Y311870D01*
X224121Y312847D01*
X224413Y313936D01*
Y315064D01*
X224121Y316153D01*
X223558Y317130D01*
X222760Y317928D01*
X221783Y318492D01*
X220694Y318783D01*
D02*
G37*
G36*
X279126Y313256D02*
X277874D01*
X276664Y312932D01*
X275580Y312306D01*
X274694Y311420D01*
X274068Y310336D01*
X273744Y309126D01*
Y307874D01*
X274068Y306664D01*
X274694Y305580D01*
X275580Y304694D01*
X276664Y304068D01*
X277874Y303744D01*
X279126D01*
X280336Y304068D01*
X281420Y304694D01*
X282306Y305580D01*
X282932Y306664D01*
X283256Y307874D01*
Y309126D01*
X282932Y310336D01*
X282306Y311420D01*
X281420Y312306D01*
X280336Y312932D01*
X279126Y313256D01*
D02*
G37*
G36*
X26295Y304053D02*
Y299701D01*
X30648D01*
X30354Y300796D01*
X29640Y302034D01*
X28629Y303045D01*
X27391Y303760D01*
X26295Y304053D01*
D02*
G37*
G36*
X81259Y308850D02*
X79993D01*
X78751Y308603D01*
X77581Y308119D01*
X76528Y307415D01*
X75632Y306520D01*
X74929Y305467D01*
X74444Y304296D01*
X74197Y303054D01*
Y301788D01*
X74444Y300546D01*
X74929Y299376D01*
X75632Y298323D01*
X76528Y297427D01*
X77581Y296724D01*
X78751Y296239D01*
X79993Y295992D01*
X81259D01*
X82501Y296239D01*
X83671Y296724D01*
X84724Y297427D01*
X85620Y298323D01*
X86323Y299376D01*
X86808Y300546D01*
X87055Y301788D01*
Y303054D01*
X86808Y304296D01*
X86323Y305467D01*
X85620Y306520D01*
X84724Y307415D01*
X83671Y308119D01*
X82501Y308603D01*
X81259Y308850D01*
D02*
G37*
G36*
X55007D02*
X53741D01*
X52499Y308603D01*
X51329Y308119D01*
X50276Y307415D01*
X49380Y306520D01*
X48677Y305467D01*
X48192Y304296D01*
X47945Y303054D01*
Y301788D01*
X48192Y300546D01*
X48677Y299376D01*
X49380Y298323D01*
X50276Y297427D01*
X51329Y296724D01*
X52499Y296239D01*
X53741Y295992D01*
X55007D01*
X56249Y296239D01*
X57419Y296724D01*
X58472Y297427D01*
X59368Y298323D01*
X60071Y299376D01*
X60556Y300546D01*
X60803Y301788D01*
Y303054D01*
X60556Y304296D01*
X60071Y305467D01*
X59368Y306520D01*
X58472Y307415D01*
X57419Y308119D01*
X56249Y308603D01*
X55007Y308850D01*
D02*
G37*
G36*
X161652Y295953D02*
X160348D01*
X159088Y295615D01*
X157959Y294963D01*
X157037Y294041D01*
X156453Y293029D01*
X155953Y293163D01*
Y295953D01*
X146047D01*
Y286047D01*
X155953D01*
Y288837D01*
X156453Y288971D01*
X157037Y287959D01*
X157959Y287037D01*
X159088Y286385D01*
X160348Y286047D01*
X161652D01*
X162912Y286385D01*
X164041Y287037D01*
X164963Y287959D01*
X165615Y289088D01*
X165953Y290348D01*
Y291652D01*
X165615Y292912D01*
X164963Y294041D01*
X164041Y294963D01*
X162912Y295615D01*
X161652Y295953D01*
D02*
G37*
G36*
X110338Y327728D02*
X109072D01*
X107829Y327481D01*
X106659Y326997D01*
X105606Y326293D01*
X104711Y325397D01*
X104007Y324344D01*
X103523Y323175D01*
X103276Y321932D01*
Y320666D01*
X103523Y319424D01*
X104007Y318254D01*
X104711Y317201D01*
X105606Y316305D01*
X106175Y315926D01*
Y314167D01*
X64004Y271996D01*
X63443Y271265D01*
X63090Y270414D01*
X62970Y269500D01*
Y246962D01*
X54504Y238496D01*
X53943Y237765D01*
X53590Y236914D01*
X53470Y236000D01*
Y206462D01*
X32960Y185953D01*
X32348D01*
X31088Y185615D01*
X29959Y184963D01*
X29037Y184041D01*
X28385Y182912D01*
X28047Y181652D01*
Y180348D01*
X28385Y179088D01*
X29037Y177959D01*
X29959Y177037D01*
X31088Y176385D01*
X32348Y176047D01*
X33652D01*
X34912Y176385D01*
X36041Y177037D01*
X36963Y177959D01*
X37547Y178971D01*
X38047Y178837D01*
Y176047D01*
X47953D01*
Y180960D01*
X68460Y201467D01*
X68836Y201568D01*
X69920Y202194D01*
X70806Y203080D01*
X71432Y204164D01*
X71756Y205374D01*
Y206626D01*
X71432Y207836D01*
X70806Y208920D01*
X69920Y209806D01*
X68836Y210432D01*
X67626Y210756D01*
X66374D01*
X65164Y210432D01*
X64080Y209806D01*
X63194Y208920D01*
X62568Y207836D01*
X62244Y206626D01*
Y205374D01*
X62273Y205266D01*
X60885Y203878D01*
X60446Y204074D01*
X60413Y204113D01*
X60530Y205000D01*
X60530Y205000D01*
Y234538D01*
X68996Y243004D01*
X69557Y243735D01*
X69910Y244586D01*
X70030Y245500D01*
Y268038D01*
X72368Y270375D01*
X72792Y270092D01*
X72617Y269671D01*
X72370Y268428D01*
Y267162D01*
X72617Y265920D01*
X73102Y264750D01*
X73805Y263697D01*
X74701Y262801D01*
X75754Y262098D01*
X76924Y261613D01*
X78166Y261366D01*
X79432D01*
X80674Y261613D01*
X81845Y262098D01*
X82898Y262801D01*
X83793Y263697D01*
X84497Y264750D01*
X84981Y265920D01*
X85228Y267162D01*
Y268428D01*
X84981Y269671D01*
X84497Y270841D01*
X83793Y271894D01*
X82898Y272789D01*
X81845Y273493D01*
X80674Y273977D01*
X79432Y274224D01*
X78166D01*
X76924Y273977D01*
X76502Y273803D01*
X76219Y274226D01*
X103274Y301281D01*
X103697Y300998D01*
X103523Y300576D01*
X103276Y299334D01*
Y298068D01*
X103523Y296826D01*
X104007Y295655D01*
X104711Y294602D01*
X105606Y293707D01*
X106659Y293003D01*
X107829Y292519D01*
X109072Y292272D01*
X110338D01*
X111580Y292519D01*
X112750Y293003D01*
X113803Y293707D01*
X114699Y294602D01*
X115402Y295655D01*
X115887Y296826D01*
X116134Y298068D01*
Y299334D01*
X115887Y300576D01*
X115402Y301746D01*
X114699Y302799D01*
X113803Y303695D01*
X112750Y304398D01*
X111580Y304883D01*
X110338Y305130D01*
X109072D01*
X107829Y304883D01*
X107408Y304708D01*
X107124Y305132D01*
X112201Y310209D01*
X112762Y310940D01*
X113115Y311791D01*
X113235Y312705D01*
Y315926D01*
X113803Y316305D01*
X114699Y317201D01*
X115402Y318254D01*
X115887Y319424D01*
X116134Y320666D01*
Y321932D01*
X115887Y323175D01*
X115402Y324344D01*
X114699Y325397D01*
X113803Y326293D01*
X112750Y326997D01*
X111580Y327481D01*
X110338Y327728D01*
D02*
G37*
G36*
X372574Y294862D02*
X371426D01*
X370316Y294565D01*
X369321Y293991D01*
X368509Y293179D01*
X367935Y292184D01*
X367638Y291074D01*
Y289926D01*
X367935Y288816D01*
X368509Y287822D01*
X369321Y287009D01*
X370316Y286435D01*
X371426Y286138D01*
X372574D01*
X373684Y286435D01*
X374678Y287009D01*
X375491Y287822D01*
X376065Y288816D01*
X376362Y289926D01*
Y291074D01*
X376065Y292184D01*
X375491Y293179D01*
X374678Y293991D01*
X373684Y294565D01*
X372574Y294862D01*
D02*
G37*
G36*
X348574D02*
X347426D01*
X346316Y294565D01*
X345321Y293991D01*
X344509Y293179D01*
X343935Y292184D01*
X343638Y291074D01*
Y289926D01*
X343935Y288816D01*
X344509Y287822D01*
X345321Y287009D01*
X346316Y286435D01*
X347426Y286138D01*
X348574D01*
X349684Y286435D01*
X350678Y287009D01*
X351491Y287822D01*
X352065Y288816D01*
X352362Y289926D01*
Y291074D01*
X352065Y292184D01*
X351491Y293179D01*
X350678Y293991D01*
X349684Y294565D01*
X348574Y294862D01*
D02*
G37*
G36*
X326074D02*
X324926D01*
X323816Y294565D01*
X322821Y293991D01*
X322009Y293179D01*
X321435Y292184D01*
X321138Y291074D01*
Y289926D01*
X321435Y288816D01*
X322009Y287822D01*
X322821Y287009D01*
X323816Y286435D01*
X324926Y286138D01*
X326074D01*
X327184Y286435D01*
X328179Y287009D01*
X328991Y287822D01*
X329565Y288816D01*
X329862Y289926D01*
Y291074D01*
X329565Y292184D01*
X328991Y293179D01*
X328179Y293991D01*
X327184Y294565D01*
X326074Y294862D01*
D02*
G37*
G36*
X305074D02*
X303926D01*
X302816Y294565D01*
X301821Y293991D01*
X301009Y293179D01*
X300435Y292184D01*
X300138Y291074D01*
Y289926D01*
X300435Y288816D01*
X301009Y287822D01*
X301821Y287009D01*
X302816Y286435D01*
X303926Y286138D01*
X305074D01*
X306184Y286435D01*
X307178Y287009D01*
X307991Y287822D01*
X308565Y288816D01*
X308862Y289926D01*
Y291074D01*
X308565Y292184D01*
X307991Y293179D01*
X307178Y293991D01*
X306184Y294565D01*
X305074Y294862D01*
D02*
G37*
G36*
X198362Y290874D02*
X189638D01*
Y282150D01*
X198362D01*
Y290874D01*
D02*
G37*
G36*
X37594Y284447D02*
Y280094D01*
X41947D01*
X41654Y281190D01*
X40939Y282428D01*
X39928Y283439D01*
X38690Y284154D01*
X37594Y284447D01*
D02*
G37*
G36*
X35594D02*
X34499Y284154D01*
X33261Y283439D01*
X32250Y282428D01*
X31535Y281190D01*
X31242Y280094D01*
X35594D01*
Y284447D01*
D02*
G37*
G36*
X256626Y286256D02*
X255374D01*
X254164Y285932D01*
X253080Y285306D01*
X252194Y284420D01*
X251568Y283336D01*
X251244Y282126D01*
Y280874D01*
X251568Y279664D01*
X252194Y278580D01*
X253080Y277694D01*
X254164Y277068D01*
X255374Y276744D01*
X256626D01*
X257836Y277068D01*
X258920Y277694D01*
X259806Y278580D01*
X260432Y279664D01*
X260756Y280874D01*
Y282126D01*
X260432Y283336D01*
X259806Y284420D01*
X258920Y285306D01*
X257836Y285932D01*
X256626Y286256D01*
D02*
G37*
G36*
X41947Y278094D02*
X37594D01*
Y273742D01*
X38690Y274035D01*
X39928Y274750D01*
X40939Y275761D01*
X41654Y276999D01*
X41947Y278094D01*
D02*
G37*
G36*
X35594D02*
X31242D01*
X31535Y276999D01*
X32250Y275761D01*
X33261Y274750D01*
X34499Y274035D01*
X35594Y273742D01*
Y278094D01*
D02*
G37*
G36*
X99039Y285524D02*
X97772D01*
X96530Y285277D01*
X95360Y284792D01*
X94307Y284088D01*
X93412Y283193D01*
X92708Y282140D01*
X92224Y280970D01*
X91976Y279728D01*
Y278461D01*
X92224Y277219D01*
X92708Y276049D01*
X93412Y274996D01*
X94307Y274101D01*
X95360Y273397D01*
X96530Y272912D01*
X97772Y272665D01*
X99039D01*
X100281Y272912D01*
X101451Y273397D01*
X102504Y274101D01*
X103399Y274996D01*
X104103Y276049D01*
X104588Y277219D01*
X104835Y278461D01*
Y279728D01*
X104588Y280970D01*
X104103Y282140D01*
X103399Y283193D01*
X102504Y284088D01*
X101451Y284792D01*
X100281Y285277D01*
X99039Y285524D01*
D02*
G37*
G36*
X61630Y273224D02*
X57201D01*
Y268795D01*
X61630D01*
Y273224D01*
D02*
G37*
G36*
X55201D02*
X50772D01*
Y268795D01*
X55201D01*
Y273224D01*
D02*
G37*
G36*
X61630Y266795D02*
X57201D01*
Y262366D01*
X61630D01*
Y266795D01*
D02*
G37*
G36*
X55201D02*
X50772D01*
Y262366D01*
X55201D01*
Y266795D01*
D02*
G37*
G36*
X340432Y269634D02*
X339166D01*
X337924Y269387D01*
X336754Y268902D01*
X335701Y268199D01*
X334805Y267303D01*
X334102Y266250D01*
X333617Y265080D01*
X333370Y263838D01*
Y262572D01*
X333617Y261330D01*
X334102Y260159D01*
X334805Y259106D01*
X335701Y258211D01*
X336754Y257507D01*
X337924Y257023D01*
X339166Y256776D01*
X340432D01*
X341674Y257023D01*
X342845Y257507D01*
X343898Y258211D01*
X344793Y259106D01*
X345497Y260159D01*
X345981Y261330D01*
X346228Y262572D01*
Y263838D01*
X345981Y265080D01*
X345497Y266250D01*
X344793Y267303D01*
X343898Y268199D01*
X342845Y268902D01*
X341674Y269387D01*
X340432Y269634D01*
D02*
G37*
G36*
X317834D02*
X316568D01*
X315325Y269387D01*
X314156Y268902D01*
X313103Y268199D01*
X312207Y267303D01*
X311503Y266250D01*
X311019Y265080D01*
X310772Y263838D01*
Y262572D01*
X311019Y261330D01*
X311503Y260159D01*
X312207Y259106D01*
X313103Y258211D01*
X314156Y257507D01*
X315325Y257023D01*
X316568Y256776D01*
X317834D01*
X319076Y257023D01*
X320246Y257507D01*
X321299Y258211D01*
X322195Y259106D01*
X322898Y260159D01*
X323383Y261330D01*
X323630Y262572D01*
Y263838D01*
X323383Y265080D01*
X322898Y266250D01*
X322195Y267303D01*
X321299Y268199D01*
X320246Y268902D01*
X319076Y269387D01*
X317834Y269634D01*
D02*
G37*
G36*
X227862Y260850D02*
X219138D01*
Y252126D01*
X227862D01*
Y260850D01*
D02*
G37*
G36*
X194574D02*
X193426D01*
X192316Y260553D01*
X191322Y259979D01*
X190509Y259167D01*
X189935Y258172D01*
X189638Y257063D01*
Y255914D01*
X189935Y254804D01*
X190509Y253810D01*
X191322Y252998D01*
X192316Y252423D01*
X193426Y252126D01*
X194574D01*
X195684Y252423D01*
X196678Y252998D01*
X197491Y253810D01*
X198065Y254804D01*
X198362Y255914D01*
Y257063D01*
X198065Y258172D01*
X197491Y259167D01*
X196678Y259979D01*
X195684Y260553D01*
X194574Y260850D01*
D02*
G37*
G36*
X360039Y258335D02*
X358772D01*
X357530Y258088D01*
X356360Y257603D01*
X355307Y256899D01*
X354412Y256004D01*
X353708Y254951D01*
X353223Y253781D01*
X352976Y252539D01*
Y251272D01*
X353223Y250030D01*
X353708Y248860D01*
X354412Y247807D01*
X355307Y246912D01*
X356360Y246208D01*
X357530Y245724D01*
X358772Y245477D01*
X360039D01*
X361281Y245724D01*
X362451Y246208D01*
X363504Y246912D01*
X364399Y247807D01*
X365103Y248860D01*
X365588Y250030D01*
X365835Y251272D01*
Y252539D01*
X365588Y253781D01*
X365103Y254951D01*
X364399Y256004D01*
X363504Y256899D01*
X362451Y257603D01*
X361281Y258088D01*
X360039Y258335D01*
D02*
G37*
G36*
X298228D02*
X296961D01*
X295719Y258088D01*
X294549Y257603D01*
X293496Y256899D01*
X292601Y256004D01*
X291897Y254951D01*
X291412Y253781D01*
X291165Y252539D01*
Y251272D01*
X291412Y250030D01*
X291897Y248860D01*
X292601Y247807D01*
X293496Y246912D01*
X294549Y246208D01*
X295719Y245724D01*
X296961Y245477D01*
X298228D01*
X299470Y245724D01*
X300640Y246208D01*
X301693Y246912D01*
X302588Y247807D01*
X303292Y248860D01*
X303777Y250030D01*
X304024Y251272D01*
Y252539D01*
X303777Y253781D01*
X303292Y254951D01*
X302588Y256004D01*
X301693Y256899D01*
X300640Y257603D01*
X299470Y258088D01*
X298228Y258335D01*
D02*
G37*
G36*
X336712Y240555D02*
X335446D01*
X334204Y240308D01*
X333033Y239823D01*
X331980Y239120D01*
X331085Y238224D01*
X330381Y237171D01*
X329897Y236001D01*
X329650Y234759D01*
Y233493D01*
X329897Y232251D01*
X330381Y231081D01*
X331085Y230028D01*
X331980Y229132D01*
X333033Y228429D01*
X334204Y227944D01*
X335446Y227697D01*
X336712D01*
X337954Y227944D01*
X339124Y228429D01*
X340177Y229132D01*
X341073Y230028D01*
X341776Y231081D01*
X342261Y232251D01*
X342508Y233493D01*
Y234759D01*
X342261Y236001D01*
X341776Y237171D01*
X341073Y238224D01*
X340177Y239120D01*
X339124Y239823D01*
X337954Y240308D01*
X336712Y240555D01*
D02*
G37*
G36*
X260574Y236362D02*
X259426D01*
X258316Y236065D01*
X257322Y235491D01*
X256509Y234678D01*
X255935Y233684D01*
X255638Y232574D01*
Y231426D01*
X255935Y230316D01*
X256509Y229322D01*
X257322Y228509D01*
X258316Y227935D01*
X259426Y227638D01*
X260574D01*
X261684Y227935D01*
X262679Y228509D01*
X263491Y229322D01*
X264065Y230316D01*
X264362Y231426D01*
Y232574D01*
X264065Y233684D01*
X263491Y234678D01*
X262679Y235491D01*
X261684Y236065D01*
X260574Y236362D01*
D02*
G37*
G36*
X230574D02*
X229426D01*
X228316Y236065D01*
X227322Y235491D01*
X226509Y234678D01*
X225935Y233684D01*
X225638Y232574D01*
Y231426D01*
X225935Y230316D01*
X226509Y229322D01*
X227322Y228509D01*
X228316Y227935D01*
X229426Y227638D01*
X230574D01*
X231684Y227935D01*
X232679Y228509D01*
X233491Y229322D01*
X234065Y230316D01*
X234362Y231426D01*
Y232574D01*
X234065Y233684D01*
X233491Y234678D01*
X232679Y235491D01*
X231684Y236065D01*
X230574Y236362D01*
D02*
G37*
G36*
X35580Y235906D02*
X34420D01*
X33299Y235605D01*
X32295Y235025D01*
X31475Y234205D01*
X30895Y233201D01*
X30595Y232080D01*
Y230920D01*
X30895Y229800D01*
X31475Y228795D01*
X32295Y227975D01*
X33299Y227395D01*
X34420Y227095D01*
X35580D01*
X36700Y227395D01*
X37705Y227975D01*
X38525Y228795D01*
X39105Y229800D01*
X39406Y230920D01*
Y232080D01*
X39105Y233201D01*
X38525Y234205D01*
X37705Y235025D01*
X36700Y235605D01*
X35580Y235906D01*
D02*
G37*
G36*
X371338Y238728D02*
X370072D01*
X368829Y238481D01*
X367659Y237997D01*
X366606Y237293D01*
X365711Y236398D01*
X365007Y235345D01*
X364523Y234174D01*
X364276Y232932D01*
Y231666D01*
X364523Y230424D01*
X365007Y229254D01*
X365711Y228201D01*
X366606Y227305D01*
X367659Y226602D01*
X368829Y226117D01*
X370072Y225870D01*
X371338D01*
X372580Y226117D01*
X373750Y226602D01*
X374803Y227305D01*
X375699Y228201D01*
X376402Y229254D01*
X376887Y230424D01*
X377134Y231666D01*
Y232932D01*
X376887Y234174D01*
X376402Y235345D01*
X375699Y236398D01*
X374803Y237293D01*
X373750Y237997D01*
X372580Y238481D01*
X371338Y238728D01*
D02*
G37*
G36*
X286928D02*
X285662D01*
X284420Y238481D01*
X283250Y237997D01*
X282197Y237293D01*
X281301Y236398D01*
X280598Y235345D01*
X280113Y234174D01*
X279866Y232932D01*
Y231666D01*
X280113Y230424D01*
X280598Y229254D01*
X281301Y228201D01*
X282197Y227305D01*
X283250Y226602D01*
X284420Y226117D01*
X285662Y225870D01*
X286928D01*
X288171Y226117D01*
X289340Y226602D01*
X290393Y227305D01*
X291289Y228201D01*
X291993Y229254D01*
X292477Y230424D01*
X292724Y231666D01*
Y232932D01*
X292477Y234174D01*
X291993Y235345D01*
X291289Y236398D01*
X290393Y237293D01*
X289340Y237997D01*
X288171Y238481D01*
X286928Y238728D01*
D02*
G37*
G36*
X314343Y226353D02*
Y222000D01*
X318695D01*
X318402Y223096D01*
X317687Y224334D01*
X316676Y225344D01*
X315438Y226059D01*
X314343Y226353D01*
D02*
G37*
G36*
X312343D02*
X311247Y226059D01*
X310009Y225344D01*
X308998Y224334D01*
X308283Y223096D01*
X307990Y222000D01*
X312343D01*
Y226353D01*
D02*
G37*
G36*
X45580Y225905D02*
X44420D01*
X43299Y225605D01*
X42295Y225025D01*
X41475Y224205D01*
X40895Y223200D01*
X40595Y222080D01*
Y220920D01*
X40895Y219799D01*
X41475Y218795D01*
X42295Y217975D01*
X43299Y217395D01*
X44420Y217094D01*
X45580D01*
X46701Y217395D01*
X47705Y217975D01*
X48525Y218795D01*
X49105Y219799D01*
X49406Y220920D01*
Y222080D01*
X49105Y223200D01*
X48525Y224205D01*
X47705Y225025D01*
X46701Y225605D01*
X45580Y225905D01*
D02*
G37*
G36*
X29406D02*
X20595D01*
Y217094D01*
X29406D01*
Y225905D01*
D02*
G37*
G36*
X318695Y220000D02*
X314343D01*
Y215647D01*
X315438Y215941D01*
X316676Y216656D01*
X317687Y217666D01*
X318402Y218904D01*
X318695Y220000D01*
D02*
G37*
G36*
X312343D02*
X307990D01*
X308283Y218904D01*
X308998Y217666D01*
X310009Y216656D01*
X311247Y215941D01*
X312343Y215647D01*
Y220000D01*
D02*
G37*
G36*
X138626Y271256D02*
X137374D01*
X136164Y270932D01*
X135080Y270306D01*
X134194Y269420D01*
X133568Y268336D01*
X133244Y267126D01*
Y265874D01*
X133288Y265711D01*
X133090Y265234D01*
X132970Y264320D01*
Y222196D01*
X132694Y221920D01*
X132068Y220836D01*
X131744Y219626D01*
Y218374D01*
X132068Y217164D01*
X132694Y216080D01*
X133580Y215194D01*
X134664Y214568D01*
X135874Y214244D01*
X137126D01*
X138336Y214568D01*
X139420Y215194D01*
X140306Y216080D01*
X140932Y217164D01*
X141256Y218374D01*
Y219626D01*
X140932Y220836D01*
X140306Y221920D01*
X140030Y222196D01*
Y262180D01*
X140920Y262694D01*
X141806Y263580D01*
X142432Y264664D01*
X142756Y265874D01*
Y267126D01*
X142432Y268336D01*
X141806Y269420D01*
X140920Y270306D01*
X139836Y270932D01*
X138626Y271256D01*
D02*
G37*
G36*
X377134Y216130D02*
X364276D01*
Y203272D01*
X377134D01*
Y216130D01*
D02*
G37*
G36*
X286928D02*
X285662D01*
X284420Y215883D01*
X283250Y215398D01*
X282197Y214695D01*
X281301Y213799D01*
X280598Y212746D01*
X280113Y211576D01*
X279866Y210334D01*
Y209068D01*
X280113Y207825D01*
X280598Y206656D01*
X281301Y205603D01*
X282197Y204707D01*
X283250Y204003D01*
X284420Y203519D01*
X285662Y203272D01*
X286928D01*
X288171Y203519D01*
X289340Y204003D01*
X290393Y204707D01*
X291289Y205603D01*
X291993Y206656D01*
X292477Y207825D01*
X292724Y209068D01*
Y210334D01*
X292477Y211576D01*
X291993Y212746D01*
X291289Y213799D01*
X290393Y214695D01*
X289340Y215398D01*
X288171Y215883D01*
X286928Y216130D01*
D02*
G37*
G36*
X336712Y214303D02*
X335446D01*
X334204Y214056D01*
X333033Y213571D01*
X331980Y212868D01*
X331085Y211972D01*
X330381Y210919D01*
X329897Y209749D01*
X329650Y208507D01*
Y207241D01*
X329666Y207158D01*
X286504Y163996D01*
X285943Y163265D01*
X285590Y162414D01*
X285470Y161500D01*
Y147462D01*
X257218Y119210D01*
X256756Y119402D01*
Y119626D01*
X256432Y120836D01*
X255806Y121920D01*
X254920Y122806D01*
X253836Y123432D01*
X252626Y123756D01*
X251374D01*
X250164Y123432D01*
X249080Y122806D01*
X248194Y121920D01*
X247568Y120836D01*
X247244Y119626D01*
Y118374D01*
X247568Y117164D01*
X248194Y116080D01*
X249080Y115194D01*
X250164Y114568D01*
X251374Y114244D01*
X251598D01*
X251790Y113782D01*
X248288Y110280D01*
X184750D01*
X183836Y110160D01*
X182985Y109807D01*
X182254Y109246D01*
X154538Y81530D01*
X130260D01*
X129346Y81410D01*
X128495Y81057D01*
X127764Y80496D01*
X116245Y68978D01*
X115784Y69169D01*
Y74783D01*
X107217D01*
Y66216D01*
X112831D01*
X113022Y65755D01*
X90738Y43470D01*
X89847Y43231D01*
X88870Y42668D01*
X88072Y41870D01*
X87508Y40893D01*
X87270Y40002D01*
X86283Y39016D01*
X85783Y39223D01*
Y39804D01*
X85492Y40893D01*
X84928Y41870D01*
X84130Y42668D01*
X83153Y43231D01*
X82064Y43523D01*
X80936D01*
X79847Y43231D01*
X78870Y42668D01*
X78072Y41870D01*
X77508Y40893D01*
X77217Y39804D01*
Y38676D01*
X77508Y37587D01*
X78072Y36610D01*
X78190Y36492D01*
X77999Y36030D01*
X68000D01*
X67086Y35910D01*
X66235Y35557D01*
X65504Y34996D01*
X60294Y29787D01*
X59733Y29055D01*
X59690Y28953D01*
X57047D01*
Y19047D01*
X66953D01*
Y21837D01*
X67453Y21971D01*
X68037Y20959D01*
X68959Y20037D01*
X70088Y19385D01*
X71348Y19047D01*
X72652D01*
X73912Y19385D01*
X75041Y20037D01*
X75963Y20959D01*
X76615Y22088D01*
X76953Y23348D01*
Y24652D01*
X76615Y25912D01*
X75963Y27041D01*
X75041Y27963D01*
X74164Y28470D01*
X74298Y28970D01*
X84760D01*
X85674Y29090D01*
X86525Y29443D01*
X87256Y30004D01*
X92262Y35010D01*
X93153Y35249D01*
X94130Y35812D01*
X94928Y36610D01*
X95491Y37587D01*
X95730Y38478D01*
X96716Y39464D01*
X97216Y39257D01*
Y38676D01*
X97509Y37587D01*
X98072Y36610D01*
X98870Y35812D01*
X99847Y35249D01*
X100738Y35010D01*
X111744Y24004D01*
X112475Y23443D01*
X113326Y23090D01*
X114240Y22970D01*
X138500D01*
X139414Y23090D01*
X140265Y23443D01*
X140996Y24004D01*
X175462Y58470D01*
X213000D01*
X213914Y58590D01*
X214765Y58943D01*
X215496Y59504D01*
X247213Y91221D01*
X247613Y90914D01*
X247568Y90836D01*
X247244Y89626D01*
Y88374D01*
X247568Y87164D01*
X248194Y86080D01*
X249080Y85194D01*
X250164Y84568D01*
X251374Y84244D01*
X252626D01*
X253836Y84568D01*
X254920Y85194D01*
X255806Y86080D01*
X256432Y87164D01*
X256756Y88374D01*
Y89626D01*
X256432Y90836D01*
X255806Y91920D01*
X254920Y92806D01*
X253836Y93432D01*
X252626Y93756D01*
X251374D01*
X250164Y93432D01*
X250086Y93387D01*
X249779Y93787D01*
X263962Y107970D01*
X304390D01*
X305316Y107435D01*
X306426Y107138D01*
X307574D01*
X308684Y107435D01*
X309679Y108009D01*
X310491Y108822D01*
X311065Y109816D01*
X311362Y110926D01*
Y112074D01*
X311065Y113184D01*
X310491Y114178D01*
X309679Y114991D01*
X308684Y115565D01*
X307574Y115862D01*
X306426D01*
X305316Y115565D01*
X304390Y115030D01*
X263676D01*
X263485Y115492D01*
X291496Y143504D01*
X292057Y144235D01*
X292410Y145086D01*
X292530Y146000D01*
Y160038D01*
X310327Y177834D01*
X310870Y177670D01*
X311019Y176920D01*
X311503Y175750D01*
X312207Y174697D01*
X313103Y173801D01*
X314156Y173098D01*
X315325Y172613D01*
X316568Y172366D01*
X317834D01*
X319076Y172613D01*
X320246Y173098D01*
X321299Y173801D01*
X322195Y174697D01*
X322898Y175750D01*
X323383Y176920D01*
X323630Y178162D01*
Y179428D01*
X323383Y180670D01*
X322898Y181841D01*
X322195Y182894D01*
X321299Y183789D01*
X320246Y184493D01*
X319076Y184977D01*
X318326Y185126D01*
X318162Y185669D01*
X334190Y201697D01*
X334204Y201692D01*
X335446Y201445D01*
X336712D01*
X337954Y201692D01*
X339124Y202177D01*
X340177Y202880D01*
X341073Y203776D01*
X341776Y204829D01*
X342261Y205999D01*
X342508Y207241D01*
Y208507D01*
X342261Y209749D01*
X341776Y210919D01*
X341073Y211972D01*
X340177Y212868D01*
X339124Y213571D01*
X337954Y214056D01*
X336712Y214303D01*
D02*
G37*
G36*
X260074Y209529D02*
X258926D01*
X257816Y209232D01*
X256821Y208657D01*
X256009Y207845D01*
X255435Y206850D01*
X255138Y205741D01*
Y204592D01*
X255435Y203483D01*
X256009Y202488D01*
X256821Y201676D01*
X257816Y201102D01*
X258926Y200804D01*
X260074D01*
X261184Y201102D01*
X262178Y201676D01*
X262991Y202488D01*
X263565Y203483D01*
X263862Y204592D01*
Y205741D01*
X263565Y206850D01*
X262991Y207845D01*
X262178Y208657D01*
X261184Y209232D01*
X260074Y209529D01*
D02*
G37*
G36*
X230074D02*
X228926D01*
X227816Y209232D01*
X226821Y208657D01*
X226009Y207845D01*
X225435Y206850D01*
X225138Y205741D01*
Y204592D01*
X225435Y203483D01*
X226009Y202488D01*
X226821Y201676D01*
X227816Y201102D01*
X228926Y200804D01*
X230074D01*
X231184Y201102D01*
X232178Y201676D01*
X232991Y202488D01*
X233565Y203483D01*
X233862Y204592D01*
Y205741D01*
X233565Y206850D01*
X232991Y207845D01*
X232178Y208657D01*
X231184Y209232D01*
X230074Y209529D01*
D02*
G37*
G36*
X198284Y201413D02*
X189716D01*
Y192847D01*
X198284D01*
Y201413D01*
D02*
G37*
G36*
X360039Y196523D02*
X358772D01*
X357530Y196276D01*
X356360Y195792D01*
X355307Y195088D01*
X354412Y194193D01*
X353708Y193140D01*
X353223Y191970D01*
X352976Y190728D01*
Y189461D01*
X353223Y188219D01*
X353708Y187049D01*
X354412Y185996D01*
X355307Y185101D01*
X356360Y184397D01*
X357530Y183912D01*
X358772Y183665D01*
X360039D01*
X361281Y183912D01*
X362451Y184397D01*
X363504Y185101D01*
X364399Y185996D01*
X365103Y187049D01*
X365588Y188219D01*
X365835Y189461D01*
Y190728D01*
X365588Y191970D01*
X365103Y193140D01*
X364399Y194193D01*
X363504Y195088D01*
X362451Y195792D01*
X361281Y196276D01*
X360039Y196523D01*
D02*
G37*
G36*
X298228D02*
X296961D01*
X295719Y196276D01*
X294549Y195792D01*
X293496Y195088D01*
X292601Y194193D01*
X291897Y193140D01*
X291412Y191970D01*
X291165Y190728D01*
Y189461D01*
X291412Y188219D01*
X291897Y187049D01*
X292601Y185996D01*
X293496Y185101D01*
X294549Y184397D01*
X295719Y183912D01*
X296961Y183665D01*
X298228D01*
X299470Y183912D01*
X300640Y184397D01*
X301693Y185101D01*
X302588Y185996D01*
X303292Y187049D01*
X303777Y188219D01*
X304024Y189461D01*
Y190728D01*
X303777Y191970D01*
X303292Y193140D01*
X302588Y194193D01*
X301693Y195088D01*
X300640Y195792D01*
X299470Y196276D01*
X298228Y196523D01*
D02*
G37*
G36*
X260074Y182695D02*
X258926D01*
X257816Y182398D01*
X256821Y181824D01*
X256009Y181012D01*
X255435Y180017D01*
X255138Y178908D01*
Y177759D01*
X255435Y176650D01*
X256009Y175655D01*
X256821Y174843D01*
X257816Y174268D01*
X258926Y173971D01*
X260074D01*
X261184Y174268D01*
X262178Y174843D01*
X262991Y175655D01*
X263565Y176650D01*
X263862Y177759D01*
Y178908D01*
X263565Y180017D01*
X262991Y181012D01*
X262178Y181824D01*
X261184Y182398D01*
X260074Y182695D01*
D02*
G37*
G36*
X230074D02*
X228926D01*
X227816Y182398D01*
X226821Y181824D01*
X226009Y181012D01*
X225435Y180017D01*
X225138Y178908D01*
Y177759D01*
X225435Y176650D01*
X226009Y175655D01*
X226821Y174843D01*
X227816Y174268D01*
X228926Y173971D01*
X230074D01*
X231184Y174268D01*
X232178Y174843D01*
X232991Y175655D01*
X233565Y176650D01*
X233862Y177759D01*
Y178908D01*
X233565Y180017D01*
X232991Y181012D01*
X232178Y181824D01*
X231184Y182398D01*
X230074Y182695D01*
D02*
G37*
G36*
X340432Y185224D02*
X339166D01*
X337924Y184977D01*
X336754Y184493D01*
X335701Y183789D01*
X334805Y182894D01*
X334102Y181841D01*
X333617Y180670D01*
X333370Y179428D01*
Y178162D01*
X333617Y176920D01*
X334102Y175750D01*
X334805Y174697D01*
X335701Y173801D01*
X336754Y173098D01*
X337924Y172613D01*
X339166Y172366D01*
X340432D01*
X341674Y172613D01*
X342845Y173098D01*
X343898Y173801D01*
X344793Y174697D01*
X345497Y175750D01*
X345981Y176920D01*
X346228Y178162D01*
Y179428D01*
X345981Y180670D01*
X345497Y181841D01*
X344793Y182894D01*
X343898Y183789D01*
X342845Y184493D01*
X341674Y184977D01*
X340432Y185224D01*
D02*
G37*
G36*
X184564Y170153D02*
X183436D01*
X182347Y169862D01*
X181370Y169298D01*
X180572Y168500D01*
X180008Y167523D01*
X179717Y166434D01*
Y165306D01*
X180008Y164217D01*
X180572Y163240D01*
X181370Y162442D01*
X182347Y161878D01*
X183436Y161586D01*
X184564D01*
X185653Y161878D01*
X186630Y162442D01*
X187428Y163240D01*
X187992Y164217D01*
X188284Y165306D01*
Y166434D01*
X187992Y167523D01*
X187428Y168500D01*
X186630Y169298D01*
X185653Y169862D01*
X184564Y170153D01*
D02*
G37*
G36*
X174564D02*
X173436D01*
X172347Y169862D01*
X171370Y169298D01*
X170572Y168500D01*
X170008Y167523D01*
X169717Y166434D01*
Y165306D01*
X170008Y164217D01*
X170572Y163240D01*
X171370Y162442D01*
X172347Y161878D01*
X173436Y161586D01*
X174564D01*
X175653Y161878D01*
X176630Y162442D01*
X177428Y163240D01*
X177992Y164217D01*
X178284Y165306D01*
Y166434D01*
X177992Y167523D01*
X177428Y168500D01*
X176630Y169298D01*
X175653Y169862D01*
X174564Y170153D01*
D02*
G37*
G36*
X164564D02*
X163436D01*
X162347Y169862D01*
X161370Y169298D01*
X160572Y168500D01*
X160008Y167523D01*
X159716Y166434D01*
Y165306D01*
X160008Y164217D01*
X160572Y163240D01*
X161370Y162442D01*
X162347Y161878D01*
X163436Y161586D01*
X164564D01*
X165653Y161878D01*
X166630Y162442D01*
X167428Y163240D01*
X167992Y164217D01*
X168283Y165306D01*
Y166434D01*
X167992Y167523D01*
X167428Y168500D01*
X166630Y169298D01*
X165653Y169862D01*
X164564Y170153D01*
D02*
G37*
G36*
X260074Y155862D02*
X258926D01*
X257816Y155565D01*
X256821Y154991D01*
X256009Y154178D01*
X255435Y153184D01*
X255138Y152074D01*
Y150926D01*
X255435Y149816D01*
X256009Y148822D01*
X256821Y148009D01*
X257816Y147435D01*
X258926Y147138D01*
X260074D01*
X261184Y147435D01*
X262178Y148009D01*
X262991Y148822D01*
X263565Y149816D01*
X263862Y150926D01*
Y152074D01*
X263565Y153184D01*
X262991Y154178D01*
X262178Y154991D01*
X261184Y155565D01*
X260074Y155862D01*
D02*
G37*
G36*
X230074D02*
X228926D01*
X227816Y155565D01*
X226821Y154991D01*
X226009Y154178D01*
X225435Y153184D01*
X225138Y152074D01*
Y150926D01*
X225435Y149816D01*
X226009Y148822D01*
X226821Y148009D01*
X227816Y147435D01*
X228926Y147138D01*
X230074D01*
X231184Y147435D01*
X232178Y148009D01*
X232991Y148822D01*
X233565Y149816D01*
X233862Y150926D01*
Y152074D01*
X233565Y153184D01*
X232991Y154178D01*
X232178Y154991D01*
X231184Y155565D01*
X230074Y155862D01*
D02*
G37*
G36*
X372574Y145862D02*
X371426D01*
X370316Y145565D01*
X369321Y144991D01*
X368509Y144178D01*
X367935Y143184D01*
X367638Y142074D01*
Y140926D01*
X367935Y139816D01*
X368509Y138822D01*
X369321Y138009D01*
X370316Y137435D01*
X371426Y137138D01*
X372574D01*
X373684Y137435D01*
X374678Y138009D01*
X375491Y138822D01*
X376065Y139816D01*
X376362Y140926D01*
Y142074D01*
X376065Y143184D01*
X375491Y144178D01*
X374678Y144991D01*
X373684Y145565D01*
X372574Y145862D01*
D02*
G37*
G36*
X351574D02*
X350426D01*
X349316Y145565D01*
X348322Y144991D01*
X347509Y144178D01*
X346935Y143184D01*
X346638Y142074D01*
Y140926D01*
X346935Y139816D01*
X347509Y138822D01*
X348322Y138009D01*
X349316Y137435D01*
X350426Y137138D01*
X351574D01*
X352684Y137435D01*
X353678Y138009D01*
X354491Y138822D01*
X355065Y139816D01*
X355362Y140926D01*
Y142074D01*
X355065Y143184D01*
X354491Y144178D01*
X353678Y144991D01*
X352684Y145565D01*
X351574Y145862D01*
D02*
G37*
G36*
X330074D02*
X328926D01*
X327816Y145565D01*
X326821Y144991D01*
X326009Y144178D01*
X325435Y143184D01*
X325138Y142074D01*
Y140926D01*
X325435Y139816D01*
X326009Y138822D01*
X326821Y138009D01*
X327816Y137435D01*
X328926Y137138D01*
X330074D01*
X331184Y137435D01*
X332178Y138009D01*
X332991Y138822D01*
X333565Y139816D01*
X333862Y140926D01*
Y142074D01*
X333565Y143184D01*
X332991Y144178D01*
X332178Y144991D01*
X331184Y145565D01*
X330074Y145862D01*
D02*
G37*
G36*
X307574D02*
X306426D01*
X305316Y145565D01*
X304322Y144991D01*
X303509Y144178D01*
X302935Y143184D01*
X302638Y142074D01*
Y140926D01*
X302935Y139816D01*
X303509Y138822D01*
X304322Y138009D01*
X305316Y137435D01*
X306426Y137138D01*
X307574D01*
X308684Y137435D01*
X309679Y138009D01*
X310491Y138822D01*
X311065Y139816D01*
X311362Y140926D01*
Y142074D01*
X311065Y143184D01*
X310491Y144178D01*
X309679Y144991D01*
X308684Y145565D01*
X307574Y145862D01*
D02*
G37*
G36*
X112126Y144756D02*
X110874D01*
X109664Y144432D01*
X108580Y143806D01*
X107694Y142920D01*
X107068Y141836D01*
X106744Y140626D01*
Y139374D01*
X107068Y138164D01*
X107694Y137080D01*
X108580Y136194D01*
X109664Y135568D01*
X110874Y135244D01*
X112126D01*
X113336Y135568D01*
X114420Y136194D01*
X115306Y137080D01*
X115932Y138164D01*
X116256Y139374D01*
Y140626D01*
X115932Y141836D01*
X115306Y142920D01*
X114420Y143806D01*
X113336Y144432D01*
X112126Y144756D01*
D02*
G37*
G36*
X82126D02*
X80874D01*
X79664Y144432D01*
X78580Y143806D01*
X77694Y142920D01*
X77068Y141836D01*
X76744Y140626D01*
Y139374D01*
X77068Y138164D01*
X77694Y137080D01*
X78580Y136194D01*
X79664Y135568D01*
X80874Y135244D01*
X82126D01*
X83336Y135568D01*
X84420Y136194D01*
X85306Y137080D01*
X85932Y138164D01*
X86256Y139374D01*
Y140626D01*
X85932Y141836D01*
X85306Y142920D01*
X84420Y143806D01*
X83336Y144432D01*
X82126Y144756D01*
D02*
G37*
G36*
X175152Y131453D02*
X173848D01*
X172588Y131115D01*
X171459Y130463D01*
X170537Y129541D01*
X169885Y128412D01*
X169759Y127942D01*
X169241D01*
X169115Y128412D01*
X168463Y129541D01*
X167541Y130463D01*
X166412Y131115D01*
X165152Y131453D01*
X163848D01*
X162588Y131115D01*
X161459Y130463D01*
X160537Y129541D01*
X159953Y128529D01*
X159453Y128663D01*
Y131453D01*
X149547D01*
Y121547D01*
X159453D01*
Y124337D01*
X159953Y124471D01*
X160537Y123459D01*
X161459Y122537D01*
X162588Y121885D01*
X163848Y121547D01*
X165152D01*
X166412Y121885D01*
X167541Y122537D01*
X168463Y123459D01*
X169115Y124588D01*
X169241Y125058D01*
X169759D01*
X169885Y124588D01*
X170537Y123459D01*
X171459Y122537D01*
X172588Y121885D01*
X173848Y121547D01*
X174460D01*
X180004Y116004D01*
X180735Y115443D01*
X181586Y115090D01*
X182500Y114970D01*
X224804D01*
X225080Y114694D01*
X226164Y114068D01*
X227374Y113744D01*
X228626D01*
X229836Y114068D01*
X230920Y114694D01*
X231806Y115580D01*
X232432Y116664D01*
X232756Y117874D01*
Y119126D01*
X232432Y120336D01*
X231806Y121420D01*
X230920Y122306D01*
X229836Y122932D01*
X228626Y123256D01*
X227374D01*
X226164Y122932D01*
X225080Y122306D01*
X224804Y122030D01*
X183962D01*
X179453Y126540D01*
Y127152D01*
X179115Y128412D01*
X178463Y129541D01*
X177541Y130463D01*
X176412Y131115D01*
X175152Y131453D01*
D02*
G37*
G36*
X43564Y132913D02*
X42436D01*
X41347Y132622D01*
X40370Y132058D01*
X39572Y131260D01*
X39008Y130283D01*
X38717Y129194D01*
Y128066D01*
X39008Y126977D01*
X39572Y126000D01*
X40370Y125202D01*
X41347Y124638D01*
X42436Y124346D01*
X43564D01*
X44653Y124638D01*
X45630Y125202D01*
X46428Y126000D01*
X46992Y126977D01*
X47284Y128066D01*
Y129194D01*
X46992Y130283D01*
X46428Y131260D01*
X45630Y132058D01*
X44653Y132622D01*
X43564Y132913D01*
D02*
G37*
G36*
X33564D02*
X32436D01*
X31347Y132622D01*
X30370Y132058D01*
X29572Y131260D01*
X29008Y130283D01*
X28716Y129194D01*
Y128066D01*
X29008Y126977D01*
X29572Y126000D01*
X30370Y125202D01*
X31347Y124638D01*
X32436Y124346D01*
X33564D01*
X34653Y124638D01*
X35630Y125202D01*
X36428Y126000D01*
X36992Y126977D01*
X37284Y128066D01*
Y129194D01*
X36992Y130283D01*
X36428Y131260D01*
X35630Y132058D01*
X34653Y132622D01*
X33564Y132913D01*
D02*
G37*
G36*
X23564D02*
X22436D01*
X21347Y132622D01*
X20370Y132058D01*
X19572Y131260D01*
X19008Y130283D01*
X18717Y129194D01*
Y128066D01*
X19008Y126977D01*
X19572Y126000D01*
X20370Y125202D01*
X21347Y124638D01*
X22436Y124346D01*
X23564D01*
X24653Y124638D01*
X25630Y125202D01*
X26428Y126000D01*
X26992Y126977D01*
X27283Y128066D01*
Y129194D01*
X26992Y130283D01*
X26428Y131260D01*
X25630Y132058D01*
X24653Y132622D01*
X23564Y132913D01*
D02*
G37*
G36*
X113126Y121256D02*
X111874D01*
X110664Y120932D01*
X109580Y120306D01*
X108694Y119420D01*
X108068Y118336D01*
X107744Y117126D01*
Y115874D01*
X108068Y114664D01*
X108694Y113580D01*
X109580Y112694D01*
X110664Y112068D01*
X111874Y111744D01*
X113126D01*
X114336Y112068D01*
X115420Y112694D01*
X116306Y113580D01*
X116932Y114664D01*
X117256Y115874D01*
Y117126D01*
X116932Y118336D01*
X116306Y119420D01*
X115420Y120306D01*
X114336Y120932D01*
X113126Y121256D01*
D02*
G37*
G36*
X83126D02*
X81874D01*
X80664Y120932D01*
X79580Y120306D01*
X78694Y119420D01*
X78068Y118336D01*
X77744Y117126D01*
Y115874D01*
X78068Y114664D01*
X78694Y113580D01*
X79580Y112694D01*
X80664Y112068D01*
X81874Y111744D01*
X83126D01*
X84336Y112068D01*
X85420Y112694D01*
X86306Y113580D01*
X86932Y114664D01*
X87256Y115874D01*
Y117126D01*
X86932Y118336D01*
X86306Y119420D01*
X85420Y120306D01*
X84336Y120932D01*
X83126Y121256D01*
D02*
G37*
G36*
X372574Y115862D02*
X371426D01*
X370316Y115565D01*
X369321Y114991D01*
X368509Y114178D01*
X367935Y113184D01*
X367638Y112074D01*
Y110926D01*
X367935Y109816D01*
X368509Y108822D01*
X369321Y108009D01*
X370316Y107435D01*
X371426Y107138D01*
X372574D01*
X373684Y107435D01*
X374678Y108009D01*
X375491Y108822D01*
X376065Y109816D01*
X376362Y110926D01*
Y112074D01*
X376065Y113184D01*
X375491Y114178D01*
X374678Y114991D01*
X373684Y115565D01*
X372574Y115862D01*
D02*
G37*
G36*
X351574D02*
X350426D01*
X349316Y115565D01*
X348322Y114991D01*
X347509Y114178D01*
X346935Y113184D01*
X346638Y112074D01*
Y110926D01*
X346935Y109816D01*
X347509Y108822D01*
X348322Y108009D01*
X349316Y107435D01*
X350426Y107138D01*
X351574D01*
X352684Y107435D01*
X353678Y108009D01*
X354491Y108822D01*
X355065Y109816D01*
X355362Y110926D01*
Y112074D01*
X355065Y113184D01*
X354491Y114178D01*
X353678Y114991D01*
X352684Y115565D01*
X351574Y115862D01*
D02*
G37*
G36*
X330074D02*
X328926D01*
X327816Y115565D01*
X326821Y114991D01*
X326009Y114178D01*
X325435Y113184D01*
X325138Y112074D01*
Y110926D01*
X325435Y109816D01*
X326009Y108822D01*
X326821Y108009D01*
X327816Y107435D01*
X328926Y107138D01*
X330074D01*
X331184Y107435D01*
X332178Y108009D01*
X332991Y108822D01*
X333565Y109816D01*
X333862Y110926D01*
Y112074D01*
X333565Y113184D01*
X332991Y114178D01*
X332178Y114991D01*
X331184Y115565D01*
X330074Y115862D01*
D02*
G37*
G36*
X43564Y101654D02*
X42436D01*
X41347Y101362D01*
X40370Y100798D01*
X39572Y100000D01*
X39008Y99023D01*
X38717Y97934D01*
Y96806D01*
X39008Y95717D01*
X39572Y94740D01*
X40370Y93942D01*
X41347Y93378D01*
X42436Y93086D01*
X43564D01*
X44653Y93378D01*
X45630Y93942D01*
X46428Y94740D01*
X46992Y95717D01*
X47284Y96806D01*
Y97934D01*
X46992Y99023D01*
X46428Y100000D01*
X45630Y100798D01*
X44653Y101362D01*
X43564Y101654D01*
D02*
G37*
G36*
X33564D02*
X32436D01*
X31347Y101362D01*
X30370Y100798D01*
X29572Y100000D01*
X29008Y99023D01*
X28716Y97934D01*
Y96806D01*
X29008Y95717D01*
X29572Y94740D01*
X30370Y93942D01*
X31347Y93378D01*
X32436Y93086D01*
X33564D01*
X34653Y93378D01*
X35630Y93942D01*
X36428Y94740D01*
X36992Y95717D01*
X37284Y96806D01*
Y97934D01*
X36992Y99023D01*
X36428Y100000D01*
X35630Y100798D01*
X34653Y101362D01*
X33564Y101654D01*
D02*
G37*
G36*
X27283D02*
X18717D01*
Y93086D01*
X27283D01*
Y101654D01*
D02*
G37*
G36*
X159126Y98256D02*
X157874D01*
X156664Y97932D01*
X155580Y97306D01*
X154694Y96420D01*
X154068Y95336D01*
X153744Y94126D01*
Y92874D01*
X154068Y91664D01*
X154694Y90580D01*
X155580Y89694D01*
X156664Y89068D01*
X157874Y88744D01*
X159126D01*
X160336Y89068D01*
X161420Y89694D01*
X162306Y90580D01*
X162932Y91664D01*
X163256Y92874D01*
Y94126D01*
X162932Y95336D01*
X162306Y96420D01*
X161420Y97306D01*
X160336Y97932D01*
X159126Y98256D01*
D02*
G37*
G36*
X136626Y97256D02*
X135374D01*
X134164Y96932D01*
X133080Y96306D01*
X132194Y95420D01*
X131568Y94336D01*
X131244Y93126D01*
Y91874D01*
X131568Y90664D01*
X132194Y89580D01*
X133080Y88694D01*
X134164Y88068D01*
X135374Y87744D01*
X136626D01*
X137836Y88068D01*
X138920Y88694D01*
X139806Y89580D01*
X140432Y90664D01*
X140756Y91874D01*
Y93126D01*
X140432Y94336D01*
X139806Y95420D01*
X138920Y96306D01*
X137836Y96932D01*
X136626Y97256D01*
D02*
G37*
G36*
X102500Y73631D02*
Y71500D01*
X104631D01*
X104560Y71767D01*
X104127Y72516D01*
X103516Y73127D01*
X102767Y73560D01*
X102500Y73631D01*
D02*
G37*
G36*
X100500D02*
X100233Y73560D01*
X99484Y73127D01*
X98873Y72516D01*
X98440Y71767D01*
X98369Y71500D01*
X100500D01*
Y73631D01*
D02*
G37*
G36*
X104631Y69500D02*
X102500D01*
Y67369D01*
X102767Y67440D01*
X103516Y67873D01*
X104127Y68484D01*
X104560Y69233D01*
X104631Y69500D01*
D02*
G37*
G36*
X100500D02*
X98369D01*
X98440Y69233D01*
X98873Y68484D01*
X99484Y67873D01*
X100233Y67440D01*
X100500Y67369D01*
Y69500D01*
D02*
G37*
G36*
X92064Y74783D02*
X90936D01*
X89847Y74492D01*
X88870Y73928D01*
X88072Y73130D01*
X87508Y72153D01*
X87217Y71064D01*
Y69936D01*
X87508Y68847D01*
X88072Y67870D01*
X88870Y67072D01*
X89847Y66509D01*
X90936Y66216D01*
X92064D01*
X93153Y66509D01*
X94130Y67072D01*
X94928Y67870D01*
X95491Y68847D01*
X95784Y69936D01*
Y71064D01*
X95491Y72153D01*
X94928Y73130D01*
X94130Y73928D01*
X93153Y74492D01*
X92064Y74783D01*
D02*
G37*
G36*
X330074Y74362D02*
X328926D01*
X327816Y74065D01*
X326821Y73491D01*
X326009Y72678D01*
X325435Y71684D01*
X325138Y70574D01*
Y69426D01*
X325435Y68316D01*
X326009Y67322D01*
X326821Y66509D01*
X327816Y65935D01*
X328926Y65638D01*
X330074D01*
X331184Y65935D01*
X332178Y66509D01*
X332991Y67322D01*
X333565Y68316D01*
X333862Y69426D01*
Y70574D01*
X333565Y71684D01*
X332991Y72678D01*
X332178Y73491D01*
X331184Y74065D01*
X330074Y74362D01*
D02*
G37*
G36*
X287194Y56283D02*
X286066D01*
X284977Y55992D01*
X284000Y55428D01*
X283202Y54630D01*
X282638Y53653D01*
X282346Y52564D01*
Y51436D01*
X282638Y50347D01*
X283202Y49370D01*
X284000Y48572D01*
X284977Y48008D01*
X286066Y47717D01*
X287194D01*
X288283Y48008D01*
X289260Y48572D01*
X290057Y49370D01*
X290621Y50347D01*
X290913Y51436D01*
Y52564D01*
X290621Y53653D01*
X290057Y54630D01*
X289260Y55428D01*
X288283Y55992D01*
X287194Y56283D01*
D02*
G37*
G36*
X373152Y56953D02*
X371848D01*
X370588Y56615D01*
X369459Y55963D01*
X368537Y55041D01*
X367885Y53912D01*
X367547Y52652D01*
Y51348D01*
X367885Y50088D01*
X368537Y48959D01*
X369459Y48037D01*
X370588Y47385D01*
X371848Y47047D01*
X373152D01*
X374412Y47385D01*
X375541Y48037D01*
X376463Y48959D01*
X377115Y50088D01*
X377453Y51348D01*
Y52652D01*
X377115Y53912D01*
X376463Y55041D01*
X375541Y55963D01*
X374412Y56615D01*
X373152Y56953D01*
D02*
G37*
G36*
X287630Y45131D02*
Y43000D01*
X289761D01*
X289690Y43267D01*
X289257Y44016D01*
X288646Y44627D01*
X287897Y45060D01*
X287630Y45131D01*
D02*
G37*
G36*
X285630D02*
X285363Y45060D01*
X284614Y44627D01*
X284002Y44016D01*
X283570Y43267D01*
X283499Y43000D01*
X285630D01*
Y45131D01*
D02*
G37*
G36*
Y41000D02*
X283499D01*
X283570Y40733D01*
X284002Y39984D01*
X284614Y39373D01*
X285363Y38940D01*
X285630Y38869D01*
Y41000D01*
D02*
G37*
G36*
X333862Y44362D02*
X325138D01*
Y35638D01*
X333862D01*
Y44362D01*
D02*
G37*
G36*
X255934Y36283D02*
X254806D01*
X253717Y35992D01*
X252740Y35428D01*
X251942Y34630D01*
X251378Y33653D01*
X251087Y32564D01*
Y31436D01*
X251378Y30347D01*
X251942Y29370D01*
X252740Y28572D01*
X253717Y28008D01*
X254806Y27716D01*
X255934D01*
X257023Y28008D01*
X258000Y28572D01*
X258798Y29370D01*
X259362Y30347D01*
X259653Y31436D01*
Y32564D01*
X259362Y33653D01*
X258798Y34630D01*
X258000Y35428D01*
X257023Y35992D01*
X255934Y36283D01*
D02*
G37*
G36*
X190650Y51665D02*
X180350D01*
Y41366D01*
X181430D01*
X181622Y40904D01*
X181379Y40662D01*
X180701Y39488D01*
X180350Y38178D01*
Y36822D01*
X180701Y35512D01*
X181379Y34338D01*
X182338Y33379D01*
X182576Y33242D01*
Y32742D01*
X182338Y32605D01*
X181379Y31646D01*
X180701Y30472D01*
X180350Y29162D01*
Y27806D01*
X180701Y26496D01*
X181379Y25322D01*
X182338Y24363D01*
X183512Y23686D01*
X184822Y23335D01*
X186178D01*
X187488Y23686D01*
X188662Y24363D01*
X189621Y25322D01*
X190299Y26496D01*
X190650Y27806D01*
Y29162D01*
X190299Y30472D01*
X189621Y31646D01*
X188662Y32605D01*
X188424Y32742D01*
Y33242D01*
X188662Y33379D01*
X189621Y34338D01*
X190299Y35512D01*
X190650Y36822D01*
Y38178D01*
X190299Y39488D01*
X189621Y40662D01*
X189378Y40904D01*
X189570Y41366D01*
X190650D01*
Y51665D01*
D02*
G37*
G36*
X290913Y26283D02*
X282346D01*
Y17717D01*
X290913D01*
Y26283D01*
D02*
G37*
G36*
X255934D02*
X254806D01*
X253717Y25992D01*
X252740Y25428D01*
X251942Y24630D01*
X251378Y23653D01*
X251087Y22564D01*
Y21436D01*
X251378Y20347D01*
X251942Y19370D01*
X252740Y18572D01*
X253717Y18008D01*
X254806Y17717D01*
X255934D01*
X257023Y18008D01*
X258000Y18572D01*
X258798Y19370D01*
X259362Y20347D01*
X259653Y21436D01*
Y22564D01*
X259362Y23653D01*
X258798Y24630D01*
X258000Y25428D01*
X257023Y25992D01*
X255934Y26283D01*
D02*
G37*
G36*
X12779Y20405D02*
X11221D01*
X9694Y20102D01*
X8255Y19506D01*
X6961Y18641D01*
X5859Y17539D01*
X4994Y16245D01*
X4398Y14806D01*
X4095Y13279D01*
Y11721D01*
X4398Y10194D01*
X4994Y8755D01*
X5859Y7461D01*
X6961Y6359D01*
X8255Y5494D01*
X9694Y4898D01*
X11221Y4594D01*
X12779D01*
X14306Y4898D01*
X15745Y5494D01*
X17040Y6359D01*
X18141Y7461D01*
X19006Y8755D01*
X19602Y10194D01*
X19906Y11721D01*
Y13279D01*
X19602Y14806D01*
X19006Y16245D01*
X18141Y17539D01*
X17040Y18641D01*
X15745Y19506D01*
X14306Y20102D01*
X12779Y20405D01*
D02*
G37*
%LPD*%
G36*
X248765Y102758D02*
X233051Y87043D01*
X232603Y87302D01*
X232756Y87874D01*
Y89126D01*
X232432Y90336D01*
X231806Y91420D01*
X230920Y92306D01*
X229836Y92932D01*
X228626Y93256D01*
X227374D01*
X226164Y92932D01*
X225080Y92306D01*
X224194Y91420D01*
X223568Y90336D01*
X223244Y89126D01*
Y87874D01*
X223568Y86664D01*
X224194Y85580D01*
X225080Y84694D01*
X226164Y84068D01*
X227374Y83744D01*
X228626D01*
X229198Y83897D01*
X229456Y83449D01*
X211538Y65530D01*
X174000D01*
X173086Y65410D01*
X172235Y65057D01*
X171504Y64496D01*
X137038Y30030D01*
X115702D01*
X111276Y34457D01*
X111483Y34956D01*
X112064D01*
X112993Y35206D01*
X134240D01*
X134240Y35206D01*
X135284Y35343D01*
X136257Y35746D01*
X137093Y36387D01*
X159568Y58863D01*
X160336Y59068D01*
X161420Y59694D01*
X162306Y60580D01*
X162932Y61664D01*
X163256Y62874D01*
Y64126D01*
X162932Y65336D01*
X162306Y66420D01*
X161420Y67306D01*
X160336Y67932D01*
X159126Y68256D01*
X157874D01*
X156664Y67932D01*
X155580Y67306D01*
X154694Y66420D01*
X154068Y65336D01*
X153863Y64568D01*
X132569Y43275D01*
X112993D01*
X112064Y43523D01*
X110936D01*
X109847Y43231D01*
X108870Y42668D01*
X108072Y41870D01*
X107508Y40893D01*
X107217Y39804D01*
Y39223D01*
X106717Y39016D01*
X105730Y40002D01*
X105492Y40893D01*
X104928Y41870D01*
X104130Y42668D01*
X103153Y43231D01*
X102064Y43523D01*
X101483D01*
X101276Y44023D01*
X131722Y74470D01*
X156000D01*
X156914Y74590D01*
X157765Y74943D01*
X158496Y75504D01*
X186212Y103220D01*
X248574D01*
X248765Y102758D01*
D02*
G37*
%LPC*%
G36*
X203500Y86824D02*
Y84000D01*
X206324D01*
X206183Y84526D01*
X205663Y85427D01*
X204927Y86163D01*
X204026Y86683D01*
X203500Y86824D01*
D02*
G37*
G36*
X201500D02*
X200974Y86683D01*
X200073Y86163D01*
X199337Y85427D01*
X198817Y84526D01*
X198676Y84000D01*
X201500D01*
Y86824D01*
D02*
G37*
G36*
X206324Y82000D02*
X203500D01*
Y79176D01*
X204026Y79317D01*
X204927Y79837D01*
X205663Y80573D01*
X206183Y81474D01*
X206324Y82000D01*
D02*
G37*
G36*
X201500D02*
X198676D01*
X198817Y81474D01*
X199337Y80573D01*
X200073Y79837D01*
X200974Y79317D01*
X201500Y79176D01*
Y82000D01*
D02*
G37*
G36*
X197453Y87953D02*
X187547D01*
Y78047D01*
X197453D01*
Y87953D01*
D02*
G37*
G36*
X136626Y67256D02*
X135374D01*
X134164Y66932D01*
X133080Y66306D01*
X132194Y65420D01*
X131568Y64336D01*
X131244Y63126D01*
Y61874D01*
X131568Y60664D01*
X132194Y59580D01*
X133080Y58694D01*
X134164Y58068D01*
X135374Y57744D01*
X136626D01*
X137836Y58068D01*
X138920Y58694D01*
X139806Y59580D01*
X140432Y60664D01*
X140756Y61874D01*
Y63126D01*
X140432Y64336D01*
X139806Y65420D01*
X138920Y66306D01*
X137836Y66932D01*
X136626Y67256D01*
D02*
G37*
%LPD*%
D30*
X329500Y70000D02*
D03*
X372000Y290500D02*
D03*
Y320500D02*
D03*
Y141500D02*
D03*
Y111500D02*
D03*
X351000Y141500D02*
D03*
Y111500D02*
D03*
X329500Y141500D02*
D03*
Y111500D02*
D03*
X307000Y141500D02*
D03*
Y111500D02*
D03*
X194000Y256488D02*
D03*
X223500Y286512D02*
D03*
X304500Y320500D02*
D03*
Y290500D02*
D03*
X325500Y320500D02*
D03*
Y290500D02*
D03*
X348000Y320500D02*
D03*
Y290500D02*
D03*
X229500Y151500D02*
D03*
X259500D02*
D03*
X229500Y178333D02*
D03*
X259500D02*
D03*
X229500Y205167D02*
D03*
X259500D02*
D03*
X230000Y232000D02*
D03*
X260000D02*
D03*
D31*
X329500Y40000D02*
D03*
X194000Y286512D02*
D03*
X223500Y256488D02*
D03*
D34*
X84760Y32500D02*
X91500Y39240D01*
X62790Y27290D02*
X68000Y32500D01*
X84760D01*
X155000Y329500D02*
X181500Y356000D01*
X143500Y329500D02*
X155000D01*
X181500Y356000D02*
X199000D01*
X224297Y286412D02*
Y286842D01*
X220130Y334500D02*
Y334870D01*
Y334500D02*
X230000Y324630D01*
X199000Y356000D02*
X220130Y334870D01*
X132500Y318500D02*
X143500Y329500D01*
X83000Y233500D02*
X132500Y283000D01*
Y318500D01*
X83000Y186500D02*
Y233500D01*
X53000Y156500D02*
X83000Y186500D01*
X53000Y128630D02*
Y156500D01*
X119000Y219000D02*
X132500Y205500D01*
X138500D01*
X157000Y224000D01*
Y255500D02*
X168000Y266500D01*
X157000Y224000D02*
Y255500D01*
X136500Y264320D02*
X138000Y265820D01*
X136500Y219000D02*
Y264320D01*
X138000Y265820D02*
Y266500D01*
X66500Y245500D02*
Y269500D01*
X109705Y312705D02*
Y321299D01*
X66500Y269500D02*
X109705Y312705D01*
X57000Y236000D02*
X66500Y245500D01*
X57000Y205000D02*
Y236000D01*
X33000Y181000D02*
X57000Y205000D01*
X224829Y287374D02*
X225374D01*
X230000Y292000D02*
Y324630D01*
X224297Y286842D02*
X224829Y287374D01*
X225374D02*
X230000Y292000D01*
X335374Y207874D02*
X336079D01*
X289000Y161500D02*
X335374Y207874D01*
X289000Y146000D02*
Y161500D01*
X249750Y106750D02*
X289000Y146000D01*
X184750Y106750D02*
X249750D01*
X156000Y78000D02*
X184750Y106750D01*
X213000Y62000D02*
X262500Y111500D01*
X307000D01*
X182500Y118500D02*
X228000D01*
X174500Y126500D02*
X182500Y118500D01*
X91500Y39240D02*
X130260Y78000D01*
X156000D01*
X101500Y39240D02*
X114240Y26500D01*
X138500D01*
X174000Y62000D01*
X213000D01*
X286630Y32000D02*
X300000Y45370D01*
Y62000D01*
X273500Y88500D02*
X300000Y62000D01*
X66519Y205519D02*
X67000Y206000D01*
X43000Y181000D02*
X66519Y204519D01*
Y205519D01*
X255370Y52000D02*
Y60370D01*
X273500Y78500D01*
D35*
X38000Y27000D02*
X81500Y70500D01*
X38000Y19500D02*
Y27000D01*
Y19500D02*
X43000Y14500D01*
X189500D01*
X361500Y6500D02*
X382500Y27500D01*
X37000Y6500D02*
X361500D01*
X382500Y27500D02*
Y39657D01*
X380157Y42000D02*
X382500Y39657D01*
X372500Y42000D02*
X380157D01*
X97000Y206000D02*
X105500Y197500D01*
X143000D02*
X176000Y230500D01*
X105500Y197500D02*
X143000D01*
X176000Y230500D02*
Y311630D01*
X188870Y324500D01*
X219000Y236500D02*
X240000Y257500D01*
X194000Y165870D02*
X219000Y190870D01*
Y236500D01*
X204500Y237630D02*
Y298870D01*
X188870Y314500D02*
X204500Y298870D01*
X164000Y197130D02*
X204500Y237630D01*
X188870Y324500D02*
X212000Y301370D01*
X175930Y197430D02*
X212000Y233500D01*
Y301370D01*
X174300Y197430D02*
X175930D01*
X174000Y197130D02*
X174300Y197430D01*
X135500Y168630D02*
X164000Y197130D01*
X240000Y257500D02*
Y324630D01*
X135500Y122500D02*
Y168630D01*
X113000Y100000D02*
X135500Y122500D01*
X98500Y100000D02*
X113000D01*
X81500Y83000D02*
X98500Y100000D01*
X220130Y344500D02*
X240000Y324630D01*
X8000Y35500D02*
X37000Y6500D01*
X8000Y35500D02*
Y281406D01*
X189500Y14500D02*
X212500Y37500D01*
X8000Y281406D02*
X25295Y298701D01*
X111500Y39240D02*
X134240D01*
X158500Y63500D01*
X81500Y70500D02*
Y83000D01*
X67430Y97070D02*
X81500Y83000D01*
X53300Y97070D02*
X67430D01*
X53000Y97370D02*
X53300Y97070D01*
X250430Y46516D02*
X254946Y42000D01*
X255370D01*
X212500Y46516D02*
X250430D01*
D36*
X188870Y314500D02*
D03*
Y334500D02*
D03*
Y324500D02*
D03*
X220130Y314500D02*
D03*
Y324500D02*
D03*
Y344500D02*
D03*
Y334500D02*
D03*
X184000Y197130D02*
D03*
X174000D02*
D03*
X164000D02*
D03*
Y165870D02*
D03*
X174000D02*
D03*
X184000D02*
D03*
X194000D02*
D03*
X286630Y32000D02*
D03*
Y42000D02*
D03*
Y52000D02*
D03*
X255370D02*
D03*
Y42000D02*
D03*
Y32000D02*
D03*
Y22000D02*
D03*
X101500Y70500D02*
D03*
X91500D02*
D03*
X81500D02*
D03*
Y39240D02*
D03*
X91500D02*
D03*
X101500D02*
D03*
X111500D02*
D03*
X23000Y128630D02*
D03*
X33000D02*
D03*
X43000D02*
D03*
X53000D02*
D03*
Y97370D02*
D03*
X43000D02*
D03*
X33000D02*
D03*
D37*
X188870Y344500D02*
D03*
X286630Y22000D02*
D03*
D38*
X194000Y197130D02*
D03*
X111500Y70500D02*
D03*
X23000Y97370D02*
D03*
D39*
X98406Y340906D02*
D03*
X78799Y352205D02*
D03*
X109705Y321299D02*
D03*
X56201Y352205D02*
D03*
X67500Y325157D02*
D03*
X109705Y298701D02*
D03*
X80626Y302421D02*
D03*
X98406Y279094D02*
D03*
X78799Y267795D02*
D03*
X54374Y302421D02*
D03*
X36594Y340906D02*
D03*
Y279094D02*
D03*
X25295Y321299D02*
D03*
Y298701D02*
D03*
X359406Y190094D02*
D03*
X339799Y178795D02*
D03*
X317201D02*
D03*
X297594Y190094D02*
D03*
X286295Y209701D02*
D03*
Y232299D02*
D03*
X297594Y251906D02*
D03*
X317201Y263205D02*
D03*
X339799D02*
D03*
X359406Y251906D02*
D03*
X370705Y232299D02*
D03*
X336079Y207874D02*
D03*
X313343Y221000D02*
D03*
X336079Y234126D02*
D03*
D40*
X56201Y267795D02*
D03*
D41*
X256000Y321500D02*
D03*
Y281500D02*
D03*
X136500Y189000D02*
D03*
Y219000D02*
D03*
X138000Y266500D02*
D03*
X168000D02*
D03*
X287500Y369500D02*
D03*
X317500D02*
D03*
X252000Y119000D02*
D03*
Y89000D02*
D03*
X67000Y206000D02*
D03*
X97000D02*
D03*
X112500Y116500D02*
D03*
X82500D02*
D03*
X136000Y62500D02*
D03*
Y92500D02*
D03*
X119000Y189000D02*
D03*
Y219000D02*
D03*
X151000Y316000D02*
D03*
Y346000D02*
D03*
X111500Y140000D02*
D03*
X81500D02*
D03*
X187500Y375500D02*
D03*
X157500D02*
D03*
X131000Y376000D02*
D03*
Y346000D02*
D03*
X278500Y338500D02*
D03*
Y308500D02*
D03*
X158500Y63500D02*
D03*
Y93500D02*
D03*
X228000Y118500D02*
D03*
Y88500D02*
D03*
D42*
X273500D02*
D03*
X174500Y126500D02*
D03*
X164500D02*
D03*
X202500Y83000D02*
D03*
X33000Y181000D02*
D03*
X372500Y42000D02*
D03*
Y52000D02*
D03*
X72000Y24000D02*
D03*
X161000Y291000D02*
D03*
D43*
X273500Y78500D02*
D03*
X372500Y32000D02*
D03*
D44*
X154500Y126500D02*
D03*
X192500Y83000D02*
D03*
X43000Y181000D02*
D03*
X62000Y24000D02*
D03*
X151000Y291000D02*
D03*
D45*
X185500Y46516D02*
D03*
X212500D02*
D03*
D46*
X185500Y37500D02*
D03*
Y28484D02*
D03*
X212500D02*
D03*
Y37500D02*
D03*
D47*
X370705Y209701D02*
D03*
D48*
X259000Y366500D02*
D03*
X249000Y376500D02*
D03*
X45000Y221500D02*
D03*
X35000Y231500D02*
D03*
D49*
X239000Y366500D02*
D03*
X25000Y221500D02*
D03*
M02*
