G04*
G04 #@! TF.GenerationSoftware,Altium Limited,Altium Designer,22.4.2 (48)*
G04*
G04 Layer_Color=16711935*
%FSLAX25Y25*%
%MOIN*%
G70*
G04*
G04 #@! TF.SameCoordinates,0208FD7A-64DB-45E4-85D5-A9DD0F7FCACB*
G04*
G04*
G04 #@! TF.FilePolarity,Positive*
G04*
G01*
G75*
%ADD10C,0.00787*%
%ADD12C,0.00500*%
%ADD50C,0.00004*%
%ADD51C,0.00039*%
%ADD52C,0.00394*%
D10*
X190240Y280476D02*
X197760D01*
X190240Y262524D02*
Y280476D01*
Y262524D02*
X197760D01*
Y280476D01*
X219740Y262524D02*
X227260D01*
Y280476D01*
X219740D02*
X227260D01*
X219740Y262524D02*
Y280476D01*
D12*
X236008Y380161D02*
X261992D01*
Y352602D02*
Y380161D01*
X236008Y352602D02*
X261992D01*
X236008D02*
Y380161D01*
X22008Y235161D02*
X47992D01*
Y207602D02*
Y235161D01*
X22008Y207602D02*
X47992D01*
X22008D02*
Y235161D01*
D50*
X82657Y310000D02*
G03*
X82657Y310000I-15157J0D01*
G01*
X343657Y221000D02*
G03*
X343657Y221000I-15157J0D01*
G01*
D51*
X111201Y310000D02*
G03*
X111201Y310000I-43701J0D01*
G01*
X372201Y221000D02*
G03*
X372201Y221000I-43701J0D01*
G01*
D52*
X179634Y22146D02*
Y52854D01*
X191445Y22146D02*
Y52854D01*
X179634D02*
X191445D01*
X179634Y22146D02*
X191445D01*
X186524D02*
Y52854D01*
X213524Y22146D02*
Y52854D01*
X206634Y22146D02*
X218445D01*
X206634Y52854D02*
X218445D01*
Y22146D02*
Y52854D01*
X206634Y22146D02*
Y52854D01*
M02*
