G04*
G04 #@! TF.GenerationSoftware,Altium Limited,Altium Designer,22.4.2 (48)*
G04*
G04 Layer_Color=8388736*
%FSLAX25Y25*%
%MOIN*%
G70*
G04*
G04 #@! TF.SameCoordinates,0208FD7A-64DB-45E4-85D5-A9DD0F7FCACB*
G04*
G04*
G04 #@! TF.FilePolarity,Positive*
G04*
G01*
G75*
%ADD10C,0.00787*%
G36*
X196519Y270532D02*
X196515Y270466D01*
X196512Y270393D01*
X196504Y270321D01*
X196493Y270248D01*
X196482Y270186D01*
Y270182D01*
X196479Y270175D01*
Y270164D01*
X196472Y270150D01*
X196461Y270110D01*
X196442Y270059D01*
X196417Y270000D01*
X196384Y269938D01*
X196348Y269877D01*
X196300Y269818D01*
X196297Y269815D01*
X196293Y269811D01*
X196282Y269800D01*
X196271Y269786D01*
X196235Y269749D01*
X196184Y269706D01*
X196122Y269658D01*
X196049Y269607D01*
X195966Y269560D01*
X195871Y269520D01*
X195867D01*
X195860Y269516D01*
X195845Y269509D01*
X195824Y269505D01*
X195798Y269494D01*
X195769Y269487D01*
X195736Y269480D01*
X195696Y269469D01*
X195656Y269458D01*
X195609Y269451D01*
X195507Y269432D01*
X195394Y269422D01*
X195270Y269418D01*
X195267D01*
X195259D01*
X195241D01*
X195223D01*
X195197Y269422D01*
X195168D01*
X195099Y269425D01*
X195019Y269436D01*
X194935Y269447D01*
X194848Y269465D01*
X194761Y269487D01*
X194757D01*
X194750Y269491D01*
X194739Y269494D01*
X194724Y269498D01*
X194684Y269513D01*
X194633Y269534D01*
X194575Y269556D01*
X194517Y269585D01*
X194455Y269622D01*
X194397Y269658D01*
X194389Y269662D01*
X194371Y269676D01*
X194346Y269698D01*
X194313Y269727D01*
X194277Y269760D01*
X194240Y269800D01*
X194200Y269840D01*
X194167Y269887D01*
X194164Y269895D01*
X194153Y269909D01*
X194138Y269935D01*
X194120Y269971D01*
X194098Y270015D01*
X194080Y270066D01*
X194058Y270124D01*
X194040Y270190D01*
Y270197D01*
X194036Y270208D01*
X194033Y270219D01*
X194029Y270255D01*
X194022Y270306D01*
X194015Y270364D01*
X194007Y270433D01*
X194004Y270510D01*
X194000Y270594D01*
Y271500D01*
X196519D01*
Y270532D01*
D02*
G37*
G36*
X195896Y268847D02*
X195904Y268839D01*
X195907Y268825D01*
X195918Y268806D01*
X195929Y268785D01*
X195944Y268759D01*
X195980Y268697D01*
X196020Y268624D01*
X196071Y268552D01*
X196129Y268475D01*
X196191Y268399D01*
X196195Y268395D01*
X196198Y268391D01*
X196209Y268380D01*
X196220Y268366D01*
X196257Y268333D01*
X196300Y268290D01*
X196351Y268246D01*
X196410Y268198D01*
X196468Y268159D01*
X196530Y268122D01*
Y267922D01*
X194000D01*
Y268231D01*
X195969D01*
X195966Y268235D01*
X195951Y268253D01*
X195929Y268275D01*
X195904Y268311D01*
X195871Y268351D01*
X195835Y268402D01*
X195794Y268461D01*
X195754Y268526D01*
Y268530D01*
X195751Y268533D01*
X195736Y268555D01*
X195718Y268592D01*
X195696Y268635D01*
X195671Y268686D01*
X195645Y268741D01*
X195620Y268795D01*
X195598Y268850D01*
X195896D01*
Y268847D01*
D02*
G37*
G36*
X223500Y273870D02*
X223496D01*
X223482D01*
X223460D01*
X223431Y273873D01*
X223398Y273877D01*
X223362Y273884D01*
X223325Y273891D01*
X223285Y273906D01*
X223282D01*
X223278Y273910D01*
X223256Y273917D01*
X223223Y273932D01*
X223180Y273953D01*
X223129Y273982D01*
X223071Y274019D01*
X223012Y274059D01*
X222950Y274110D01*
X222947D01*
X222943Y274117D01*
X222921Y274135D01*
X222888Y274168D01*
X222841Y274215D01*
X222787Y274270D01*
X222721Y274339D01*
X222648Y274423D01*
X222572Y274514D01*
X222568Y274517D01*
X222557Y274532D01*
X222539Y274554D01*
X222517Y274579D01*
X222488Y274612D01*
X222455Y274652D01*
X222419Y274692D01*
X222379Y274740D01*
X222292Y274831D01*
X222204Y274921D01*
X222161Y274965D01*
X222117Y275005D01*
X222077Y275042D01*
X222037Y275071D01*
X222033D01*
X222029Y275078D01*
X222019Y275085D01*
X222004Y275093D01*
X221964Y275118D01*
X221917Y275147D01*
X221858Y275173D01*
X221796Y275198D01*
X221727Y275213D01*
X221662Y275220D01*
X221658D01*
X221655D01*
X221633Y275216D01*
X221596Y275213D01*
X221556Y275202D01*
X221505Y275187D01*
X221454Y275162D01*
X221403Y275129D01*
X221352Y275085D01*
X221345Y275078D01*
X221331Y275060D01*
X221312Y275034D01*
X221287Y274994D01*
X221265Y274943D01*
X221243Y274885D01*
X221229Y274816D01*
X221225Y274740D01*
Y274718D01*
X221229Y274703D01*
X221232Y274659D01*
X221243Y274608D01*
X221258Y274554D01*
X221283Y274492D01*
X221316Y274434D01*
X221360Y274379D01*
X221367Y274372D01*
X221385Y274357D01*
X221414Y274336D01*
X221458Y274314D01*
X221509Y274288D01*
X221574Y274266D01*
X221647Y274252D01*
X221731Y274244D01*
X221698Y273928D01*
X221695D01*
X221684Y273932D01*
X221666D01*
X221640Y273935D01*
X221611Y273942D01*
X221578Y273950D01*
X221538Y273961D01*
X221498Y273972D01*
X221411Y274001D01*
X221323Y274044D01*
X221280Y274070D01*
X221236Y274103D01*
X221196Y274135D01*
X221160Y274172D01*
X221156Y274175D01*
X221152Y274183D01*
X221141Y274194D01*
X221130Y274212D01*
X221116Y274234D01*
X221101Y274259D01*
X221083Y274288D01*
X221065Y274325D01*
X221047Y274365D01*
X221028Y274408D01*
X221014Y274456D01*
X220999Y274507D01*
X220988Y274561D01*
X220977Y274619D01*
X220974Y274681D01*
X220970Y274747D01*
Y274783D01*
X220974Y274809D01*
X220977Y274838D01*
X220981Y274874D01*
X220988Y274914D01*
X220996Y274954D01*
X221021Y275049D01*
X221058Y275144D01*
X221079Y275191D01*
X221105Y275238D01*
X221138Y275282D01*
X221174Y275322D01*
X221178Y275326D01*
X221181Y275333D01*
X221196Y275340D01*
X221211Y275355D01*
X221229Y275373D01*
X221254Y275391D01*
X221280Y275409D01*
X221312Y275431D01*
X221382Y275467D01*
X221469Y275504D01*
X221513Y275518D01*
X221564Y275526D01*
X221615Y275533D01*
X221669Y275537D01*
X221676D01*
X221695D01*
X221724Y275533D01*
X221764Y275529D01*
X221807Y275522D01*
X221858Y275508D01*
X221913Y275493D01*
X221968Y275471D01*
X221975Y275467D01*
X221993Y275460D01*
X222022Y275446D01*
X222062Y275424D01*
X222106Y275395D01*
X222161Y275358D01*
X222215Y275315D01*
X222277Y275264D01*
X222284Y275256D01*
X222306Y275238D01*
X222324Y275220D01*
X222342Y275202D01*
X222364Y275180D01*
X222393Y275151D01*
X222423Y275122D01*
X222455Y275085D01*
X222492Y275049D01*
X222532Y275005D01*
X222572Y274958D01*
X222619Y274907D01*
X222667Y274849D01*
X222717Y274791D01*
X222721Y274787D01*
X222728Y274780D01*
X222739Y274765D01*
X222754Y274747D01*
X222776Y274725D01*
X222797Y274699D01*
X222845Y274641D01*
X222899Y274579D01*
X222954Y274521D01*
X223001Y274470D01*
X223020Y274448D01*
X223038Y274430D01*
X223041Y274427D01*
X223052Y274416D01*
X223067Y274401D01*
X223089Y274383D01*
X223114Y274365D01*
X223140Y274343D01*
X223201Y274299D01*
Y275540D01*
X223500D01*
Y273870D01*
D02*
G37*
G36*
X222303Y273578D02*
X222332D01*
X222401Y273575D01*
X222481Y273564D01*
X222565Y273553D01*
X222652Y273535D01*
X222739Y273513D01*
X222743D01*
X222750Y273509D01*
X222761Y273506D01*
X222776Y273502D01*
X222816Y273487D01*
X222867Y273465D01*
X222925Y273444D01*
X222983Y273415D01*
X223045Y273378D01*
X223103Y273342D01*
X223111Y273338D01*
X223129Y273324D01*
X223154Y273302D01*
X223187Y273273D01*
X223223Y273240D01*
X223260Y273200D01*
X223300Y273160D01*
X223333Y273113D01*
X223336Y273105D01*
X223347Y273091D01*
X223362Y273065D01*
X223380Y273029D01*
X223402Y272985D01*
X223420Y272934D01*
X223442Y272876D01*
X223460Y272810D01*
Y272803D01*
X223464Y272792D01*
X223467Y272781D01*
X223471Y272745D01*
X223478Y272694D01*
X223485Y272636D01*
X223493Y272567D01*
X223496Y272490D01*
X223500Y272406D01*
Y271500D01*
X220981D01*
Y272468D01*
X220985Y272534D01*
X220988Y272606D01*
X220996Y272679D01*
X221007Y272752D01*
X221018Y272814D01*
Y272818D01*
X221021Y272825D01*
Y272836D01*
X221028Y272850D01*
X221039Y272890D01*
X221058Y272941D01*
X221083Y273000D01*
X221116Y273061D01*
X221152Y273123D01*
X221199Y273182D01*
X221203Y273185D01*
X221207Y273189D01*
X221218Y273200D01*
X221229Y273214D01*
X221265Y273251D01*
X221316Y273294D01*
X221378Y273342D01*
X221451Y273393D01*
X221534Y273440D01*
X221629Y273480D01*
X221633D01*
X221640Y273484D01*
X221655Y273491D01*
X221676Y273495D01*
X221702Y273506D01*
X221731Y273513D01*
X221764Y273520D01*
X221804Y273531D01*
X221844Y273542D01*
X221891Y273549D01*
X221993Y273568D01*
X222106Y273578D01*
X222230Y273582D01*
X222233D01*
X222241D01*
X222259D01*
X222277D01*
X222303Y273578D01*
D02*
G37*
%LPC*%
G36*
X196220Y271165D02*
X194298D01*
Y270568D01*
X194302Y270543D01*
X194306Y270488D01*
X194309Y270426D01*
X194317Y270361D01*
X194327Y270295D01*
X194342Y270241D01*
X194346Y270233D01*
X194349Y270215D01*
X194360Y270190D01*
X194375Y270157D01*
X194397Y270121D01*
X194419Y270084D01*
X194444Y270048D01*
X194473Y270011D01*
X194480Y270008D01*
X194495Y269993D01*
X194520Y269971D01*
X194557Y269946D01*
X194604Y269917D01*
X194659Y269884D01*
X194721Y269855D01*
X194790Y269829D01*
X194793D01*
X194801Y269826D01*
X194812Y269822D01*
X194826Y269818D01*
X194844Y269815D01*
X194870Y269807D01*
X194895Y269800D01*
X194924Y269793D01*
X194997Y269782D01*
X195081Y269771D01*
X195176Y269764D01*
X195278Y269760D01*
X195281D01*
X195296D01*
X195314D01*
X195343Y269764D01*
X195376D01*
X195412Y269767D01*
X195456Y269771D01*
X195500Y269775D01*
X195598Y269793D01*
X195700Y269815D01*
X195794Y269847D01*
X195842Y269869D01*
X195882Y269891D01*
X195886D01*
X195893Y269898D01*
X195904Y269906D01*
X195918Y269913D01*
X195955Y269942D01*
X195998Y269978D01*
X196046Y270026D01*
X196093Y270080D01*
X196133Y270142D01*
X196166Y270208D01*
X196169Y270215D01*
X196173Y270233D01*
X196184Y270266D01*
X196195Y270313D01*
X196202Y270372D01*
X196213Y270444D01*
X196217Y270488D01*
Y270535D01*
X196220Y270583D01*
Y271165D01*
D02*
G37*
G36*
X222222Y273240D02*
X222219D01*
X222204D01*
X222186D01*
X222157Y273236D01*
X222124D01*
X222088Y273233D01*
X222044Y273229D01*
X222000Y273225D01*
X221902Y273207D01*
X221800Y273185D01*
X221706Y273152D01*
X221658Y273131D01*
X221618Y273109D01*
X221615D01*
X221607Y273101D01*
X221596Y273094D01*
X221582Y273087D01*
X221545Y273058D01*
X221502Y273022D01*
X221454Y272974D01*
X221407Y272920D01*
X221367Y272858D01*
X221334Y272792D01*
X221331Y272785D01*
X221327Y272767D01*
X221316Y272734D01*
X221305Y272687D01*
X221298Y272628D01*
X221287Y272555D01*
X221283Y272512D01*
Y272465D01*
X221280Y272417D01*
Y271835D01*
X223201D01*
Y272432D01*
X223198Y272457D01*
X223194Y272512D01*
X223191Y272574D01*
X223183Y272639D01*
X223172Y272705D01*
X223158Y272759D01*
X223154Y272767D01*
X223151Y272785D01*
X223140Y272810D01*
X223125Y272843D01*
X223103Y272880D01*
X223081Y272916D01*
X223056Y272952D01*
X223027Y272989D01*
X223020Y272992D01*
X223005Y273007D01*
X222979Y273029D01*
X222943Y273054D01*
X222896Y273083D01*
X222841Y273116D01*
X222779Y273145D01*
X222710Y273171D01*
X222707D01*
X222699Y273174D01*
X222688Y273178D01*
X222674Y273182D01*
X222656Y273185D01*
X222630Y273193D01*
X222605Y273200D01*
X222575Y273207D01*
X222503Y273218D01*
X222419Y273229D01*
X222324Y273236D01*
X222222Y273240D01*
D02*
G37*
%LPD*%
D10*
X189846Y289268D02*
X198154D01*
X189846Y253732D02*
Y289268D01*
Y253732D02*
X198154D01*
Y289268D01*
X219346Y253732D02*
X227654D01*
Y289268D01*
X219346D02*
X227654D01*
X219346Y253732D02*
Y289268D01*
M02*
