G04*
G04 #@! TF.GenerationSoftware,Altium Limited,Altium Designer,22.4.2 (48)*
G04*
G04 Layer_Color=32768*
%FSLAX25Y25*%
%MOIN*%
G70*
G04*
G04 #@! TF.SameCoordinates,0208FD7A-64DB-45E4-85D5-A9DD0F7FCACB*
G04*
G04*
G04 #@! TF.FilePolarity,Positive*
G04*
G01*
G75*
%ADD52C,0.00394*%
%ADD53C,0.00197*%
D52*
X190504Y309500D02*
X218496D01*
X190504D02*
Y349500D01*
X218496Y309500D02*
Y349500D01*
X190504D02*
X218496D01*
X190504Y344500D02*
X195504Y349500D01*
X199000Y167504D02*
Y195496D01*
X159000Y167504D02*
X199000D01*
X159000D02*
Y195496D01*
X199000D01*
X194000D02*
X199000Y190496D01*
X257004Y17000D02*
X284996D01*
X257004D02*
Y57000D01*
X284996D01*
Y17000D02*
Y57000D01*
X279996Y17000D02*
X284996Y22000D01*
X116500Y40874D02*
Y68866D01*
X76500Y40874D02*
X116500D01*
X76500D02*
Y68866D01*
X116500D01*
X111500D02*
X116500Y63866D01*
X18000Y104004D02*
X23000Y99004D01*
X18000D02*
X58000D01*
Y126996D01*
X18000D02*
X58000D01*
X18000Y99004D02*
Y126996D01*
X183532Y37500D02*
X187469D01*
X185500Y35532D02*
Y39469D01*
X212500Y35532D02*
Y39469D01*
X210532Y37500D02*
X214469D01*
D53*
X120256Y310000D02*
G03*
X120256Y310000I-52756J0D01*
G01*
X381256Y221000D02*
G03*
X381256Y221000I-52756J0D01*
G01*
X178650Y21161D02*
Y53839D01*
X192429Y21161D02*
Y53839D01*
X178650D02*
X192429D01*
X178650Y21161D02*
X192429D01*
X205650D02*
X219429D01*
X205650Y53839D02*
X219429D01*
Y21161D02*
Y53839D01*
X205650Y21161D02*
Y53839D01*
X235024Y351618D02*
X262976D01*
X235024D02*
Y381146D01*
X262976D01*
Y351618D02*
Y381146D01*
X21024Y206618D02*
X48976D01*
X21024D02*
Y236146D01*
X48976D01*
Y206618D02*
Y236146D01*
M02*
