G04*
G04 #@! TF.GenerationSoftware,Altium Limited,Altium Designer,22.4.2 (48)*
G04*
G04 Layer_Color=255*
%FSLAX25Y25*%
%MOIN*%
G70*
G04*
G04 #@! TF.SameCoordinates,0208FD7A-64DB-45E4-85D5-A9DD0F7FCACB*
G04*
G04*
G04 #@! TF.FilePolarity,Positive*
G04*
G01*
G75*
%ADD30C,0.04724*%
%ADD31R,0.04724X0.04724*%
%ADD36C,0.04567*%
%ADD37R,0.04567X0.04567*%
%ADD38R,0.04567X0.04567*%
%ADD39C,0.08858*%
%ADD40R,0.08858X0.08858*%
%ADD41C,0.05512*%
%ADD42C,0.05906*%
%ADD43R,0.05906X0.05906*%
%ADD44R,0.05906X0.05906*%
%ADD45R,0.06299X0.06299*%
%ADD46C,0.06299*%
%ADD47R,0.08858X0.08858*%
%ADD48C,0.04811*%
%ADD49R,0.04811X0.04811*%
D30*
X329500Y70000D02*
D03*
X372000Y290500D02*
D03*
Y320500D02*
D03*
Y141500D02*
D03*
Y111500D02*
D03*
X351000Y141500D02*
D03*
Y111500D02*
D03*
X329500Y141500D02*
D03*
Y111500D02*
D03*
X307000Y141500D02*
D03*
Y111500D02*
D03*
X194000Y256488D02*
D03*
X223500Y286512D02*
D03*
X304500Y320500D02*
D03*
Y290500D02*
D03*
X325500Y320500D02*
D03*
Y290500D02*
D03*
X348000Y320500D02*
D03*
Y290500D02*
D03*
X229500Y151500D02*
D03*
X259500D02*
D03*
X229500Y178333D02*
D03*
X259500D02*
D03*
X229500Y205167D02*
D03*
X259500D02*
D03*
X230000Y232000D02*
D03*
X260000D02*
D03*
D31*
X329500Y40000D02*
D03*
X194000Y286512D02*
D03*
X223500Y256488D02*
D03*
D36*
X188870Y314500D02*
D03*
Y334500D02*
D03*
Y324500D02*
D03*
X220130Y314500D02*
D03*
Y324500D02*
D03*
Y344500D02*
D03*
Y334500D02*
D03*
X184000Y197130D02*
D03*
X174000D02*
D03*
X164000D02*
D03*
Y165870D02*
D03*
X174000D02*
D03*
X184000D02*
D03*
X194000D02*
D03*
X286630Y32000D02*
D03*
Y42000D02*
D03*
Y52000D02*
D03*
X255370D02*
D03*
Y42000D02*
D03*
Y32000D02*
D03*
Y22000D02*
D03*
X101500Y70500D02*
D03*
X91500D02*
D03*
X81500D02*
D03*
Y39240D02*
D03*
X91500D02*
D03*
X101500D02*
D03*
X111500D02*
D03*
X23000Y128630D02*
D03*
X33000D02*
D03*
X43000D02*
D03*
X53000D02*
D03*
Y97370D02*
D03*
X43000D02*
D03*
X33000D02*
D03*
D37*
X188870Y344500D02*
D03*
X286630Y22000D02*
D03*
D38*
X194000Y197130D02*
D03*
X111500Y70500D02*
D03*
X23000Y97370D02*
D03*
D39*
X98406Y340906D02*
D03*
X78799Y352205D02*
D03*
X109705Y321299D02*
D03*
X56201Y352205D02*
D03*
X67500Y325157D02*
D03*
X109705Y298701D02*
D03*
X80626Y302421D02*
D03*
X98406Y279094D02*
D03*
X78799Y267795D02*
D03*
X54374Y302421D02*
D03*
X36594Y340906D02*
D03*
Y279094D02*
D03*
X25295Y321299D02*
D03*
Y298701D02*
D03*
X359406Y190094D02*
D03*
X339799Y178795D02*
D03*
X317201D02*
D03*
X297594Y190094D02*
D03*
X286295Y209701D02*
D03*
Y232299D02*
D03*
X297594Y251906D02*
D03*
X317201Y263205D02*
D03*
X339799D02*
D03*
X359406Y251906D02*
D03*
X370705Y232299D02*
D03*
X336079Y207874D02*
D03*
X313343Y221000D02*
D03*
X336079Y234126D02*
D03*
D40*
X56201Y267795D02*
D03*
D41*
X256000Y321500D02*
D03*
Y281500D02*
D03*
X136500Y189000D02*
D03*
Y219000D02*
D03*
X138000Y266500D02*
D03*
X168000D02*
D03*
X287500Y369500D02*
D03*
X317500D02*
D03*
X252000Y119000D02*
D03*
Y89000D02*
D03*
X67000Y206000D02*
D03*
X97000D02*
D03*
X112500Y116500D02*
D03*
X82500D02*
D03*
X136000Y62500D02*
D03*
Y92500D02*
D03*
X119000Y189000D02*
D03*
Y219000D02*
D03*
X151000Y316000D02*
D03*
Y346000D02*
D03*
X111500Y140000D02*
D03*
X81500D02*
D03*
X187500Y375500D02*
D03*
X157500D02*
D03*
X131000Y376000D02*
D03*
Y346000D02*
D03*
X278500Y338500D02*
D03*
Y308500D02*
D03*
X158500Y63500D02*
D03*
Y93500D02*
D03*
X228000Y118500D02*
D03*
Y88500D02*
D03*
D42*
X273500D02*
D03*
X174500Y126500D02*
D03*
X164500D02*
D03*
X202500Y83000D02*
D03*
X33000Y181000D02*
D03*
X372500Y42000D02*
D03*
Y52000D02*
D03*
X72000Y24000D02*
D03*
X161000Y291000D02*
D03*
D43*
X273500Y78500D02*
D03*
X372500Y32000D02*
D03*
D44*
X154500Y126500D02*
D03*
X192500Y83000D02*
D03*
X43000Y181000D02*
D03*
X62000Y24000D02*
D03*
X151000Y291000D02*
D03*
D45*
X185500Y46516D02*
D03*
X212500D02*
D03*
D46*
X185500Y37500D02*
D03*
Y28484D02*
D03*
X212500D02*
D03*
Y37500D02*
D03*
D47*
X370705Y209701D02*
D03*
D48*
X259000Y366500D02*
D03*
X249000Y376500D02*
D03*
X45000Y221500D02*
D03*
X35000Y231500D02*
D03*
D49*
X239000Y366500D02*
D03*
X25000Y221500D02*
D03*
M02*
